<svg width="16" height="15" viewBox="0 0 16 15" fill="none" xmlns="http://www.w3.org/2000/svg">
<g clip-path="url(#clip0_13:983)">
<path d="M8 15C12.1421 15 15.5 11.6421 15.5 7.5C15.5 3.35786 12.1421 0 8 0C3.85786 0 0.5 3.35786 0.5 7.5C0.5 11.6421 3.85786 15 8 15Z" fill="#A36C22"/>
<path d="M8.00003 0C7.86615 0 7.73311 0.00366211 7.60095 0.0105762C11.5576 0.218057 14.7019 3.49175 14.7019 7.5C14.7019 11.5083 11.5576 14.7819 7.60095 14.9894C7.73311 14.9963 7.86615 15 8.00003 15C12.1422 15 15.5 11.6421 15.5 7.5C15.5 3.35786 12.1422 0 8.00003 0Z" fill="#82561A"/>
<path d="M8.00011 13.3445C11.2279 13.3445 13.8445 10.7278 13.8445 7.50011C13.8445 4.27236 11.2279 1.65576 8.00011 1.65576C4.77236 1.65576 2.15576 4.27236 2.15576 7.50011C2.15576 10.7278 4.77236 13.3445 8.00011 13.3445Z" fill="#F4FBFF"/>
<path d="M8.00002 1.65576C7.83816 1.65576 7.67793 1.66265 7.51941 1.67554C10.5223 1.91999 12.8832 4.43422 12.8832 7.50011C12.8832 10.566 10.5223 13.0802 7.51941 13.3247C7.67793 13.3376 7.83816 13.3445 8.00002 13.3445C11.2278 13.3445 13.8444 10.7279 13.8444 7.50014C13.8444 4.27241 11.2278 1.65576 8.00002 1.65576Z" fill="#DAF1F4"/>
<path d="M8.00003 3.45436C7.87502 3.45436 7.77368 3.35302 7.77368 3.22801V2.89578C7.77368 2.77077 7.87502 2.66943 8.00003 2.66943C8.12504 2.66943 8.2264 2.77077 8.2264 2.89578V3.22801C8.2264 3.35302 8.12504 3.45436 8.00003 3.45436Z" fill="#2B4D66"/>
<path d="M11.0085 4.71058C10.9505 4.71058 10.8926 4.68846 10.8484 4.64428C10.76 4.55586 10.76 4.41257 10.8484 4.32415L11.0834 4.08925C11.1717 4.00083 11.3151 4.00086 11.4035 4.08925C11.4919 4.17767 11.4919 4.32096 11.4035 4.40938L11.1685 4.64431C11.1243 4.68846 11.0664 4.71058 11.0085 4.71058Z" fill="#2B4D66"/>
<path d="M12.5794 7.72613H12.2472C12.1222 7.72613 12.0209 7.6248 12.0209 7.49979C12.0209 7.37478 12.1222 7.27344 12.2472 7.27344H12.5794C12.7045 7.27344 12.8058 7.37478 12.8058 7.49979C12.8058 7.6248 12.7045 7.72613 12.5794 7.72613Z" fill="#2B4D66"/>
<path d="M11.2259 10.9694C11.168 10.9694 11.11 10.9472 11.0658 10.9031L10.8309 10.6682C10.7426 10.5797 10.7426 10.4365 10.8309 10.348C10.9194 10.2596 11.0626 10.2596 11.1511 10.348L11.386 10.5829C11.4744 10.6713 11.4744 10.8146 11.386 10.9031C11.3418 10.9472 11.2838 10.9694 11.2259 10.9694Z" fill="#2B4D66"/>
<path d="M7.97537 12.3059C7.85036 12.3059 7.74902 12.2046 7.74902 12.0796V11.7473C7.74902 11.6223 7.85036 11.521 7.97537 11.521C8.10038 11.521 8.20172 11.6223 8.20172 11.7473V12.0796C8.20172 12.2046 8.10038 12.3059 7.97537 12.3059Z" fill="#2B4D66"/>
<path d="M4.73197 10.9523C4.67405 10.9523 4.6161 10.9302 4.57192 10.886C4.4835 10.7976 4.48353 10.6542 4.57192 10.5658L4.80685 10.3309C4.89527 10.2426 5.03856 10.2425 5.12698 10.331C5.21536 10.4193 5.21536 10.5627 5.12695 10.6511L4.89202 10.886C4.84784 10.9302 4.78989 10.9523 4.73197 10.9523Z" fill="#2B4D66"/>
<path d="M3.72801 7.70172H3.39578C3.27077 7.70172 3.16943 7.60038 3.16943 7.47537C3.16943 7.35036 3.27077 7.24902 3.39578 7.24902H3.72801C3.85302 7.24902 3.95436 7.35036 3.95436 7.47537C3.95438 7.60038 3.85302 7.70172 3.72801 7.70172Z" fill="#2B4D66"/>
<path d="M4.98436 4.69301C4.92644 4.69301 4.86852 4.67092 4.82431 4.62671L4.58938 4.3918C4.50099 4.30339 4.50096 4.1601 4.58935 4.07168C4.67777 3.98329 4.82106 3.98326 4.90948 4.07165L5.14441 4.30658C5.2328 4.39497 5.23283 4.53829 5.14444 4.62671C5.1002 4.67089 5.04228 4.69301 4.98436 4.69301Z" fill="#2B4D66"/>
<path d="M8.00001 7.72635H6.07754C5.95253 7.72635 5.8512 7.62498 5.8512 7.49997C5.8512 7.37496 5.95253 7.27362 6.07754 7.27362H7.77363V4.39383C7.77363 4.26882 7.87497 4.16748 7.99998 4.16748C8.12499 4.16748 8.22633 4.26882 8.22633 4.39383V7.49997C8.22636 7.62498 8.12502 7.72635 8.00001 7.72635Z" fill="#93B0D0"/>
<path d="M10.3222 8.92051C10.2873 8.92051 10.252 8.91242 10.2189 8.8954L7.89645 7.70115C7.78527 7.64399 7.7415 7.50752 7.79866 7.39634C7.85582 7.28516 7.99228 7.24136 8.10349 7.29855L10.4259 8.49277C10.5371 8.54996 10.5809 8.68643 10.5237 8.79758C10.4835 8.87566 10.4043 8.92051 10.3222 8.92051Z" fill="#DA4A54"/>
<path d="M8.00003 8.10382C8.3337 8.10382 8.60419 7.83333 8.60419 7.49967C8.60419 7.166 8.3337 6.89551 8.00003 6.89551C7.66636 6.89551 7.39587 7.166 7.39587 7.49967C7.39587 7.83333 7.66636 8.10382 8.00003 8.10382Z" fill="#365E7D"/>
</g>
<defs>
<clipPath id="clip0_13:983">
<rect width="15" height="15" fill="white" transform="translate(0.5)"/>
</clipPath>
</defs>
</svg>
