<svg width="16" height="16" viewBox="0 0 16 16" fill="none" xmlns="http://www.w3.org/2000/svg">
<g clip-path="url(#clip0_13:971)">
<path d="M5.7516 0.731562L8.27139 4.85483H6.79035L4.35399 0.868086C4.25547 0.706865 4.37151 0.5 4.56045 0.5H5.33875C5.50729 0.5 5.66371 0.587715 5.7516 0.731562Z" fill="#FF646F"/>
<path d="M6.27694 0.5C6.44552 0.5 6.6019 0.587715 6.68982 0.731562L9.20961 4.85483H7.99992L5.33862 0.5H6.27694Z" fill="#FF8086"/>
<path d="M10.2483 0.731562L7.72852 4.85483L9.65312 4.12903L11.6459 0.868086C11.7444 0.706865 11.6284 0.5 11.4395 0.5H10.6612C10.4926 0.5 10.3362 0.587715 10.2483 0.731562Z" fill="#FF8086"/>
<path d="M10.6613 0.5H9.72293C9.55436 0.5 9.39797 0.587715 9.31005 0.731562L6.79028 4.85483H9.20965L9.65321 4.12903H8.8749C8.68597 4.12903 8.56995 3.92217 8.66848 3.76095L10.6613 0.5Z" fill="#FF646F"/>
<path d="M9.69346 6.54826C9.55972 6.54826 9.45152 6.43992 9.45152 6.30633V5.33859C9.45152 5.20523 9.34307 5.09666 9.20959 5.09666H6.79025C6.65678 5.09666 6.54832 5.20523 6.54832 5.33859V6.30633C6.54832 6.43992 6.4401 6.54826 6.30639 6.54826C6.17265 6.54826 6.06445 6.43992 6.06445 6.30633V5.33859C6.06445 4.93837 6.39003 4.61279 6.79025 4.61279H9.20962C9.60984 4.61279 9.93542 4.93837 9.93542 5.33859V6.30633C9.93542 6.43992 9.8272 6.54826 9.69346 6.54826Z" fill="#FFAA5A"/>
<path d="M12.8386 10.6615C12.8386 11.9049 12.3696 13.0388 11.5988 13.8959C10.713 14.8808 9.42877 15.3585 7.9999 15.3585C5.32756 15.3585 3.31592 13.3338 3.31592 10.6615C3.31592 9.2342 3.77913 7.95129 4.76207 7.06564C5.61956 6.29303 6.75481 5.82275 7.9999 5.82275C10.6722 5.82272 12.8386 7.98911 12.8386 10.6615Z" fill="#FFE077"/>
<path d="M11.8709 10.661C11.8709 10.9964 11.5813 11.2893 11.4987 11.5987C11.4131 11.9187 11.5149 12.3167 11.3528 12.5969C11.1883 12.8812 10.7912 12.991 10.5605 13.2217C10.3298 13.4524 10.2201 13.8494 9.93581 14.0139C9.65559 14.176 9.25765 14.0741 8.93758 14.1597C8.62824 14.2424 8.33538 14.532 7.99996 14.532C7.66454 14.532 7.37169 14.2424 7.06235 14.1597C6.74231 14.0741 6.34434 14.176 6.06414 14.0139C5.77991 13.8494 5.6701 13.4523 5.43945 13.2217C5.20876 12.991 4.81165 12.8812 4.64717 12.5969C4.48501 12.3167 4.58685 11.9187 4.5013 11.5987C4.4186 11.2893 4.12903 10.9965 4.12903 10.661C4.12903 10.3256 4.41863 10.0327 4.5013 9.72333C4.58685 9.40326 4.48501 9.00529 4.64717 8.72507C4.81165 8.44083 5.20876 8.33103 5.43945 8.10034C5.67013 7.86966 5.77991 7.47257 6.06414 7.30812C6.34437 7.146 6.74231 7.24786 7.06235 7.16231C7.37169 7.07964 7.66454 6.79004 7.99996 6.79004C8.33538 6.79004 8.62824 7.07961 8.93758 7.16231C9.25762 7.24786 9.65559 7.14603 9.93581 7.30812C10.2201 7.47257 10.3299 7.86969 10.5605 8.10034C10.7912 8.33103 11.1883 8.44083 11.3528 8.72507C11.5149 9.00529 11.4131 9.40326 11.4987 9.72333C11.5813 10.0327 11.8709 10.3256 11.8709 10.661Z" fill="#FFEAA5"/>
<path d="M8.13313 8.24325L8.65534 9.85048H10.3453C10.4809 9.85048 10.5373 10.0241 10.4276 10.1038L9.0604 11.0972L9.46139 12.3312L7.54104 11.3991L6.04675 9.85048H7.34449L7.8667 8.24325C7.90869 8.11423 8.0912 8.11423 8.13313 8.24325Z" fill="#FFD05B"/>
<path d="M8.36286 15.137C5.69051 15.137 3.52416 12.9707 3.52416 10.2983C3.52416 9.05457 3.991 7.9226 4.76212 7.06543C3.7776 7.95116 3.16125 9.23267 3.16125 10.6612C3.16125 13.3336 5.32761 15.4999 7.99996 15.4999C9.42856 15.4999 10.7131 14.8802 11.5988 13.8957C10.7416 14.6668 9.60663 15.137 8.36286 15.137Z" fill="#FFD05B"/>
<path d="M6.0468 9.8501H5.6546C5.51893 9.8501 5.46253 10.0237 5.57228 10.1035L6.93947 11.0968L6.41726 12.704C6.37533 12.833 6.52302 12.9403 6.63276 12.8606L7.99996 11.8672L9.36716 12.8606C9.4769 12.9403 9.62459 12.833 9.58267 12.704L9.46144 12.3308L6.0468 9.8501Z" fill="#FFAA5A"/>
</g>
<defs>
<clipPath id="clip0_13:971">
<rect width="15" height="15" fill="white" transform="translate(0.5 0.5)"/>
</clipPath>
</defs>
</svg>
