<svg width="36" height="35" viewBox="0 0 36 35" fill="none" xmlns="http://www.w3.org/2000/svg">
<g clip-path="url(#clip0_24:861)">
<path d="M13.3052 30.3535C15.3744 31.2895 16.2814 35.0001 16.2814 35.0001L31.4243 34.9584C31.1404 34.3691 30.8179 33.7992 30.4588 33.2525C30.1731 32.6678 29.9336 32.0617 29.7425 31.4397C29.3878 30.2397 29.1423 29.0101 29.0087 27.7659C28.7842 25.8543 29.0724 23.9173 29.8439 22.1539C30.524 20.603 31.7049 19.3744 32.6052 17.9545C33.4978 16.5681 33.9785 14.9567 33.9914 13.3079C34.0252 11.6379 33.8204 9.97168 33.3831 8.35963C32.811 6.40668 31.6173 4.69372 29.9833 3.48075C26.9914 1.13455 23.9391 -0.177351 20.0746 0.0193731C18.1405 0.15402 16.2189 0.429928 14.325 0.84489C12.2624 1.26006 10.0785 2.03127 8.59826 3.5942C7.58849 4.67323 6.80836 5.94607 6.30516 7.33558C6.0693 8.02678 5.87743 8.73221 5.73068 9.44765C5.48362 10.2278 5.18547 10.9908 4.83818 11.7317C4.736 11.9568 4.69142 12.2038 4.70844 12.4504C4.8243 13.2856 6.07706 13.6446 6.08732 14.5058C6.07389 14.696 6.01535 14.8803 5.91654 15.0434C5.18213 16.5948 4.28089 18.0616 3.22878 19.4178C2.98016 19.7226 2.47568 20.323 2.53844 20.7539C2.58309 21.0598 2.94999 21.3139 3.17628 21.4822C3.65904 21.8407 4.64206 22.0857 4.76456 22.7326C4.82797 23.062 4.78814 23.403 4.65051 23.7089C4.3168 24.4132 3.94689 24.7885 4.20939 25.0094C4.47189 25.2302 5.1749 25.7607 5.1749 25.7607C5.1749 25.7607 4.50689 26.6139 4.8768 26.8758C5.33542 27.2017 5.91956 27.352 6.07525 27.962C6.12159 28.4455 6.07322 28.9333 5.93283 29.3983C5.8857 29.8532 5.9452 30.3129 6.10663 30.7409C6.32631 31.5951 7.18041 32.1243 8.04309 31.9406C9.82453 31.5071 11.5811 30.9773 13.3052 30.3535Z" fill="#6F2205"/>
<path d="M25.9486 25.6165C25.2039 25.6164 24.5331 25.1659 24.2511 24.4766C24.087 24.079 23.4999 23.5111 22.4052 22.6898C20.6335 21.3622 20.1827 18.9877 21.1983 16.3373L21.5604 15.4014L31.6518 17.2588L29.6761 19.2381H29.6665C28.7746 20.1451 27.9569 21.1969 27.9569 22.3277C27.9669 23.0332 27.8602 23.7354 27.6413 24.406C27.3996 25.1328 26.7176 25.6214 25.9517 25.6165H25.9486Z" fill="#2C3E50"/>
<path d="M26.6293 19.8282C25.9071 19.8299 25.1894 19.7127 24.5052 19.4813C24.0194 19.3168 23.5526 19.1005 23.1131 18.8362C22.0518 18.1601 21.0773 17.3568 20.2111 16.4441C19.7696 15.9965 19.2134 15.6792 18.6035 15.5269C18.285 15.4527 17.9604 15.4076 17.6337 15.3923C17.5131 15.3857 17.3779 15.3826 17.2421 15.3826C15.8992 15.4351 14.5613 15.5762 13.237 15.805L12.4157 15.9257C12.0559 15.9766 11.693 16.0028 11.3295 16.0042C11.2155 16.0042 11.1044 16.0042 10.9976 15.9957C10.464 15.9833 9.93605 15.8825 9.43529 15.6976C7.97509 15.1404 6.96105 13.7985 6.82357 12.2417L6.8109 12.156C6.74684 11.698 6.73388 11.2343 6.77227 10.7735C6.78708 10.427 6.83109 10.0825 6.90383 9.74341C6.91952 9.67462 7.15546 8.67169 7.33952 8.06341C7.38176 7.92763 7.41012 7.83712 7.43848 7.75867C7.58391 7.37307 7.73357 7.02488 7.88745 6.71048C8.30139 5.87182 8.83723 5.09907 9.47753 4.41738C10.136 3.7557 10.9188 3.23069 11.7809 2.87255C12.2094 2.6845 12.6491 2.52327 13.0976 2.38979C13.5713 2.24798 14.0631 2.12488 14.5652 2.0247C15.1234 1.90945 15.7081 1.79841 16.2995 1.69401C16.667 1.62582 17.0496 1.56367 17.4316 1.50755C17.8763 1.43936 18.3211 1.38324 18.7718 1.33315C19.2075 1.28729 19.6287 1.24927 20.0506 1.22996C20.0765 1.22996 20.1109 1.22513 20.1477 1.22332C20.3812 1.21307 20.6154 1.20703 20.8423 1.20703C21.0233 1.20703 21.1989 1.21367 21.3703 1.2197C21.8186 1.23499 22.2656 1.27771 22.7087 1.34763C24.021 1.553 25.2891 1.97837 26.4598 2.60582C26.7778 2.76876 27.0868 2.94496 27.3921 3.13988C27.821 3.39815 28.2922 3.71999 28.806 4.10539C28.9496 4.211 29.0908 4.31962 29.2381 4.43548C29.5122 4.64357 29.7724 4.86934 30.0171 5.11134C31.0677 6.07799 31.8302 7.31651 32.2203 8.68979C32.4619 9.5599 32.6235 10.4503 32.7031 11.3498C32.7459 11.8163 32.7694 12.2417 32.7755 12.6563C32.7845 12.8475 32.7845 13.0588 32.7845 13.276C32.7826 13.527 32.7658 13.7777 32.7344 14.0267C32.691 14.5149 32.5926 14.9967 32.4412 15.4629C32.2416 16.1125 31.9554 16.7321 31.5903 17.3052C30.9262 18.3163 29.9576 19.0898 28.8247 19.5138C28.1096 19.716 27.3706 19.8217 26.6275 19.8282H26.6293Z" fill="#2C3E50"/>
<path d="M22.3268 16.77C21.9285 17.808 21.2526 20.3183 23.1294 21.7243C24.5342 22.778 25.1207 23.423 25.3669 24.0174C25.4543 24.2548 25.6804 24.4125 25.9333 24.4125C26.1862 24.4125 26.4123 24.2548 26.4996 24.0174C26.6762 23.472 26.7609 22.901 26.7501 22.3278C26.7501 20.5898 28.0052 19.1597 29.1578 18.0433C29.1638 18.0433 29.1699 18.0373 29.1759 18.0312L22.3268 16.77Z" fill="#DF4D60"/>
<path d="M31.5716 12.6727C31.5656 12.2623 31.5414 11.858 31.5052 11.4658C31.4311 10.6373 31.2816 9.8172 31.0587 9.01579C30.7248 7.8409 30.0684 6.78309 29.1638 5.96234C28.953 5.75529 28.7293 5.5618 28.494 5.38303C28.3552 5.27441 28.2225 5.17182 28.0837 5.06923C27.6311 4.7313 27.1845 4.42355 26.744 4.15803C26.4604 3.97699 26.1828 3.8201 25.8992 3.67527C24.8466 3.10994 23.7062 2.72639 22.5259 2.54079C22.1284 2.47783 21.7273 2.43954 21.325 2.42613C21.1681 2.4201 21.0052 2.41406 20.8423 2.41406C20.6311 2.41406 20.4138 2.4201 20.1966 2.43217C20.1664 2.43217 20.1363 2.4382 20.1061 2.4382C19.7078 2.4563 19.3095 2.49251 18.9052 2.53475C18.4707 2.58303 18.0423 2.63734 17.6078 2.70372C17.2397 2.75803 16.8716 2.81837 16.5095 2.88475C15.9302 2.98734 15.3569 3.09596 14.8018 3.21061C14.319 3.30717 13.8664 3.42182 13.444 3.54855C13.0434 3.66721 12.6504 3.8103 12.2673 3.97699C11.5499 4.27068 10.8977 4.70342 10.3483 5.25027C9.79159 5.84194 9.32587 6.51307 8.96642 7.24165C8.8216 7.53734 8.68884 7.85113 8.56815 8.17096C8.54401 8.23734 8.51987 8.31579 8.4897 8.41234C8.3147 8.99165 8.07935 9.99337 8.07935 9.99337C8.01868 10.2815 7.98234 10.5742 7.97073 10.8684C7.93696 11.2669 7.95114 11.668 8.01298 12.0632V12.0692C8.09207 13.1877 8.8087 14.1605 9.85349 14.5675C10.2385 14.7085 10.6444 14.7839 11.0544 14.7908C11.4516 14.808 11.8496 14.7877 12.2431 14.7304C14.0426 14.393 15.8677 14.2113 17.6983 14.1873C18.1009 14.2072 18.5008 14.2638 18.8931 14.3563C19.7118 14.5593 20.459 14.983 21.0535 15.5813C21.8545 16.4261 22.7541 17.1716 23.7328 17.802C25.1658 18.6715 26.9069 18.8721 28.5 18.3511C29.3439 18.0083 30.0651 17.4196 30.5699 16.6615C30.8818 16.1719 31.1254 15.642 31.294 15.0865C31.4206 14.6969 31.5016 14.2939 31.5354 13.8856C31.5617 13.6835 31.5758 13.48 31.5776 13.2761C31.5776 13.071 31.5776 12.8718 31.5716 12.6727Z" fill="#FB7B76"/>
<path d="M11.0604 10.2587C11.0574 11.2573 10.2486 12.0661 9.25005 12.0691H8.01298V12.063C7.95114 11.6679 7.93696 11.2667 7.97073 10.8682C7.99453 10.8632 8.01885 10.8612 8.04315 10.8622H9.25005C9.58332 10.8622 9.8535 10.592 9.8535 10.2587C9.8535 9.92545 10.1237 9.65527 10.4569 9.65527C10.7902 9.65527 11.0604 9.92545 11.0604 10.2587Z" fill="#FF5364"/>
<path d="M11.0604 13.8793V14.7302C11.0614 14.7505 11.0594 14.7708 11.0544 14.7905C10.6444 14.7837 10.2385 14.7082 9.85352 14.5673V13.8793C9.85352 13.5461 10.1237 13.2759 10.457 13.2759C10.7902 13.2759 11.0604 13.5461 11.0604 13.8793Z" fill="#FF5364"/>
<path d="M14.681 12.6729H14.0776C13.0777 12.6729 12.2672 11.8623 12.2672 10.8625V10.2591C12.2672 9.25925 13.0777 8.44873 14.0776 8.44873H14.681C15.0143 8.44873 15.2844 8.7189 15.2844 9.05218C15.2844 9.38545 15.0143 9.65563 14.681 9.65563H14.0776C13.7443 9.65563 13.4741 9.9258 13.4741 10.2591V10.8625C13.4741 11.1958 13.7443 11.466 14.0776 11.466H14.681C15.0143 11.466 15.2844 11.7361 15.2844 12.0694C15.2844 12.4027 15.0143 12.6729 14.681 12.6729Z" fill="#FF5364"/>
<path d="M11.6638 7.84466C11.6638 8.17793 11.3936 8.44811 11.0603 8.44811H8.6948C8.6248 8.44835 8.55531 8.43609 8.48962 8.4119C8.5198 8.31535 8.54393 8.2369 8.56807 8.17052C8.68876 7.85069 8.82152 7.5369 8.96635 7.24121H11.0603C11.3936 7.24121 11.6638 7.51138 11.6638 7.84466Z" fill="#FF5364"/>
<path d="M14.681 6.63799C14.681 6.97127 14.4108 7.24144 14.0776 7.24144C13.079 7.23846 12.2702 6.42969 12.2672 5.4311V3.97679C12.6503 3.81009 13.0433 3.66701 13.4439 3.54834C13.4632 3.60885 13.4734 3.6719 13.4741 3.73541V5.4311C13.4741 5.76437 13.7443 6.03455 14.0776 6.03455C14.4108 6.03455 14.681 6.30472 14.681 6.63799Z" fill="#FF5364"/>
<path d="M17.0948 11.4654H16.4914C16.1581 11.4654 15.8879 11.1952 15.8879 10.862C15.8879 10.5287 16.1581 10.2585 16.4914 10.2585H17.0948C17.4281 10.2585 17.6983 9.98835 17.6983 9.65507V8.44817C17.6983 8.1149 17.9685 7.84473 18.3017 7.84473C18.635 7.84473 18.9052 8.1149 18.9052 8.44817V9.65507C18.9052 10.6549 18.0947 11.4654 17.0948 11.4654Z" fill="#FF5364"/>
<path d="M20.1121 8.44839C19.7788 8.44839 19.5086 8.17822 19.5086 7.84495V7.2415C19.5086 6.90822 19.2385 6.63805 18.9052 6.63805H17.6983C17.365 6.63805 17.0948 6.90822 17.0948 7.2415V7.84495C17.0948 8.17822 16.8247 8.44839 16.4914 8.44839C16.1581 8.44839 15.8879 8.17822 15.8879 7.84495V7.2415C15.8879 6.24167 16.6985 5.43115 17.6983 5.43115H18.9052C19.905 5.43115 20.7155 6.24167 20.7155 7.2415V7.84495C20.7155 8.17822 20.4453 8.44839 20.1121 8.44839Z" fill="#FF5364"/>
<path d="M17.6982 3.01741V3.62085C17.6982 3.95413 17.4281 4.2243 17.0948 4.2243C16.7615 4.2243 16.4913 3.95413 16.4913 3.62085V3.01741C16.491 2.97252 16.4971 2.92781 16.5094 2.88465C16.8715 2.81827 17.2396 2.75792 17.6077 2.70361C17.6683 2.79694 17.6998 2.90615 17.6982 3.01741Z" fill="#FF5364"/>
<path d="M20.112 2.4742V3.62075C20.112 3.95402 19.8419 4.2242 19.5086 4.2242C19.1753 4.2242 18.9052 3.95402 18.9052 3.62075V2.53454C19.3095 2.4923 19.7077 2.45609 20.106 2.43799C20.1109 2.44939 20.113 2.46182 20.112 2.4742Z" fill="#FF5364"/>
<path d="M23.7327 5.43095C23.7327 5.76423 23.4626 6.0344 23.1293 6.0344H21.9224C21.5891 6.0344 21.319 5.76423 21.319 5.43095V2.46802C21.318 2.45367 21.32 2.43928 21.325 2.42578C21.7273 2.43919 22.1283 2.47748 22.5259 2.54044V4.8275H23.1293C23.4626 4.8275 23.7327 5.09768 23.7327 5.43095Z" fill="#FF5364"/>
<path d="M18.9051 13.2758V14.2413C18.9044 14.2798 18.9004 14.3182 18.8931 14.356C18.5008 14.2635 18.1008 14.2069 17.6982 14.187V13.2758C17.6982 12.9425 17.9684 12.6724 18.3017 12.6724C18.635 12.6724 18.9051 12.9425 18.9051 13.2758Z" fill="#FF5364"/>
<path d="M22.5258 13.276H21.9224C20.9226 13.276 20.1121 12.4655 20.1121 11.4657V10.8622C20.1121 10.529 20.3822 10.2588 20.7155 10.2588C21.0488 10.2588 21.319 10.529 21.319 10.8622V11.4657C21.319 11.799 21.5891 12.0691 21.9224 12.0691H22.5258C22.8591 12.0691 23.1293 12.3393 23.1293 12.6726C23.1293 13.0059 22.8591 13.276 22.5258 13.276Z" fill="#FF5364"/>
<path d="M24.9397 10.8619H24.3362C23.3364 10.8619 22.5259 10.0514 22.5259 9.05156C22.5259 8.05173 23.3364 7.24121 24.3362 7.24121H24.9397C25.2729 7.24121 25.5431 7.51138 25.5431 7.84466C25.5431 8.17793 25.2729 8.44811 24.9397 8.44811H24.3362C24.0029 8.44811 23.7328 8.71828 23.7328 9.05156C23.7328 9.38483 24.0029 9.655 24.3362 9.655H24.9397C25.2729 9.655 25.5431 9.92518 25.5431 10.2585C25.5431 10.5917 25.2729 10.8619 24.9397 10.8619Z" fill="#FF5364"/>
<path d="M26.75 4.22443V6.03478C26.75 6.36805 26.4798 6.63823 26.1465 6.63823C25.8133 6.63823 25.5431 6.36805 25.5431 6.03478V4.22443C25.5436 3.98734 25.6829 3.7725 25.8991 3.67529C26.1827 3.82012 26.4603 3.97702 26.7439 4.15805C26.7492 4.17976 26.7513 4.20213 26.75 4.22443Z" fill="#FF5364"/>
<path d="M29.1638 5.96195V7.24126C29.1608 8.23985 28.352 9.04863 27.3535 9.05161C27.0202 9.05161 26.75 8.78144 26.75 8.44816C26.75 8.11489 27.0202 7.84471 27.3535 7.84471C27.6867 7.84471 27.9569 7.57454 27.9569 7.24126V5.43695C27.9573 5.30362 28.0019 5.17418 28.0836 5.06885C28.2224 5.17143 28.3552 5.27402 28.494 5.38264C28.7293 5.56141 28.953 5.7549 29.1638 5.96195Z" fill="#FF5364"/>
<path d="M26.1466 13.8795H25.5431C25.2099 13.8795 24.9397 13.6093 24.9397 13.276C24.9397 12.9428 25.2099 12.6726 25.5431 12.6726H26.1466C26.4799 12.6726 26.75 12.4024 26.75 12.0691V10.8622C26.75 10.529 27.0202 10.2588 27.3535 10.2588C27.6868 10.2588 27.9569 10.529 27.9569 10.8622V12.0691C27.9569 13.069 27.1464 13.8795 26.1466 13.8795Z" fill="#FF5364"/>
<path d="M27.9568 15.6899C27.9568 16.0231 27.6866 16.2933 27.3534 16.2933H25.543C25.2097 16.2933 24.9396 16.5635 24.9396 16.8968V18.1037C24.9393 18.1845 24.9229 18.2646 24.8913 18.339C24.487 18.202 24.0985 18.0219 23.7327 17.8019V16.8968C23.7356 15.8982 24.5444 15.0894 25.543 15.0864H27.3534C27.5134 15.0864 27.6669 15.15 27.7801 15.2632C27.8932 15.3763 27.9568 15.5298 27.9568 15.6899Z" fill="#FF5364"/>
<path d="M31.5716 12.6722H29.7673C29.434 12.6722 29.1638 12.4021 29.1638 12.0688C29.1638 11.7355 29.434 11.4653 29.7673 11.4653H31.5052C31.5414 11.8576 31.5656 12.2619 31.5716 12.6722Z" fill="#FF5364"/>
<path d="M31.5354 13.8853C31.5016 14.2936 31.4206 14.6965 31.294 15.0861H29.7673C29.434 15.0861 29.1638 14.816 29.1638 14.4827C29.1638 14.1494 29.434 13.8793 29.7673 13.8793H31.4509C31.4792 13.878 31.5075 13.8801 31.5354 13.8853Z" fill="#FF5364"/>
</g>
<defs>
<clipPath id="clip0_24:861">
<rect width="35" height="35" fill="white" transform="translate(0.5)"/>
</clipPath>
</defs>
</svg>
