<svg width="36" height="35" viewBox="0 0 36 35" fill="none" xmlns="http://www.w3.org/2000/svg">
<g clip-path="url(#clip0_24:889)">
<path d="M19.8229 8.02083H5.96875C5.365 8.02083 4.875 7.53083 4.875 6.92708V4.01042C4.875 1.79813 6.67312 0 8.88541 0H16.9062C19.1185 0 20.9167 1.79813 20.9167 4.01042V6.92708C20.9167 7.53083 20.4267 8.02083 19.8229 8.02083Z" fill="#A36C22"/>
<path d="M21.2812 32.083H4.51042C2.29813 32.083 0.5 30.2849 0.5 28.0726V9.84342C0.5 7.63113 2.29813 5.83301 4.51042 5.83301H21.2812C23.4935 5.83301 25.2917 7.63113 25.2917 9.84342V28.0726C25.2917 30.2849 23.4935 32.083 21.2812 32.083Z" fill="#ECEFF1"/>
<path d="M11.0729 24.7917H0.5V13.125H11.0729C13.2852 13.125 15.0833 14.9231 15.0833 17.1354V20.7812C15.0833 22.9935 13.2852 24.7917 11.0729 24.7917Z" fill="#A36C22"/>
<path d="M12.8958 0H8.88541C6.67312 0 4.875 1.79813 4.875 4.01042V5.83333H12.8958V0Z" fill="#6F2205"/>
<path d="M12.8958 24.3524C12.349 24.6324 11.7292 24.7913 11.0729 24.7913H0.5V28.0726C0.5 30.2849 2.29813 32.083 4.51042 32.083H12.8958V24.3524ZM12.8958 5.83301H4.875H4.51042C2.29813 5.83301 0.5 7.63113 0.5 9.84342V13.1247H11.0729C11.7292 13.1247 12.349 13.2822 12.8958 13.5636V5.83301Z" fill="#CDD0D2"/>
<path d="M11.0729 13.125H0.5V24.7917H11.0729C11.7292 24.7917 12.349 24.6327 12.8958 24.3527V13.564C12.349 13.2825 11.7292 13.125 11.0729 13.125Z" fill="#6F2205"/>
<path d="M27.4791 17.5C23.0603 17.5 19.4583 21.1167 19.4583 25.55C19.4583 27.825 20.5374 30.0708 22.3749 31.6458V32.4479C22.3749 33.8479 23.527 35 24.927 35H30.0312C31.4312 35 32.5832 33.8479 32.5832 32.4479V31.6458C34.4207 30.0708 35.4999 27.825 35.4999 25.55C35.4999 21.1167 31.8978 17.5 27.4791 17.5Z" fill="#EACC97"/>
<path d="M28.9374 32.0833V35H26.0208V32.0833C26.0208 31.2812 26.677 30.625 27.4791 30.625C28.2812 30.625 28.9374 31.2812 28.9374 32.0833Z" fill="white"/>
<path d="M26.0208 23.6979C26.0208 24.7042 25.2042 25.5208 24.1979 25.5208C23.1917 25.5208 22.375 24.7042 22.375 23.6979C22.375 22.6917 23.1917 21.875 24.1979 21.875C25.2042 21.875 26.0208 22.6917 26.0208 23.6979Z" fill="white"/>
<path d="M30.7604 25.5208C31.7672 25.5208 32.5833 24.7047 32.5833 23.6979C32.5833 22.6911 31.7672 21.875 30.7604 21.875C29.7536 21.875 28.9375 22.6911 28.9375 23.6979C28.9375 24.7047 29.7536 25.5208 30.7604 25.5208Z" fill="white"/>
<path d="M24.1978 25.5208C23.1916 25.5208 22.3749 24.7042 22.3749 23.6979C22.3749 22.6917 23.1916 21.875 24.1978 21.875C25.2041 21.875 26.0207 22.6917 26.0207 23.6979C26.0207 24.7042 25.2041 25.5208 24.1978 25.5208ZM27.4791 17.5C23.0603 17.5 19.4583 21.1167 19.4583 25.55C19.4583 27.825 20.5374 30.0708 22.3749 31.6458V32.4479C22.3749 33.8479 23.527 35 24.927 35H27.4791H26.0207V32.0833C26.0207 31.2812 26.677 30.625 27.4791 30.625V17.5Z" fill="#A36C22"/>
<path d="M27.4791 30.625C26.677 30.625 26.0208 31.2812 26.0208 32.0833V35H27.4791V30.625Z" fill="#DEDEDE"/>
<path d="M24.1979 21.875C23.1917 21.875 22.375 22.6917 22.375 23.6979C22.375 24.7042 23.1917 25.5208 24.1979 25.5208C25.2042 25.5208 26.0208 24.7042 26.0208 23.6979C26.0208 22.6917 25.2042 21.875 24.1979 21.875Z" fill="#DEDEDE"/>
</g>
<defs>
<clipPath id="clip0_24:889">
<rect width="35" height="35" fill="white" transform="translate(0.5)"/>
</clipPath>
</defs>
</svg>
