<svg width="36" height="35" viewBox="0 0 36 35" fill="none" xmlns="http://www.w3.org/2000/svg">
<g clip-path="url(#clip0_24:1138)">
<path d="M34.4744 17.4999C34.4744 26.5986 27.0986 33.9744 17.9999 33.9744C8.90122 33.9744 1.52539 26.5986 1.52539 17.4999C1.52539 8.40149 8.90122 1.02539 17.9999 1.02539C27.0986 1.02539 34.4744 8.40149 34.4744 17.4999Z" fill="#FEF4F5"/>
<path d="M18 1.02539V33.9744C27.0987 33.9744 34.4745 26.5986 34.4745 17.4999C34.4745 8.40122 27.0987 1.02539 18 1.02539Z" fill="#93B0D0"/>
<path d="M35.4953 18.4993L35.48 18.3359C35.4929 18.0585 35.4998 17.78 35.4998 17.5004C35.4998 12.8261 33.6795 8.43134 30.3742 5.12608C27.069 1.82081 22.6742 0.000488281 17.9999 0.000488281C13.3256 0.000488281 8.93085 1.82081 5.62559 5.12608C2.32033 8.43134 0.5 12.8261 0.5 17.5004C0.5 17.6214 0.501869 17.7418 0.504272 17.8622C0.5 18.1073 0.498665 18.3562 0.501869 18.6104C0.502136 18.6331 0.503204 18.6561 0.504806 18.6788C0.643928 20.4452 0.942731 21.9683 1.41831 23.3352C1.42151 23.3451 1.42525 23.3547 1.42872 23.3643C2.02312 24.92 2.75505 26.3011 3.60393 27.4691C3.6098 27.4773 3.61594 27.4853 3.62208 27.4934C3.64131 27.5182 3.6608 27.5428 3.6803 27.5676C4.25574 28.3828 4.90542 29.1545 5.62559 29.8747C8.93085 33.18 13.3256 35.0003 17.9999 35.0003C22.6742 35.0003 27.069 33.18 30.3742 29.8747C33.3393 26.9099 35.1081 23.0682 35.4413 18.9343C35.4889 18.7989 35.5097 18.6515 35.4953 18.4993ZM24.0911 31.6972C24.4732 31.4667 24.8446 31.2205 25.2024 30.9583C25.2051 30.9567 25.2075 30.9548 25.2102 30.9527C26.768 29.7903 28.1272 28.2712 29.1406 26.5601C30.0741 25.0276 30.4992 23.5325 30.7651 22.4009C30.7683 22.3865 30.7716 22.372 30.7742 22.3576C30.8228 22.1018 30.876 21.8492 30.9323 21.6065C30.9368 21.5875 30.9406 21.5683 30.9441 21.5491C30.9785 21.3499 30.9913 21.1709 31.0025 21.0129C31.0084 20.9301 31.014 20.8519 31.0215 20.7904C31.022 20.7862 31.0226 20.7819 31.0231 20.7776L31.0912 20.1728C31.115 19.9749 31.1075 19.8024 31.1021 19.6761C31.1003 19.6355 31.0984 19.5899 31.0989 19.5696C31.0995 19.5552 31.0995 19.5407 31.0995 19.5266C31.092 18.9578 31.1056 18.651 31.1056 18.6481C31.1064 18.6331 31.1053 18.6187 31.1053 18.6037C31.1056 18.5837 31.1061 18.5634 31.1051 18.5431V18.5429C31.1035 18.5098 31.1003 18.4764 31.0952 18.443C31.0947 18.4401 31.0487 18.1311 30.9964 17.5688C30.9951 17.5549 30.9935 17.5407 30.9916 17.5268C30.9889 17.5079 30.9862 17.4633 30.9838 17.4243C30.9764 17.2991 30.9659 17.1284 30.9211 16.9332L30.7908 16.346C30.7897 16.3415 30.7886 16.3367 30.7876 16.3321C30.7737 16.2734 30.7603 16.1984 30.7462 16.1188C30.7192 15.9661 30.6882 15.793 30.6335 15.601C30.6282 15.5823 30.6223 15.5639 30.6159 15.5455C30.5336 15.3097 30.4559 15.0704 30.3846 14.8349C30.3804 14.8202 30.3756 14.8061 30.3705 14.7917C29.999 13.7329 29.4394 12.3449 28.402 10.9921C27.2911 9.50212 25.8922 8.23401 24.3557 7.32478C24.353 7.32318 24.3503 7.32158 24.3474 7.31997C22.5527 6.28044 20.4926 5.65319 18.3882 5.50526C18.1609 5.47882 17.951 5.48817 17.7809 5.49591C17.6931 5.49992 17.61 5.50365 17.5462 5.50125C17.5363 5.50098 17.5265 5.50072 17.5166 5.50045L17.1486 5.49805C16.9254 5.4863 16.7321 5.49751 16.5451 5.53303C16.394 5.55653 16.2306 5.57175 16.0583 5.5883C15.7125 5.62088 15.3238 5.65773 14.9216 5.77175C13.7208 5.97362 12.6276 6.45988 11.6951 6.90128C11.6663 6.91463 11.6382 6.92985 11.611 6.94587C11.3942 7.07431 11.1731 7.19661 10.9536 7.30929C10.9464 7.31303 10.9394 7.31677 10.9322 7.32051C10.7325 7.42919 10.5675 7.55149 10.4217 7.65937C10.3413 7.71865 10.2655 7.77472 10.2003 7.81584C10.195 7.81932 10.1894 7.82252 10.184 7.82626L9.84142 8.05083C9.80163 8.07726 9.76344 8.1061 9.7274 8.13761L9.41604 8.41105C9.41043 8.41585 9.40509 8.42093 9.39949 8.426C9.3338 8.48635 9.25369 8.5507 9.16877 8.6188C9.04007 8.72187 8.89454 8.83856 8.75034 8.97982C7.95994 9.73711 7.23657 10.649 6.53936 11.7668C6.53241 11.778 6.52574 11.7892 6.51933 11.8007C5.98074 12.7425 5.55189 13.8165 5.20849 15.0833C5.20449 15.0969 5.20128 15.1102 5.19835 15.1241C4.9695 16.1287 4.87311 17.2379 4.89474 18.6147C4.89527 18.6465 4.89741 18.6785 4.90088 18.71C5.04828 20.0566 5.27979 21.1274 5.62933 22.0794C5.6344 22.093 5.63947 22.1066 5.64508 22.12C6.1268 23.2775 6.65925 24.2362 7.27261 25.0506C7.28116 25.0618 7.28997 25.073 7.29905 25.0842C8.0753 26.0298 8.83873 26.7759 9.6326 27.3649C9.78187 27.4784 9.9274 27.5663 10.0558 27.644C10.137 27.6928 10.2134 27.739 10.2708 27.7801C10.2764 27.7844 10.2823 27.7882 10.2879 27.7922L10.588 27.9983C10.6321 28.0282 10.6783 28.0549 10.7263 28.0779L11.0545 28.2346C11.0609 28.2376 11.0671 28.2405 11.0735 28.2434C11.1266 28.2675 11.1952 28.3067 11.2679 28.3478C11.4022 28.4242 11.5694 28.5193 11.7683 28.5946C11.7768 28.598 11.7856 28.6013 11.7945 28.6042C11.9921 28.6733 12.187 28.7503 12.3734 28.8328C12.4078 28.8477 12.4428 28.8611 12.4786 28.8723C13.4207 29.1708 14.3488 29.4411 15.3358 29.475C15.5382 29.507 15.732 29.5164 15.9155 29.5164C16.0466 29.5164 16.1726 29.5115 16.2923 29.507C16.4346 29.5017 16.5694 29.4966 16.6851 29.5011C16.9134 29.5198 17.1118 29.4913 17.2514 29.4637L17.5422 29.4226C17.5529 29.421 17.5636 29.4194 17.5743 29.4176C17.6084 29.4117 17.6707 29.4074 17.731 29.4034C17.8707 29.3938 18.0586 29.3812 18.2635 29.3278C19.9383 28.9818 21.4555 28.2982 22.7741 27.2963C22.7781 27.2934 22.7818 27.2901 22.7858 27.2872C23.8579 26.4474 24.7888 25.3563 25.4785 24.1315C26.1039 23.0658 26.3517 22.0655 26.5352 21.211C26.5397 21.1899 26.5437 21.1685 26.5469 21.1472C26.5696 20.9947 26.5982 20.8468 26.6321 20.7071C26.6385 20.6802 26.6441 20.6529 26.6484 20.6254C26.6743 20.4607 26.6772 20.3127 26.6794 20.2046C26.6799 20.1669 26.681 20.1157 26.6828 20.0978C26.6844 20.0841 26.6858 20.0703 26.6866 20.0564C26.6943 19.9421 26.7058 19.8323 26.7213 19.7202C26.7215 19.7173 26.7221 19.7143 26.7224 19.7116C26.7475 19.517 26.7306 19.3517 26.7205 19.2532C26.7194 19.2419 26.7181 19.2313 26.7173 19.2206C26.717 19.2075 26.7165 19.1941 26.7159 19.1811C26.7023 18.9127 26.7077 18.7479 26.7101 18.6956C26.7202 18.5877 26.7141 18.4764 26.6874 18.3648C26.6871 18.3629 26.6473 18.1856 26.6134 17.8633C26.6118 17.8499 26.6102 17.8363 26.6083 17.823C26.6075 17.8141 26.6073 17.8051 26.6067 17.7957C26.6019 17.6975 26.5936 17.5327 26.537 17.3418C26.5362 17.3388 26.5354 17.3362 26.5344 17.3332C26.5018 17.2262 26.4727 17.118 26.4478 17.0115C26.4446 16.9973 26.4412 16.9837 26.4372 16.9698C26.4329 16.9541 26.4246 16.9073 26.4187 16.8731C26.4003 16.7706 26.3755 16.6296 26.3247 16.4737C26.3157 16.4459 26.3053 16.4184 26.294 16.3917C26.2372 16.2571 26.1891 16.1268 26.1466 15.9928C26.1397 15.9706 26.132 15.9487 26.1237 15.9273C25.8203 15.1532 25.4358 14.2539 24.7076 13.3743C23.9124 12.3756 22.937 11.5409 21.8862 10.9601C21.8814 10.9574 21.8763 10.9548 21.8715 10.9521C20.6477 10.3013 19.3059 9.93711 17.8824 9.86928C17.6864 9.84872 17.5155 9.86741 17.3986 9.88023C17.3705 9.88317 17.3326 9.88744 17.3163 9.88824C17.2958 9.88771 17.2752 9.88798 17.2546 9.88878C17.2015 9.89065 17.1462 9.89145 17.0864 9.89065C16.8867 9.87756 16.704 9.89465 16.5305 9.94245C16.4581 9.95794 16.3622 9.96889 16.2613 9.9801C16.0493 10.0039 15.7916 10.0327 15.516 10.1264C14.799 10.2637 14.171 10.5737 13.614 10.8487L13.4647 10.9222C13.4188 10.9446 13.375 10.9705 13.3328 10.9996C13.2297 11.0709 13.1269 11.1321 13.019 11.1865C13.0076 11.1921 12.9961 11.1983 12.9849 11.2044C12.8148 11.2981 12.6869 11.4066 12.5931 11.4856C12.567 11.5078 12.5312 11.5382 12.5224 11.5446C12.5063 11.5548 12.4903 11.5654 12.4748 11.5767C12.426 11.6114 12.375 11.645 12.3234 11.6765C12.2535 11.7192 12.1889 11.77 12.1312 11.8279L11.9464 12.013C11.9408 12.0189 11.9349 12.0247 11.9293 12.0306C11.9152 12.0456 11.869 12.0832 11.8353 12.1107C11.7525 12.1783 11.6497 12.2624 11.544 12.3748C10.949 12.9924 10.5071 13.6822 10.188 14.2146C10.1771 14.233 10.1667 14.2517 10.1568 14.2707C9.77786 15.0034 9.56584 15.7452 9.4083 16.3743C9.40269 16.3968 9.39762 16.4197 9.39361 16.4424C9.26304 17.1714 9.26864 17.8619 9.28814 18.6246C9.28947 18.6764 9.29481 18.7282 9.30389 18.7795C9.42432 19.4492 9.56531 20.1602 9.84889 20.846C9.85851 20.8689 9.86892 20.8916 9.88014 20.9138C10.1512 21.4537 10.4908 22.0823 10.9568 22.6505C10.972 22.6692 10.988 22.6874 11.0046 22.705C11.4097 23.1336 11.9026 23.6249 12.4895 24.0233C12.6108 24.1082 12.724 24.1643 12.8076 24.2057C12.8268 24.2153 12.8463 24.2241 12.8647 24.2343C12.8679 24.2367 12.8711 24.2388 12.8743 24.2412L13.0487 24.3585C13.1291 24.4127 13.2169 24.4554 13.3096 24.485C13.3504 24.4978 13.3889 24.512 13.4244 24.5269C13.4364 24.532 13.4487 24.5368 13.461 24.5414C13.4722 24.5472 13.4831 24.5536 13.4941 24.5598C13.5867 24.6116 13.7269 24.6898 13.9152 24.7422C13.9304 24.7464 13.9459 24.7505 13.9614 24.7539C14.0337 24.7705 14.0976 24.7913 14.156 24.8169C14.2169 24.8439 14.2802 24.865 14.3451 24.8794C14.4295 24.8984 14.5125 24.9184 14.595 24.9382C15.0164 25.0386 15.4904 25.1518 16.017 25.1347C16.0955 25.144 16.1702 25.1478 16.2413 25.1478C16.3833 25.1478 16.5096 25.1331 16.6148 25.1208C16.6557 25.1163 16.7094 25.1099 16.7382 25.1083C16.9208 25.1264 17.1043 25.1051 17.2955 25.0434C17.3179 25.0378 17.3406 25.033 17.3641 25.0287C17.374 25.0271 17.3836 25.025 17.3932 25.0231C17.3959 25.0228 17.3986 25.0228 17.4012 25.0226C17.4968 25.0167 17.6645 25.0068 17.8565 24.9387C18.8133 24.6631 19.6354 24.2297 20.369 23.6145C20.3767 23.6078 20.3847 23.6012 20.3922 23.5945C20.9762 23.0741 21.4737 22.41 21.8323 21.6722C22.1519 21.0617 22.2374 20.4842 22.294 20.1004C22.2998 20.0601 22.3057 20.0209 22.3116 19.9829C22.3148 19.9618 22.3175 19.9408 22.3193 19.9194C22.3738 19.3285 22.3367 18.8847 22.3185 18.6684C22.3252 18.5669 22.3169 18.4676 22.2953 18.3728L22.2958 18.3749C22.2958 18.3749 22.2953 18.372 22.2945 18.3677C22.2942 18.3672 22.2942 18.3666 22.2942 18.3661C22.2908 18.3477 22.2822 18.2993 22.2745 18.2243C22.2742 18.2219 22.2739 18.2198 22.2737 18.2176C22.2705 18.1551 22.2625 18.0368 22.2192 17.8911C22.2083 17.855 22.1992 17.8214 22.1914 17.788C22.1904 17.7829 22.189 17.7776 22.1877 17.7722L22.1856 17.7605C22.1759 17.7065 22.1599 17.6165 22.1257 17.5111C22.1167 17.483 22.1062 17.4553 22.0948 17.428C22.0779 17.3885 22.0638 17.3498 22.0512 17.31C22.044 17.2876 22.0363 17.2657 22.0277 17.2438C21.9223 16.9746 21.7263 16.4753 21.3319 15.9973C20.9447 15.5124 20.4686 15.106 19.9543 14.8218C19.9495 14.8192 19.9444 14.8165 19.9399 14.8141C19.3441 14.4971 18.6926 14.319 18.0023 14.2838C17.8643 14.271 17.7518 14.2835 17.6877 14.2905H17.6875C17.6813 14.2907 17.6755 14.2907 17.6691 14.291C17.6586 14.2915 17.648 14.2915 17.6375 14.2915C17.503 14.2846 17.3764 14.2963 17.2533 14.3273C17.2359 14.3297 17.2183 14.3313 17.201 14.3332C17.1011 14.3444 16.9601 14.3604 16.7985 14.4104C16.4314 14.4867 16.1248 14.6381 15.8749 14.7615L15.8121 14.7922C15.7662 14.8149 15.7219 14.8408 15.6797 14.8699C15.6583 14.8849 15.637 14.8977 15.614 14.9092C15.6031 14.9148 15.5921 14.9206 15.5812 14.9265C15.4583 14.9946 15.3716 15.068 15.3195 15.1118L15.3165 15.1145C15.3131 15.1166 15.3099 15.119 15.3067 15.1212C15.2973 15.1281 15.2874 15.1343 15.2778 15.1401C15.2079 15.1829 15.1432 15.2336 15.0853 15.2915L15.0108 15.3663L15.0023 15.3733C14.9619 15.4064 14.8952 15.4608 14.8244 15.5359C14.5312 15.8408 14.3189 16.1709 14.1667 16.4248C14.1558 16.4432 14.1451 16.4622 14.1352 16.4811C13.9446 16.8504 13.8385 17.2235 13.7675 17.5071C13.7619 17.5298 13.7571 17.5525 13.7528 17.5752C13.6877 17.9383 13.6901 18.2793 13.6986 18.6259C13.7002 18.6782 13.7053 18.7303 13.7146 18.7819C13.7691 19.0857 13.8396 19.4387 13.9827 19.7851C13.9924 19.8083 14.0028 19.831 14.014 19.8534C14.1438 20.1122 14.3085 20.4158 14.5443 20.7039C14.5598 20.7229 14.5758 20.7413 14.5926 20.7589C14.7873 20.9648 15.0258 21.2019 15.3222 21.4035C15.4009 21.458 15.4728 21.4949 15.5171 21.517L15.5654 21.5496C15.6445 21.6027 15.7299 21.6444 15.8204 21.6738C15.8786 21.7055 15.978 21.7563 16.1072 21.7923C16.119 21.7955 16.1312 21.7987 16.1433 21.8014C16.1996 21.8254 16.2578 21.8441 16.3176 21.8577C16.351 21.8652 16.3839 21.873 16.4167 21.881C16.6084 21.9266 16.8399 21.9819 17.1139 21.9819C17.1614 21.9819 17.2103 21.9803 17.2602 21.9766C17.825 21.9354 18.252 21.4441 18.2106 20.8791C18.1692 20.3143 17.6805 19.8903 17.1155 19.9311C17.0797 19.9309 16.9716 19.905 16.8928 19.8863C16.8787 19.8828 16.8642 19.8793 16.8501 19.8761C16.8135 19.8625 16.7761 19.8502 16.7382 19.8387C16.7032 19.8206 16.6592 19.7995 16.6071 19.7792C16.5454 19.7391 16.4904 19.7108 16.4535 19.6924C16.3366 19.6088 16.217 19.4908 16.1112 19.3803C16.0191 19.2612 15.9366 19.1106 15.8661 18.9717C15.8191 18.8483 15.7841 18.6943 15.747 18.4956C15.7427 18.2905 15.7433 18.1167 15.7662 17.9674C15.8095 17.7989 15.8642 17.6112 15.9441 17.4486C16.0367 17.2958 16.1569 17.1108 16.2949 16.9655L16.3005 16.961C16.3371 16.9308 16.3969 16.8822 16.461 16.8165C16.4669 16.8123 16.473 16.8083 16.4792 16.804C16.5398 16.7634 16.5884 16.7241 16.6231 16.695C16.6752 16.6665 16.7264 16.6358 16.7764 16.6034L16.7823 16.6005C16.9558 16.5148 17.12 16.4342 17.2311 16.4155C17.2851 16.4064 17.3382 16.393 17.3903 16.3757C17.4031 16.3741 17.4162 16.3727 17.429 16.3714C17.4845 16.365 17.555 16.3572 17.6354 16.3423C17.6645 16.342 17.692 16.342 17.7195 16.3412C17.7884 16.3412 17.8469 16.3359 17.8891 16.3313C18.2773 16.35 18.6405 16.4472 18.9692 16.6208C19.3228 16.8179 19.5796 17.0886 19.7329 17.2817C19.7374 17.2876 19.7423 17.2932 19.7471 17.2988C19.914 17.4999 20.0138 17.7279 20.1073 17.964C20.1262 18.0222 20.1471 18.0801 20.1695 18.1378C20.1759 18.1722 20.1847 18.2176 20.1978 18.2694C20.208 18.3116 20.2186 18.3533 20.2298 18.3944C20.2317 18.4139 20.2339 18.4358 20.2371 18.4596C20.2459 18.5405 20.2557 18.6094 20.2648 18.666C20.2656 18.7322 20.2704 18.7909 20.2744 18.8374C20.2894 19.0126 20.314 19.3026 20.2798 19.7023C20.2747 19.7343 20.2699 19.7672 20.2651 19.8008C20.2197 20.1071 20.173 20.4241 20.0112 20.729C20.005 20.7405 19.9989 20.7522 19.9933 20.7643C19.8253 21.1127 19.5236 21.618 19.0389 22.0532C18.5251 22.4815 17.9425 22.7835 17.2589 22.9769C17.1887 22.9811 17.0851 22.9891 16.9652 23.0172C16.904 23.0287 16.8431 23.0423 16.7831 23.0575C16.6282 23.0548 16.4917 23.0706 16.3782 23.0839C16.3382 23.0885 16.2859 23.0946 16.2562 23.0965C16.1713 23.0807 16.0845 23.0765 15.9983 23.0826C15.735 23.1016 15.4271 23.0284 15.0706 22.9435C15.0095 22.9288 14.9475 22.9141 14.8853 22.8994C14.763 22.8505 14.6375 22.81 14.5053 22.7761C14.5016 22.7739 14.4978 22.7715 14.4938 22.7694C14.4236 22.7301 14.3205 22.6727 14.1886 22.6241C14.1542 22.61 14.1189 22.5963 14.0831 22.583L14.0292 22.5467C13.9106 22.4639 13.7996 22.4086 13.7173 22.368C13.697 22.3579 13.6701 22.3445 13.6567 22.3373C13.6532 22.3352 13.65 22.3328 13.6468 22.3306C13.2316 22.05 12.8457 21.6668 12.5208 21.324C12.2022 20.9285 11.9525 20.47 11.7304 20.0294C11.5421 19.5618 11.4313 19.0179 11.336 18.4937C11.3213 17.89 11.3194 17.3447 11.4062 16.8374C11.5317 16.3394 11.6965 15.766 11.964 15.2403C12.2262 14.8039 12.5814 14.2525 13.0252 13.7933C13.0297 13.7884 13.0343 13.7836 13.0388 13.7786C13.0527 13.7641 13.0986 13.7268 13.132 13.6993C13.2097 13.636 13.3056 13.5575 13.4052 13.4541L13.5013 13.358C13.5496 13.3265 13.5977 13.2942 13.6447 13.2611C13.7576 13.1868 13.8492 13.1091 13.9176 13.0514C13.939 13.0333 13.967 13.0095 13.9838 12.9964C14.1366 12.9174 14.2872 12.8285 14.4327 12.7313L14.5211 12.6878C15.0209 12.4413 15.4928 12.2082 15.9529 12.1315C16.0266 12.1193 16.0984 12.099 16.1676 12.0712C16.2263 12.0477 16.3657 12.0319 16.4885 12.0183C16.6394 12.0015 16.8092 11.9825 16.9953 11.9401C17.0039 11.9403 17.0122 11.9406 17.0207 11.9409C17.1198 11.9428 17.2124 11.9422 17.303 11.9393C17.4282 11.9406 17.539 11.9281 17.6215 11.919C17.6437 11.9166 17.6723 11.9134 17.691 11.9118C17.7115 11.9139 17.7318 11.9155 17.7524 11.9163C18.88 11.966 19.9393 12.2493 20.9009 12.7591C21.9319 13.331 22.6702 14.1075 23.1084 14.659C23.1129 14.6648 23.1175 14.6704 23.1223 14.6763C23.6518 15.3137 23.9471 15.9976 24.2016 16.6451C24.2537 16.8069 24.3135 16.9701 24.3797 17.1308C24.3856 17.1578 24.3928 17.1981 24.3989 17.2323C24.4118 17.3052 24.4278 17.3952 24.4537 17.4932C24.4841 17.6224 24.5188 17.753 24.5573 17.882C24.5576 17.8876 24.5578 17.8932 24.5581 17.8985C24.5608 17.9517 24.5642 18.0216 24.576 18.1031C24.6038 18.3608 24.635 18.5533 24.6582 18.6772C24.6545 18.8029 24.6534 18.9984 24.666 19.262C24.6673 19.3418 24.6745 19.4107 24.6799 19.4628C24.6807 19.4713 24.6817 19.4799 24.6825 19.4884C24.6646 19.6241 24.651 19.7621 24.6411 19.8994C24.6315 19.9987 24.6299 20.09 24.6283 20.1645C24.6275 20.2046 24.6267 20.2518 24.6243 20.2836C24.5848 20.454 24.5506 20.6308 24.5231 20.811C24.3672 21.5344 24.1728 22.3061 23.7052 23.1005C23.7015 23.1064 23.698 23.1125 23.6948 23.1184C23.1372 24.1109 22.388 24.9924 21.5268 25.668C20.4485 26.4861 19.2013 27.0437 17.8205 27.3251C17.794 27.3305 17.7735 27.3355 17.7476 27.343C17.7225 27.3486 17.6472 27.3537 17.5922 27.3574C17.4942 27.3641 17.3729 27.3721 17.2397 27.3943L16.9337 27.4378C16.912 27.4408 16.8904 27.4445 16.8693 27.449C16.8517 27.4525 16.8402 27.4546 16.8333 27.4557C16.8236 27.4549 16.8143 27.4544 16.8047 27.4538C16.5956 27.4434 16.3932 27.4512 16.2146 27.4578C15.9924 27.4661 15.7825 27.4741 15.6295 27.445C15.5734 27.4343 15.5163 27.4282 15.4591 27.4269C14.7286 27.4116 13.9795 27.1959 13.1491 26.9337C12.9347 26.8405 12.7128 26.7534 12.4879 26.6744C12.4367 26.6533 12.3608 26.6103 12.2807 26.5649C12.179 26.507 12.0639 26.4415 11.9296 26.3801L11.6818 26.2618L11.4556 26.1067C11.336 26.0215 11.2187 25.951 11.1151 25.8883C11.0219 25.8319 10.9336 25.7788 10.8719 25.7315C10.8673 25.728 10.8633 25.7248 10.8588 25.7216C10.2043 25.2367 9.56264 24.6079 8.89748 23.7996C8.3976 23.1325 7.95567 22.3317 7.54658 21.3525C7.2638 20.576 7.07208 19.6788 6.94417 18.5343C6.92815 17.3583 7.00719 16.4237 7.19277 15.5994C7.48704 14.5198 7.84619 13.6151 8.28972 12.8352C8.8932 11.8699 9.50923 11.0917 10.1725 10.4567C10.176 10.4535 10.1795 10.4503 10.1827 10.4471C10.2548 10.3761 10.3504 10.2995 10.4513 10.2183C10.5512 10.1384 10.6636 10.0482 10.7765 9.94539L11.0262 9.72616L11.3013 9.54565C11.4278 9.46527 11.5408 9.38169 11.6409 9.30799C11.7384 9.23563 11.8305 9.16754 11.9039 9.12641C12.1413 9.00412 12.3798 8.87247 12.614 8.73495C13.4263 8.3515 14.3667 7.93574 15.3101 7.7862C15.3574 7.77873 15.4041 7.76778 15.4501 7.75389C15.6778 7.68393 15.9563 7.65776 16.2509 7.62973C16.4538 7.6105 16.6634 7.59074 16.884 7.55549C16.8976 7.55336 16.9112 7.55095 16.9246 7.54828C16.9379 7.54561 16.9729 7.54187 17.0546 7.54668C17.0728 7.54775 17.0907 7.54828 17.1088 7.54855L17.4885 7.55122C17.6287 7.55549 17.758 7.54962 17.8725 7.54454C17.9809 7.53974 18.0928 7.5344 18.1534 7.54268C18.1753 7.54561 18.1975 7.54775 18.2197 7.54935C20.021 7.67192 21.7826 8.20544 23.3145 9.09197C24.6198 9.86501 25.8115 10.9475 26.7611 12.2229C26.7643 12.2271 26.7672 12.2309 26.7704 12.2351C27.6225 13.3444 28.0869 14.4814 28.4279 15.4499C28.5021 15.6953 28.5827 15.9434 28.6679 16.1885C28.6906 16.2742 28.7082 16.3733 28.7267 16.4777C28.7448 16.5794 28.7635 16.6844 28.7897 16.7962L28.9195 17.381C28.9203 17.3848 28.9211 17.3885 28.9221 17.3922C28.9288 17.4216 28.9331 17.4892 28.9365 17.5487C28.9408 17.6168 28.9454 17.6932 28.9558 17.7776C28.9966 18.2107 29.0337 18.5071 29.0532 18.6507C29.049 18.7939 29.0428 19.0927 29.0482 19.5343C29.0466 19.6187 29.05 19.6954 29.053 19.764C29.0556 19.8259 29.0586 19.8964 29.0546 19.9279C29.0543 19.9317 29.0538 19.9354 29.0532 19.9392L28.9854 20.5424C28.9715 20.6561 28.9638 20.7637 28.9566 20.8676C28.9486 20.9782 28.9411 21.0831 28.9269 21.175C28.8687 21.4276 28.8137 21.6887 28.7632 21.9528C28.5178 22.9942 28.1608 24.2273 27.3859 25.4979C27.3835 25.5016 27.3811 25.5056 27.3787 25.5096C26.5029 26.9905 25.3301 28.3032 23.9875 29.3062C22.3508 30.503 20.3983 31.3257 18.3406 31.6854C18.3222 31.6886 18.3035 31.6924 18.2851 31.6966C18.1874 31.7193 18.0493 31.7289 17.9027 31.7391C17.7783 31.7479 17.6375 31.7578 17.4893 31.7775L17.0434 31.8256C17.029 31.8272 17.0143 31.8291 16.9996 31.8312C16.8987 31.8467 16.8231 31.8523 16.77 31.848C16.7564 31.847 16.743 31.8462 16.7294 31.8456C16.4981 31.8366 16.2722 31.8384 16.0535 31.8403C15.668 31.8435 15.3043 31.8464 14.9796 31.7896C14.9411 31.7826 14.9019 31.7781 14.8623 31.7757C13.6434 31.7038 12.4222 31.3231 11.384 30.9562C11.0855 30.8245 10.7771 30.6947 10.4663 30.57C10.3392 30.5153 10.1971 30.4341 10.0468 30.3481C9.91912 30.275 9.78721 30.1994 9.64115 30.126L9.24621 29.9182L8.87772 29.664C8.74474 29.569 8.61416 29.4838 8.48786 29.4013C8.33111 29.2993 8.18344 29.2031 8.05821 29.1046C8.05527 29.1025 8.05233 29.1003 8.04966 29.0979C7.15058 28.4069 6.2774 27.5342 5.45069 26.5013C3.69311 24.0575 2.63008 21.0826 2.55504 17.867C2.58068 16.561 2.72167 15.4013 2.98416 14.3412C3.39725 12.8693 3.94866 11.5484 4.62397 10.4143C5.44802 9.1184 6.36045 8.00436 7.33563 7.10368C7.33804 7.10128 7.34071 7.09914 7.34311 7.09674C7.47502 6.9723 7.62883 6.85027 7.79198 6.72103C7.91588 6.6225 8.04406 6.52076 8.17383 6.40941L8.55915 6.09058L8.97518 5.81901C9.11831 5.72876 9.24995 5.63717 9.37732 5.54851C9.54502 5.43209 9.70336 5.32208 9.84729 5.2441C10.1691 5.07241 10.4898 4.90097 10.8089 4.73034C12.3563 4.01204 13.5486 3.6139 14.6714 3.43953C14.7059 3.43419 14.74 3.42725 14.7739 3.41817C15.1737 3.3135 15.6111 3.27638 16.0744 3.23713C16.3035 3.21763 16.5406 3.19734 16.7812 3.16823C16.7913 3.16717 16.8018 3.16556 16.8119 3.16396C16.8973 3.15114 17.0026 3.14794 17.1435 3.15488C17.1548 3.15542 17.1662 3.15568 17.1775 3.15595L17.6976 3.16316C17.8552 3.16903 18.0031 3.1669 18.1462 3.16503C18.3326 3.16236 18.5091 3.15969 18.6498 3.17811C18.6667 3.18025 18.6832 3.18185 18.7 3.18319C21.196 3.38105 23.6326 4.15944 25.7413 5.43129C27.5344 6.52744 29.1536 8.03801 30.4242 9.79932C30.4263 9.80253 30.4287 9.80573 30.4311 9.80894C31.6431 11.4498 32.2832 13.1393 32.6597 14.2718L32.6976 14.3965C32.7887 14.6966 32.8757 14.9829 32.9585 15.2547C32.998 15.4072 33.0266 15.5668 33.0565 15.7356C33.0776 15.8539 33.0992 15.9759 33.1257 16.0996L33.1558 16.2504C33.2007 16.4771 33.2429 16.6894 33.2827 16.8873C33.3006 16.9768 33.3078 17.0844 33.3153 17.1981C33.3211 17.283 33.327 17.3709 33.3377 17.4643L33.4234 18.3749C33.0883 24.3558 29.3355 29.4381 24.0911 31.6972Z" fill="#EACC97"/>
<path d="M35.4806 18.3354C35.4935 18.058 35.5004 17.7795 35.5004 17.4999C35.5004 12.8256 33.6801 8.43085 30.3748 5.12559C27.0695 1.82033 22.6748 0 18.0005 0V3.16614C18.0496 3.16561 18.099 3.16534 18.1471 3.16454C18.3337 3.16187 18.5102 3.15947 18.651 3.17762C18.6675 3.17976 18.6843 3.18163 18.7012 3.18297C21.1971 3.38083 23.6337 4.15922 25.7424 5.4308C27.5355 6.52722 29.1548 8.03779 30.4253 9.79883C30.4274 9.80204 30.4298 9.80524 30.4319 9.80845C31.6443 11.4493 32.2843 13.1391 32.6608 14.2713L32.6985 14.396C32.7898 14.6964 32.8768 14.9824 32.9596 15.2545C32.9991 15.4067 33.0275 15.5666 33.0576 15.7351C33.0787 15.8534 33.1004 15.9754 33.1268 16.0991L33.157 16.2502C33.2018 16.4769 33.244 16.6892 33.2838 16.8871C33.3017 16.9765 33.3089 17.0839 33.3164 17.1976C33.3223 17.2828 33.3281 17.3704 33.3388 17.4639L33.4245 18.3744C33.0891 24.3553 29.3363 29.4376 24.0916 31.6967C24.474 31.4662 24.8452 31.22 25.2033 30.9578C25.2057 30.9559 25.2084 30.9541 25.2108 30.9522C26.7689 29.7896 28.128 28.2707 29.1414 26.5596C30.0747 25.0271 30.4998 23.532 30.7657 22.4004C30.7692 22.386 30.7721 22.3715 30.7751 22.3569C30.8234 22.101 30.8768 21.8484 30.9332 21.606C30.9374 21.587 30.9414 21.5678 30.9446 21.5486C30.9791 21.3494 30.9919 21.1705 31.0031 21.0124C31.009 20.9296 31.0146 20.8514 31.0223 20.7899C31.0229 20.7857 31.0234 20.7814 31.0237 20.7771L31.0918 20.172C31.1155 19.9742 31.1081 19.8017 31.1027 19.6754C31.1011 19.6351 31.099 19.5891 31.0998 19.5691C31.1 19.5547 31.1003 19.5403 31.1 19.5258C31.0928 18.9573 31.1062 18.6505 31.1065 18.6473C31.107 18.6326 31.1062 18.6179 31.1062 18.6033C31.1062 18.5832 31.107 18.5629 31.1059 18.5426V18.5424C31.1041 18.5093 31.1009 18.4759 31.096 18.4425C31.0955 18.4393 31.0496 18.1306 30.997 17.5683C30.9956 17.5541 30.994 17.5402 30.9924 17.5263C30.9898 17.5074 30.9871 17.4628 30.9847 17.4235C30.9769 17.2986 30.9668 17.1279 30.9219 16.9327L30.7916 16.3455C30.7906 16.341 30.7895 16.3362 30.7884 16.3317C30.7745 16.2729 30.7612 16.1976 30.747 16.118C30.7198 15.9656 30.6891 15.7923 30.6341 15.6005C30.6287 15.5818 30.6229 15.5632 30.6165 15.545C30.5342 15.3089 30.4565 15.07 30.3855 14.8342C30.3809 14.8197 30.3761 14.8053 30.3713 14.7912C29.9996 13.7324 29.4402 12.3441 28.4028 10.9916C27.2917 9.50163 25.8927 8.23352 24.3565 7.32429C24.3536 7.32269 24.3509 7.32109 24.3483 7.31949C22.5533 6.27968 20.4932 5.65243 18.3887 5.50477C18.251 5.48875 18.1209 5.48634 18.0008 5.48848V7.53898C18.0627 7.53711 18.118 7.53738 18.1546 7.54219C18.1765 7.54512 18.1986 7.54726 18.2208 7.54886C20.0222 7.67143 21.7837 8.20495 23.3159 9.09148C24.6209 9.86452 25.8126 10.9471 26.7622 12.2224C26.7654 12.2266 26.7683 12.2304 26.7715 12.2347C27.6236 13.3439 28.088 14.4809 28.429 15.4494C28.5032 15.6948 28.5839 15.9429 28.669 16.188C28.6917 16.2737 28.7094 16.3728 28.7278 16.4772C28.7459 16.5789 28.7646 16.6839 28.7908 16.7957L28.9206 17.3805C28.9214 17.3843 28.9222 17.388 28.9232 17.3918C28.9299 17.4211 28.9342 17.4887 28.9377 17.5482C28.9419 17.6163 28.9465 17.6927 28.9569 17.7771C28.9977 18.2102 29.0351 18.5066 29.0544 18.6503C29.0501 18.7934 29.0439 19.0922 29.0493 19.5338C29.0477 19.6182 29.0511 19.6949 29.0541 19.7635C29.0568 19.8254 29.0597 19.8959 29.0557 19.9274C29.0554 19.9312 29.0549 19.9349 29.0544 19.9387L28.9868 20.5419C28.9726 20.6556 28.9649 20.7632 28.9577 20.8671C28.9497 20.9777 28.9422 21.0826 28.928 21.1745C28.8698 21.4271 28.8148 21.6882 28.7646 21.9523C28.519 22.9937 28.1619 24.2269 27.387 25.4974C27.3846 25.5011 27.3822 25.5051 27.3801 25.5091C26.504 26.9901 25.3312 28.3028 23.9886 29.3057C22.352 30.5025 20.3995 31.3252 18.3417 31.6849C18.3233 31.6881 18.3046 31.6919 18.2862 31.6961C18.2104 31.7138 18.11 31.7234 18.0008 31.7317V34.9998C22.6751 34.9998 27.0698 33.1795 30.3751 29.8742C33.3401 26.9094 35.1089 23.0677 35.4419 18.9338C35.4897 18.7985 35.5105 18.6511 35.4961 18.4988L35.4806 18.3354Z" fill="#A36C22"/>
<path d="M22.7738 27.296C22.7778 27.2928 22.7815 27.2899 22.7855 27.287C23.8577 26.4472 24.7885 25.3561 25.4782 24.1312C26.1036 23.0655 26.3517 22.0652 26.5349 21.2108C26.5394 21.1894 26.5434 21.1683 26.5466 21.1469C26.5693 20.9945 26.5979 20.8465 26.6318 20.7069C26.6382 20.6799 26.6438 20.6527 26.6481 20.6252C26.674 20.4601 26.6769 20.3122 26.6791 20.2043C26.6799 20.1667 26.6807 20.1151 26.6825 20.0975C26.6841 20.0836 26.6855 20.07 26.6863 20.0561C26.694 19.9418 26.7055 19.8318 26.721 19.7197C26.7213 19.717 26.7218 19.7141 26.7221 19.7114C26.7474 19.5167 26.7303 19.3514 26.7202 19.2526C26.7191 19.2417 26.7178 19.231 26.717 19.2203C26.7167 19.207 26.7164 19.1939 26.7156 19.1808C26.7023 18.9124 26.7076 18.7477 26.7098 18.6954C26.7199 18.5875 26.7138 18.4761 26.6873 18.3642C26.6868 18.3626 26.647 18.1853 26.6131 17.863C26.6118 17.8494 26.6099 17.8361 26.608 17.8227C26.6072 17.8136 26.607 17.8048 26.6064 17.7955C26.6016 17.6972 26.5934 17.5325 26.5367 17.3415C26.5359 17.3386 26.5351 17.3357 26.5343 17.333C26.5015 17.2259 26.4724 17.1178 26.4476 17.0109C26.4443 16.9971 26.4409 16.9834 26.4371 16.9696C26.4329 16.9538 26.4243 16.9071 26.4184 16.8729C26.4 16.7701 26.3752 16.6294 26.3245 16.4734C26.3154 16.4456 26.3052 16.4181 26.2937 16.3914C26.2369 16.2569 26.1888 16.1266 26.1466 15.9922C26.1394 15.9703 26.1319 15.9484 26.1234 15.9271C25.82 15.1527 25.4355 14.2536 24.7073 13.374C23.9121 12.3754 22.9367 11.5406 21.8859 10.9598C21.8811 10.9572 21.876 10.9545 21.8712 10.9518C20.6814 10.319 19.3796 9.95822 17.9999 9.87598V11.931C19.0354 12.0087 20.0103 12.2864 20.9011 12.7585C21.9321 13.3305 22.6705 14.107 23.1086 14.6584C23.1132 14.6643 23.118 14.6699 23.1225 14.6758C23.652 15.3132 23.9474 15.997 24.2019 16.6446C24.2539 16.8064 24.3137 16.9696 24.38 17.1303C24.3861 17.1573 24.393 17.1976 24.3992 17.2318C24.4123 17.3047 24.428 17.3947 24.4539 17.4927C24.4844 17.6219 24.5191 17.7525 24.5575 17.8815C24.5578 17.8871 24.5581 17.8927 24.5583 17.898C24.561 17.9511 24.5645 18.0211 24.5762 18.1026C24.604 18.3602 24.6352 18.5528 24.6585 18.6767C24.6547 18.8024 24.6539 18.9979 24.6665 19.2615C24.6675 19.3413 24.6748 19.4102 24.6801 19.4623C24.6809 19.4708 24.682 19.4793 24.6828 19.4879C24.6651 19.6235 24.6513 19.7616 24.6416 19.8988C24.6318 19.9982 24.6302 20.0895 24.6286 20.164C24.6278 20.2041 24.627 20.2513 24.6246 20.2831C24.585 20.4535 24.5511 20.6302 24.5234 20.8105C24.3674 21.5339 24.173 22.3056 23.7055 23.1C23.702 23.1058 23.6985 23.112 23.695 23.1179C23.1378 24.1104 22.3882 24.9919 21.5273 25.6674C20.4955 26.4501 19.3096 26.9935 17.9999 27.2859V29.3778C18.0824 29.3668 18.171 29.3513 18.2632 29.3273C19.938 28.9812 21.4552 28.2979 22.7738 27.296Z" fill="#6F2205"/>
<path d="M20.3919 23.5942C20.9759 23.0738 21.4737 22.4097 21.832 21.6719C22.1517 21.0615 22.2371 20.4839 22.2937 20.1002C22.2996 20.0598 22.3055 20.0206 22.3113 19.9827C22.3146 19.9616 22.3172 19.9405 22.3194 19.9191C22.3736 19.3282 22.3367 18.8844 22.3183 18.6681C22.3252 18.5666 22.3167 18.4673 22.2953 18.3725L22.2956 18.3746C22.2956 18.3746 22.2951 18.3717 22.2943 18.3674C22.294 18.3669 22.294 18.3663 22.294 18.3658C22.2905 18.3474 22.2822 18.299 22.2742 18.224C22.274 18.2216 22.2737 18.2195 22.2734 18.2173C22.2702 18.1549 22.2622 18.0366 22.219 17.8908C22.208 17.8547 22.1989 17.8211 22.1912 17.7877C22.1901 17.7826 22.1888 17.7773 22.1874 17.7722L22.1853 17.7602C22.1757 17.7062 22.1597 17.6163 22.1255 17.5108C22.1164 17.4827 22.106 17.455 22.0945 17.4277C22.0777 17.3882 22.0635 17.3495 22.051 17.3097C22.0438 17.2873 22.036 17.2654 22.0275 17.2435C21.922 16.9746 21.726 16.475 21.3316 15.997C20.9447 15.5121 20.4683 15.1057 19.954 14.8215C19.9492 14.8189 19.9444 14.8162 19.9396 14.8138C19.3439 14.4968 18.6923 14.3187 18.0023 14.2835C18.0015 14.2835 18.0007 14.2835 17.9996 14.2832V16.3393C18.3462 16.3698 18.672 16.4638 18.9692 16.6205C19.3228 16.8176 19.5794 17.0883 19.7329 17.2814C19.7375 17.2873 19.742 17.2929 19.7468 17.2985C19.9137 17.4996 20.0138 17.7276 20.107 17.9637C20.1263 18.0219 20.1471 18.0798 20.1695 18.1375C20.1757 18.1719 20.1845 18.2173 20.1978 18.2691C20.208 18.3113 20.2184 18.353 20.2299 18.3941C20.2315 18.4136 20.2339 18.4355 20.2368 18.4593C20.2459 18.5402 20.2555 18.6091 20.2646 18.6657C20.2656 18.7319 20.2704 18.7906 20.2745 18.8371C20.2891 19.0123 20.314 19.3023 20.2795 19.702C20.2747 19.7341 20.2699 19.7669 20.2648 19.8006C20.2197 20.1068 20.1727 20.4238 20.0109 20.7287C20.0048 20.7402 19.9989 20.752 19.9933 20.764C19.825 21.1125 19.5236 21.6177 19.0389 22.0529C18.7214 22.3176 18.3775 22.5336 17.9996 22.7061V24.8952C18.8955 24.6183 19.6723 24.1985 20.3687 23.6143C20.3767 23.6076 20.3845 23.6009 20.3919 23.5942Z" fill="#6F2205"/>
</g>
<defs>
<clipPath id="clip0_24:1138">
<rect width="35" height="35" fill="white" transform="translate(0.5)"/>
</clipPath>
</defs>
</svg>
