<svg width="36" height="35" viewBox="0 0 36 35" fill="none" xmlns="http://www.w3.org/2000/svg">
<path d="M27.2456 34.999C26.6793 34.999 26.2202 34.5399 26.2202 33.9736V30.0088C26.2202 29.4425 26.6793 28.9834 27.2456 28.9834C27.8119 28.9834 28.271 29.4425 28.271 30.0088V33.9736C28.271 34.54 27.8119 34.999 27.2456 34.999Z" fill="#93B0D0"/>
<path d="M27.2456 28.9834V34.999C27.8119 34.999 28.271 34.5399 28.271 33.9736V30.0088C28.271 29.4425 27.8119 28.9834 27.2456 28.9834Z" fill="#6892C1"/>
<path d="M13.5051 10.1173H12.3774L12.3779 6.02881H5.67836L5.67788 10.1173H4.55029C3.13676 10.1173 1.98682 11.2673 1.98682 12.6808V15.8959L4.57066 22.0744L1.98682 28.3576V32.4366C1.98682 33.8502 3.13676 35.0001 4.55029 35.0001H13.5051C14.9186 35.0001 16.0686 33.8502 16.0686 32.4366V28.3227L12.6341 21.2715L16.0686 16.0006V12.6808C16.0686 11.2673 14.9186 10.1173 13.5051 10.1173Z" fill="#A36C22"/>
<path d="M16.0685 12.6808C16.0685 11.2673 14.9186 10.1173 13.505 10.1173H12.3774L12.3778 6.02881H9.02832V35.0001H13.505C14.9186 35.0001 16.0685 33.8502 16.0685 32.4366V28.3227L12.6341 21.2715L16.0685 16.0006V12.6808Z" fill="#6F2205"/>
<path d="M30.3218 9.22852H24.1694V1.02539H30.3218V9.22852Z" fill="#FFF4F4"/>
<path d="M27.2456 1.02539H30.3218V9.22852H27.2456V1.02539Z" fill="#F6EFEA"/>
<path d="M1.98682 15.9277H16.0686V28.3212H1.98682V15.9277Z" fill="#93B0D0"/>
<path d="M29.2964 31.0342H25.1948C24.6285 31.0342 24.1694 30.5751 24.1694 30.0089V25.9072C24.1694 25.3409 24.6285 24.8818 25.1948 24.8818H29.2964C29.8627 24.8818 30.3218 25.3409 30.3218 25.9072V30.0089C30.3218 30.5752 29.8627 31.0342 29.2964 31.0342Z" fill="#FFF4F4"/>
<path d="M29.2964 24.8818H27.2456V31.0342H29.2964C29.8627 31.0342 30.3218 30.5751 30.3218 30.0089V25.9072C30.3218 25.3409 29.8627 24.8818 29.2964 24.8818Z" fill="#F6EFEA"/>
<path d="M31.3472 2.05078H23.144C22.5778 2.05078 22.1187 1.59168 22.1187 1.02539C22.1187 0.459102 22.5778 0 23.144 0H31.3472C31.9135 0 32.3726 0.459102 32.3726 1.02539C32.3726 1.59168 31.9135 2.05078 31.3472 2.05078Z" fill="#93B0D0"/>
<path d="M30.8556 17.3967L32.3726 15.9423V13.8828L30.5996 12.9403L32.3726 11.8349V8.75C32.3726 8.18371 31.9135 7.72461 31.3472 7.72461H23.144C22.5778 7.72461 22.1187 8.18371 22.1187 8.75V17.3967H30.8556Z" fill="#FFF4F4"/>
<path d="M32.3726 8.75C32.3726 8.18371 31.9135 7.72461 31.3472 7.72461H27.2456V17.3967H30.8556L32.3726 15.9423V13.8828L30.5996 12.9403L32.3726 11.8349V8.75Z" fill="#F6EFEA"/>
<path d="M32.3726 11.8262H28.5444C27.9781 11.8262 27.519 12.2853 27.519 12.8516C27.519 13.4179 27.9781 13.877 28.5444 13.877H32.3726V11.8262Z" fill="#EEE1DC"/>
<path d="M22.1187 16.9414V25.9071C22.1187 26.4734 22.5778 26.9325 23.144 26.9325H31.3472C31.9135 26.9325 32.3726 26.4734 32.3726 25.9071V22.0626L31.321 21.0619L32.3726 20.0263V17.9668L31.2512 16.9414H22.1187Z" fill="#FF405C"/>
<path d="M32.3726 17.9668L31.2512 16.9414H27.2456V26.9325H31.3472C31.9135 26.9325 32.3726 26.4734 32.3726 25.9071V22.0626L31.321 21.0619L32.3726 20.0263V17.9668Z" fill="#C1126B"/>
<path d="M32.3726 15.9277H28.5444C27.9781 15.9277 27.519 16.3868 27.519 16.9531C27.519 17.5194 27.9781 17.9785 28.5444 17.9785H32.3449H32.3726V15.9277Z" fill="#EEE1DC"/>
<path d="M32.3726 20.0293H28.5444C27.9781 20.0293 27.519 20.4884 27.519 21.0547C27.519 21.621 27.9781 22.0801 28.5444 22.0801H32.3726V20.0293Z" fill="#EEE1DC"/>
<path d="M32.9878 9.77539H21.5035C20.9373 9.77539 20.4781 9.31629 20.4781 8.75C20.4781 8.18371 20.9373 7.72461 21.5035 7.72461H32.9878C33.5541 7.72461 34.0132 8.18371 34.0132 8.75C34.0132 9.31629 33.5541 9.77539 32.9878 9.77539Z" fill="#93B0D0"/>
<path d="M12.3779 6.15672L12.3785 0.512695C12.3785 0.229482 12.149 0 11.8658 0H6.19165C5.90844 0 5.67896 0.229482 5.67896 0.512695L5.67834 6.15672H12.3779Z" fill="#FFDE46"/>
<path d="M11.8657 0H9.02832V6.15672H12.3778L12.3784 0.512695C12.3784 0.229482 12.1489 0 11.8657 0Z" fill="#FFCD00"/>
<path d="M9.02832 15.9277H16.0685V28.3212H9.02832V15.9277Z" fill="#6892C1"/>
<path d="M31.3472 0H27.2456V2.05078H31.3472C31.9135 2.05078 32.3726 1.59168 32.3726 1.02539C32.3726 0.459102 31.9135 0 31.3472 0Z" fill="#6892C1"/>
<path d="M32.9878 7.72461H27.2456V9.77539H32.9878C33.5541 9.77539 34.0132 9.31629 34.0132 8.75C34.0132 8.18371 33.5541 7.72461 32.9878 7.72461Z" fill="#6892C1"/>
</svg>
