<svg width="15" height="14" viewBox="0 0 15 14" fill="none" xmlns="http://www.w3.org/2000/svg">
<g clip-path="url(#clip0_26:1610)">
<path d="M3.64453 3.14453H14.0898V13.5898H3.64453V3.14453Z" fill="#73BCFF"/>
<path d="M7.5 3.14453H14.0898V13.5898H7.5V3.14453Z" fill="#7984EB"/>
<path d="M12.6948 10.5821C12.5577 10.5821 12.4297 10.6505 12.3536 10.7645L12.1473 11.0736L11.3936 9.94421C11.2312 9.70084 10.8735 9.7009 10.7112 9.94431L9.9585 11.073L9.2065 9.94445C9.04416 9.70082 8.68614 9.70082 8.52383 9.94448L7.7721 11.0728L7.02014 9.94445C6.8578 9.70084 6.49985 9.70084 6.33751 9.94445L5.58553 11.0729L5.38018 10.7648C5.30411 10.6506 5.17603 10.5821 5.03887 10.5821H3.64453V11.4024H4.8193L5.2442 12.04C5.40654 12.2836 5.76449 12.2836 5.92683 12.04L6.67881 10.9115L7.43082 12.04C7.59319 12.2836 7.95114 12.2836 8.11348 12.0399L8.86519 10.9116L9.61704 12.04C9.77935 12.2835 10.1372 12.2836 10.2996 12.0401L11.0526 10.911L11.8062 12.0402C11.9685 12.2835 12.3261 12.2835 12.4885 12.0402L12.9141 11.4024H14.0898V10.5821H12.6948Z" fill="#FFF261"/>
<path d="M12.3536 5.56921L12.1473 5.8783L11.3936 4.74889C11.2312 4.50553 10.8735 4.50559 10.7112 4.749L9.9585 5.87773L9.2065 4.74914C9.04416 4.5055 8.68617 4.5055 8.52383 4.74917L7.7721 5.87751L7.02014 4.74914C6.8578 4.50553 6.49985 4.50553 6.33751 4.74914L5.58553 5.87759L5.38018 5.56945C5.30411 5.45532 5.17603 5.38674 5.03887 5.38674H3.64453V6.20706H4.8193L5.2442 6.84466C5.40654 7.08827 5.76449 7.08827 5.92683 6.84466L6.67881 5.71621L7.43082 6.84466C7.59319 7.08829 7.95114 7.08827 8.11348 6.84461L8.86519 5.71629L9.61704 6.84463C9.77932 7.08821 10.1372 7.08827 10.2996 6.84477L11.0526 5.71563L11.8062 6.84488C11.9685 7.08819 12.3261 7.08819 12.4885 6.84488L12.9141 6.20706H14.0898V5.38674H12.6948C12.5577 5.38674 12.4297 5.45521 12.3536 5.56921Z" fill="#FFF261"/>
<path d="M8.11348 12.0399L8.86519 10.9116L9.61704 12.04C9.77935 12.2835 10.1372 12.2836 10.2996 12.0401L11.0526 10.911L11.8062 12.0402C11.9685 12.2835 12.3261 12.2835 12.4885 12.0402L12.9141 11.4024H14.0898V10.5821H12.6948C12.5577 10.5821 12.4297 10.6505 12.3536 10.7645L12.1473 11.0736L11.3936 9.9442C11.2312 9.70084 10.8735 9.7009 10.7112 9.94431L9.9585 11.073L9.2065 9.94445C9.04416 9.70082 8.68614 9.70082 8.52383 9.94448L7.7721 11.0728L7.5 10.6645V12.1198C7.67948 12.2798 7.97141 12.2532 8.11348 12.0399Z" fill="#FFF261"/>
<path d="M8.11348 6.84462L8.86519 5.71631L9.61704 6.84465C9.77932 7.08822 10.1372 7.08828 10.2996 6.84478L11.0526 5.71565L11.8062 6.84489C11.9685 7.0882 12.3261 7.0882 12.4885 6.84489L12.9141 6.20705H14.0898V5.38674H12.6948C12.5577 5.38674 12.4297 5.45521 12.3536 5.5692L12.1473 5.87829L11.3936 4.74889C11.2312 4.50553 10.8735 4.50559 10.7112 4.749L9.9585 5.87772L9.2065 4.74914C9.04416 4.50551 8.68617 4.5055 8.52383 4.74916L7.7721 5.8775L7.5 5.46923V6.92449C7.67948 7.08448 7.97141 7.05784 8.11348 6.84462Z" fill="#FFF261"/>
<path d="M14.0898 3.14453H13.6797V7.98438H3.23438V8.80469H13.6797V13.1797H3.64453V13.5898C3.64453 13.8164 3.82817 14 4.05469 14H14.0898C14.3164 14 14.5 13.8164 14.5 13.5898V3.55469C14.5 3.32817 14.3164 3.14453 14.0898 3.14453Z" fill="#DDEBF0"/>
<path d="M14.0898 3.14453H13.6797V7.98438H7.5V8.80469H13.6797V13.1797H7.5V14H14.0898C14.3164 14 14.5 13.8164 14.5 13.5898V3.55469C14.5 3.32817 14.3164 3.14453 14.0898 3.14453Z" fill="#A7D2D7"/>
<path d="M0.5 13.5898C0.5 13.8164 0.683641 14 0.910156 14H4.05469V3.55469L2.22266 3.00781L0.5 3.55469V13.5898Z" fill="#FFF4F4"/>
<path d="M14.0898 0H0.910156C0.683641 0 0.5 0.183641 0.5 0.410156V3.55469H14.5V0.410156C14.5 0.183641 14.3164 0 14.0898 0Z" fill="#0040A0"/>
<path d="M14.5 3.55469V0.410156C14.5 0.183641 14.3164 0 14.0898 0H7.5V3.55469H14.5Z" fill="#00317E"/>
<path d="M2.6875 2.1875H2.14062C1.91411 2.1875 1.73047 2.00386 1.73047 1.77734C1.73047 1.55083 1.91411 1.36719 2.14062 1.36719H2.6875C2.91402 1.36719 3.09766 1.55083 3.09766 1.77734C3.09766 2.00386 2.91402 2.1875 2.6875 2.1875Z" fill="#FF6C6C"/>
<path d="M4.875 2.1875H4.32812C4.10161 2.1875 3.91797 2.00386 3.91797 1.77734C3.91797 1.55083 4.10161 1.36719 4.32812 1.36719H4.875C5.10152 1.36719 5.28516 1.55083 5.28516 1.77734C5.28516 2.00386 5.10152 2.1875 4.875 2.1875Z" fill="#73BCFF"/>
<path d="M7.0625 2.1875H6.51562C6.28911 2.1875 6.10547 2.00386 6.10547 1.77734C6.10547 1.55083 6.28911 1.36719 6.51562 1.36719H7.0625C7.28902 1.36719 7.47266 1.55083 7.47266 1.77734C7.47266 2.00386 7.28902 2.1875 7.0625 2.1875Z" fill="#FFF261"/>
</g>
<defs>
<clipPath id="clip0_26:1610">
<rect width="14" height="14" fill="white" transform="translate(0.5)"/>
</clipPath>
</defs>
</svg>
