<svg width="19" height="18" viewBox="0 0 19 18" fill="none" xmlns="http://www.w3.org/2000/svg">
<g clip-path="url(#clip0_26:1573)">
<path d="M7.12614 7.83985L10.0661 8.53528C12.2135 9.04332 14.4554 8.33162 15.9168 6.67797L18.1808 3.61175L17.5023 3.01216C17.2775 2.8135 16.9342 2.83466 16.7355 3.05948L14.6566 5.41189C13.5953 6.61283 11.9592 7.13219 10.3995 6.76326L7.45964 6.06784C6.74533 5.89888 6.00283 5.88699 5.2835 6.03307L0.935269 6.91605C0.641222 6.97575 0.451273 7.26252 0.510969 7.55656L0.691144 8.44387L5.57175 7.81503C6.08204 7.71146 6.61947 7.72001 7.12614 7.83985Z" fill="#F7F9FA"/>
<path d="M18.3165 3.73173L18.1808 3.61182L15.7421 6.3713C14.3244 7.97555 12.1495 8.66602 10.0661 8.17316L7.12616 7.47773C6.61949 7.35789 6.08202 7.34934 5.57176 7.45291L0.691162 8.4439L0.727197 8.62137C0.786893 8.91541 1.07366 9.10536 1.36771 9.04567L5.71594 8.16275C6.12699 8.07929 6.55129 8.08608 6.95945 8.18262L9.89932 8.87804C12.2388 9.43144 14.6929 8.65237 16.2849 6.85097L18.3638 4.49856C18.5625 4.27374 18.5413 3.9304 18.3165 3.73173Z" fill="#DCE6EB"/>
<path d="M15.2404 9.69057C15.0904 9.69057 14.9688 9.56896 14.9688 9.41895V8.07359H9.82595V9.41895C9.82595 9.56896 9.70434 9.69057 9.55433 9.69057C9.40432 9.69057 9.28271 9.56896 9.28271 9.41895V5.79712C9.28271 5.04822 9.89197 4.43896 10.6409 4.43896H14.154C14.9029 4.43896 15.5121 5.04822 15.5121 5.79712V9.41895C15.512 9.56896 15.3904 9.69057 15.2404 9.69057ZM9.82595 7.53032H14.9688V5.79712C14.9688 5.34779 14.6033 4.98223 14.1539 4.98223H10.6408C10.1915 4.98223 9.82595 5.34779 9.82595 5.79712V7.53032Z" fill="#B9C3CD"/>
<path d="M17.3731 14.5811H16.6892C16.5391 14.5811 16.4175 14.4595 16.4175 14.3095V12.5999H2.5825V14.0379H2.99478C3.14479 14.0379 3.2664 14.1595 3.2664 14.3095C3.2664 14.4595 3.14479 14.5811 2.99478 14.5811H2.31089C2.16087 14.5811 2.03927 14.4595 2.03927 14.3095V12.5998H1.94874C1.79873 12.5998 1.67712 12.4782 1.67712 12.3282C1.67712 12.1782 1.79873 12.0566 1.94874 12.0566H2.03927V10.5055C2.03927 10.3555 2.16087 10.2339 2.31089 10.2339C2.4609 10.2339 2.5825 10.3555 2.5825 10.5055V12.0566H16.4175V10.5055C16.4175 10.3555 16.5391 10.2339 16.6891 10.2339C16.8391 10.2339 16.9607 10.3555 16.9607 10.5055V12.0566H17.0513C17.2013 12.0566 17.3229 12.1782 17.3229 12.3282C17.3229 12.4782 17.2013 12.5998 17.0513 12.5998H16.9607V14.0378H17.373C17.523 14.0378 17.6446 14.1594 17.6446 14.3094C17.6447 14.4595 17.5231 14.5811 17.3731 14.5811Z" fill="#B9C3CD"/>
<path d="M18.1378 10.5053L17.7756 9.05664H0.771617C0.621605 9.05664 0.5 9.17825 0.5 9.32826V10.1431L18.1378 10.5053Z" fill="#D79B8C"/>
<path d="M18.2284 9.05664H17.7757V9.87153C17.7757 10.0215 17.6541 10.1431 17.5041 10.1431H0.5V10.5959C0.5 10.7459 0.621605 10.8675 0.771617 10.8675H18.2283C18.3784 10.8675 18.5 10.7459 18.5 10.5959V9.32826C18.5 9.17825 18.3784 9.05664 18.2284 9.05664Z" fill="#C38778"/>
<path d="M2.31085 14.0379C2.31085 13.9556 2.19646 13.6171 2.00408 13.5297C1.9292 13.5071 1.84989 13.4946 1.76758 13.4946C1.31755 13.4946 0.952698 13.8595 0.952698 14.3095C0.952698 14.3918 0.965143 14.4711 0.987819 14.546C1.07634 14.7404 1.41367 14.8528 1.49593 14.8528C1.946 14.8527 2.31085 14.4879 2.31085 14.0379Z" fill="#5F6C75"/>
<path d="M2.00412 13.5293C2.02679 13.6042 2.03924 13.6835 2.03924 13.7658C2.03924 14.2158 1.67439 14.5807 1.22435 14.5807C1.14205 14.5807 1.06274 14.5682 0.987854 14.5456C1.08924 14.8802 1.39985 15.1239 1.76762 15.1239C2.21765 15.1239 2.58251 14.7591 2.58251 14.3091C2.58251 13.9413 2.3388 13.6307 2.00412 13.5293Z" fill="#4E5A61"/>
<path d="M16.6891 14.0379C16.6891 13.9556 16.5748 13.6171 16.3824 13.5297C16.3075 13.5071 16.2282 13.4946 16.1459 13.4946C15.6958 13.4946 15.331 13.8595 15.331 14.3095C15.331 14.3918 15.3434 14.4711 15.3661 14.546C15.4546 14.7404 15.792 14.8528 15.8742 14.8528C16.3243 14.8527 16.6891 14.4879 16.6891 14.0379Z" fill="#5F6C75"/>
<path d="M16.3824 13.5293C16.405 13.6042 16.4175 13.6835 16.4175 13.7658C16.4175 14.2158 16.0526 14.5807 15.6026 14.5807C15.5203 14.5807 15.441 14.5682 15.3661 14.5456C15.4675 14.8802 15.7781 15.1239 16.1459 15.1239C16.5959 15.1239 16.9607 14.7591 16.9607 14.3091C16.9607 13.9413 16.717 13.6307 16.3824 13.5293Z" fill="#4E5A61"/>
</g>
<defs>
<clipPath id="clip0_26:1573">
<rect width="18" height="18" fill="white" transform="translate(0.5)"/>
</clipPath>
</defs>
</svg>
