<svg width="45" height="44" viewBox="0 0 45 44" fill="none" xmlns="http://www.w3.org/2000/svg">
<g clip-path="url(#clip0_24:259)">
<path d="M37.2272 43.9997H29.9634C29.2106 43.9997 28.6004 43.3895 28.6004 42.6368V30.9606C28.6004 30.745 28.7751 30.5703 28.9906 30.5703H38.1998C38.4153 30.5703 38.59 30.745 38.59 30.9606V42.6368C38.5902 43.3895 37.9799 43.9997 37.2272 43.9997Z" fill="#E5F9F6"/>
<path d="M38.2 30.5703H33.6867V43.9997H37.2273C37.9801 43.9997 38.5903 43.3896 38.5903 42.6368V30.9606C38.5903 30.745 38.4156 30.5703 38.2 30.5703Z" fill="#D6E5E2"/>
<path d="M28.6006 34.73V42.6373C28.6006 43.3901 29.2108 44.0003 29.9636 44.0003H37.2274C37.9801 44.0003 38.5904 43.3901 38.5904 42.6373V34.73H28.6006Z" fill="#A36C22"/>
<path d="M17.083 13.342C17.083 13.342 17.5842 12.837 17.5842 10.4964C17.5842 7.09935 16.3294 4.65039 16.3294 4.65039H12.0065C12.0065 4.65039 10.7517 7.09935 10.7517 10.4964C10.7517 12.837 11.2528 13.342 11.2528 13.342L7.39474 16.4138C6.7723 16.9094 6.40973 17.6616 6.40973 18.4573V42.453C6.40973 43.3071 7.10213 43.9995 7.95626 43.9995H20.3796C21.2337 43.9995 21.9261 43.3071 21.9261 42.453V18.4573C21.9261 17.6616 21.5635 16.9094 20.9411 16.4138L17.083 13.342Z" fill="#A36C22"/>
<path d="M20.941 16.4138L17.083 13.342C17.083 13.342 17.5841 12.837 17.5841 10.4964C17.5841 7.09935 16.3293 4.65039 16.3293 4.65039H12.6305C12.6305 7.9729 12.6304 11.8598 12.6304 11.8731C12.6218 13.8712 13.5282 14.4558 15.0914 15.7004L15.9875 16.4139C16.61 16.9095 16.9725 17.6617 16.9725 18.4573V43.9996H20.3795C21.2336 43.9996 21.926 43.3072 21.926 42.4531V18.4573C21.926 17.6616 21.5635 16.9094 20.941 16.4138Z" fill="#6F2205"/>
<path d="M21.9266 20.0103H6.40973V40.7529H21.9266V20.0103Z" fill="#4A4256"/>
<path d="M21.9261 20.0103H16.9725V40.7529H21.9261V20.0103Z" fill="#352F3F"/>
<path d="M17.6795 25.8065C15.3108 24.7497 13.0304 24.7473 10.6561 25.8066C10.3756 25.9317 10.0457 25.8238 9.88911 25.5596C9.69257 25.2281 9.49603 24.8965 9.29941 24.5649C9.11516 24.2541 9.24131 23.8524 9.56925 23.7006C12.6239 22.2869 15.7104 22.2863 18.7663 23.7006C19.0943 23.8524 19.2205 24.2541 19.0362 24.5649C18.8397 24.8964 18.6431 25.228 18.4466 25.5596C18.29 25.8238 17.96 25.9316 17.6795 25.8065Z" fill="#EFEFEF"/>
<path d="M14.1674 33.6096C16.3041 33.6096 18.0363 32.4221 18.0363 30.9574C18.0363 29.4926 16.3041 28.3052 14.1674 28.3052C12.0307 28.3052 10.2985 29.4926 10.2985 30.9574C10.2985 32.4221 12.0307 33.6096 14.1674 33.6096Z" fill="#EFEFEF"/>
<path d="M18.1808 37.5494H10.1547C9.78794 37.5494 9.4906 37.2521 9.4906 36.8853C9.4906 36.5185 9.78794 36.2212 10.1547 36.2212H18.1808C18.5475 36.2212 18.8449 36.5185 18.8449 36.8853C18.8449 37.2521 18.5475 37.5494 18.1808 37.5494Z" fill="#EFEFEF"/>
<path d="M17.5815 10.261C17.5257 6.98711 16.3293 4.65039 16.3293 4.65039H12.0064C12.0064 4.65039 10.8102 6.98703 10.7543 10.261H17.5815Z" fill="#4A4256"/>
<path d="M17.5815 10.261C17.5291 7.19207 16.4748 4.9467 16.3428 4.67755C16.341 4.67377 16.34 4.67179 16.3385 4.66878C16.3366 4.66474 16.3342 4.65993 16.3329 4.65735C16.3306 4.6528 16.3293 4.65039 16.3293 4.65039H12.6305C12.6305 6.63443 12.6305 8.81938 12.6304 10.261H17.5815Z" fill="#352F3F"/>
<path d="M16.7705 5.38836H11.5653C11.3351 5.38836 11.1484 5.2017 11.1484 4.97147V0.416882C11.1484 0.186656 11.3351 0 11.5653 0H16.7705C17.0008 0 17.1874 0.186656 17.1874 0.416882V4.97139C17.1874 5.2017 17.0008 5.38836 16.7705 5.38836Z" fill="#4A4256"/>
<path d="M17.1873 1.68066H11.1484V3.09983H17.1873V1.68066Z" fill="#EFEFEF"/>
<path d="M38.5903 42.6368V34.7295H33.6867V43.9998H37.2273C37.9801 43.9998 38.5903 43.3897 38.5903 42.6368Z" fill="#6F2205"/>
<path d="M37.2272 41.8335H29.9634C29.2106 41.8335 28.6004 41.8514 28.6004 41.0986V42.6373C28.6004 43.39 29.2106 44.0002 29.9634 44.0002H37.2272C37.9799 44.0002 38.5902 43.39 38.5902 42.6373V41.0986C38.5902 41.8514 37.9799 41.8335 37.2272 41.8335Z" fill="#D7E0DC"/>
<path d="M37.2273 41.8334H33.6867V44.0001H37.2273C37.6776 44.0001 38.0758 43.7808 38.3239 43.4441C38.3609 43.3939 38.3957 43.342 38.4257 43.2869C38.4467 43.2483 38.4659 43.2085 38.4831 43.1677C38.5039 43.1187 38.5209 43.0676 38.5358 43.0158C38.5565 42.9442 38.5717 42.8704 38.5804 42.7945C38.5863 42.7429 38.5902 42.6905 38.5902 42.6373V41.0986C38.5903 41.8514 37.9801 41.8334 37.2273 41.8334Z" fill="#C9D1CD"/>
<path d="M18.7664 23.7013C18.1695 23.425 17.5713 23.2035 16.9725 23.0352V25.5226C17.2074 25.6071 17.443 25.7016 17.6795 25.8072C17.96 25.9323 18.29 25.8244 18.4466 25.5602C18.6431 25.2286 18.8396 24.8971 19.0363 24.5655C19.2206 24.2547 19.0944 23.853 18.7664 23.7013Z" fill="#DEE0E2"/>
<path d="M16.9725 29.1323V32.7838C17.6315 32.3082 18.0366 31.6658 18.0366 30.9581C18.0366 30.2504 17.6314 29.6079 16.9725 29.1323Z" fill="#DEE0E2"/>
</g>
<defs>
<clipPath id="clip0_24:259">
<rect width="44" height="44" fill="white" transform="translate(0.5)"/>
</clipPath>
</defs>
</svg>
