<svg width="19" height="18" viewBox="0 0 19 18" fill="none" xmlns="http://www.w3.org/2000/svg">
<g clip-path="url(#clip0_26:1585)">
<path d="M17.2825 17.0934C17.2825 17.0934 17.2071 15.8269 16.3488 14.8917C16.1139 14.7282 15.8523 14.5972 15.5691 14.5073L13.1967 13.7539H5.8033L3.43085 14.5073C2.22475 14.8903 1.40543 16.01 1.4054 17.2755C1.4054 17.2755 2.11376 17.8007 16.1064 17.8007C16.4644 17.8007 17.2825 17.0934 17.2825 17.0934Z" fill="#94D8E6"/>
<path d="M16.3487 14.8921C16.6799 15.3677 16.8701 15.9426 16.8701 16.5515V17.1491C16.8701 17.2191 16.8133 17.2759 16.7433 17.2759H1.4054V17.2759V17.7286C1.4054 17.8786 1.527 18.0003 1.67701 18.0003H17.3229C17.4729 18.0003 17.5945 17.8786 17.5945 17.7286V17.2759C17.5945 16.3076 17.1144 15.425 16.3487 14.8921Z" fill="#7BD0E0"/>
<path d="M11.7591 14.5792V13.8664L7.24091 12.7954V14.5792L9.50226 15.998L11.7591 14.5792Z" fill="#EBAE9D"/>
<path d="M7.24091 10.958V12.796C7.53087 13.0381 7.85417 13.2716 8.20116 13.5282C9.13597 14.2194 9.60031 14.3623 10.2244 14.3623C10.7293 14.3623 11.1297 14.2686 11.7591 13.867V10.958H7.24091Z" fill="#E09380"/>
<path d="M13.9321 9.21992C14.2321 9.21992 15.0186 8.79583 15.0186 7.11887C15.0186 6.2884 14.7401 5.84424 14.3966 5.84424C14.0531 5.84424 13.9321 6.21032 13.9321 6.21032H5.06783C5.06783 6.21032 4.94689 5.84424 4.60334 5.84424C4.2598 5.84424 3.98132 6.28837 3.98132 7.11887C3.98132 8.79583 4.7678 9.21992 5.06783 9.21992H13.9321Z" fill="#E09380"/>
<path d="M13.6223 7.9625C13.6223 7.38854 13.699 5.6591 13.699 4.61348C8.23961 2.93301 5.06788 5.11196 5.06781 5.112V7.37733C7.05206 9.21972 11.544 8.6909 13.6223 7.9625Z" fill="#EBAE9D"/>
<path d="M13.2077 7.6762L13.4732 8.07311L13.9321 7.37713C13.9321 6.80313 13.9321 5.93709 13.9321 5.1118L13.5699 4.54297L13.2077 4.89541V7.6762Z" fill="#E09380"/>
<path d="M7.75032 6.83425C7.6003 6.83425 7.4787 6.71265 7.4787 6.56264V5.9557C7.4787 5.80565 7.6003 5.68408 7.75032 5.68408C7.90033 5.68408 8.02193 5.80569 8.02193 5.9557V6.56264C8.02197 6.71268 7.90036 6.83425 7.75032 6.83425Z" fill="#784132"/>
<path d="M11.2496 6.83425C11.0996 6.83425 10.978 6.71265 10.978 6.56264V5.9557C10.978 5.80565 11.0996 5.68408 11.2496 5.68408C11.3996 5.68408 11.5212 5.80569 11.5212 5.9557V6.56264C11.5212 6.71268 11.3996 6.83425 11.2496 6.83425Z" fill="#784132"/>
<path d="M10.3084 5.41977C10.2358 5.41977 10.1634 5.39087 10.1099 5.33367C10.0075 5.22409 10.0132 5.05221 10.1228 4.94973C10.7273 4.38428 11.9712 4.08661 12.8594 4.54452C12.9927 4.61328 13.0451 4.77711 12.9763 4.91039C12.9076 5.04381 12.7438 5.09623 12.6104 5.02735C11.936 4.67969 10.9537 4.91647 10.4938 5.34647C10.4415 5.39551 10.3748 5.41977 10.3084 5.41977Z" fill="#D47F6C"/>
<path d="M8.69161 5.42018C8.62513 5.42018 8.55851 5.39592 8.50613 5.34695C8.04635 4.91695 7.06402 4.68003 6.38958 5.02783C6.25623 5.09657 6.09244 5.04422 6.02367 4.91087C5.95491 4.77756 6.00729 4.61373 6.1406 4.545C7.02879 4.08709 8.27265 4.38479 8.8772 4.95021C8.98678 5.05266 8.99251 5.22457 8.89003 5.33415C8.83656 5.39128 8.76417 5.42018 8.69161 5.42018Z" fill="#D47F6C"/>
<path d="M13.6223 8.12843L13.2077 7.6399C11.1294 8.36826 10.5445 7.34082 9.49996 7.34082C8.34314 7.34082 7.76349 8.60142 5.06781 7.34082V8.03825C5.06781 10.3875 6.08059 11.0468 7.47668 12.079C8.41149 12.7702 8.87583 12.913 9.49996 12.913C10.1241 12.913 11.0553 12.3611 11.5212 11.9144C12.3561 11.114 13.6223 10.4777 13.6223 8.12843Z" fill="#BAE6EF"/>
<path d="M13.9321 7.34082C13.6717 7.4632 13.4312 7.56157 13.2077 7.6399V8.03829C13.2077 10.3875 11.996 11.2786 11.1611 12.079C10.6952 12.5256 10.1241 12.913 9.5 12.913C10.1241 12.913 10.5884 12.7702 11.5233 12.079C12.9194 11.0468 13.9321 10.3875 13.9321 8.03825V7.34082Z" fill="#94D8E6"/>
<path d="M13.5699 4.46048C13.5699 3.92516 13.5073 2.72127 13.5073 2.6492C13.5073 1.82215 12.8253 1.00621 11.7186 0.40609C11.066 0.151734 10.3083 0 9.49996 0C7.05217 0 5.06781 1.39046 5.06781 2.81271V4.02532C5.06792 4.02532 9.39199 3.3519 13.5699 4.46048Z" fill="#BAE6EF"/>
<path d="M13.2077 2.81287V4.28978L13.9321 4.02552C13.9321 3.38033 13.9321 2.89436 13.9321 2.81291C13.9321 1.86035 13.0419 0.922098 11.7186 0.40625C12.659 1.04711 13.2077 1.98582 13.2077 2.81287Z" fill="#94D8E6"/>
<path d="M13.2077 4.89556L13.5699 4.46043L13.2077 3.80895C9.02978 2.70037 5.06792 4.0253 5.06781 4.0253V5.11191C5.06792 5.11188 9.02978 3.78698 13.2077 4.89556Z" fill="#DCF2F6"/>
<path d="M13.2077 4.8952C13.4487 4.95915 13.6904 5.0307 13.9321 5.11155C13.9321 4.72941 13.9321 4.35622 13.9321 4.02495C13.6904 3.94409 13.4487 3.87251 13.2077 3.80859V4.8952Z" fill="#BAE6EF"/>
<path d="M10.8742 14.2854L9.89381 15.2194L9.91968 15.7217L9.50002 15.5945L6.87825 13.0969C6.7739 12.9975 6.61004 12.9969 6.50499 13.0956L5.80334 13.7543L9.31268 17.0974C9.41758 17.1973 9.58247 17.1973 9.68737 17.0974L10.3824 16.4352L10.2819 16.0072L10.7762 16.06L13.1966 13.7543L12.644 13.2354L10.8742 14.2854Z" fill="#7BD0E0"/>
<path d="M12.1218 13.0969L10.8742 14.2854C11.2499 14.185 11.6538 13.9673 12.2477 13.5283C12.3836 13.4278 12.5159 13.3308 12.644 13.2354L12.4951 13.0956C12.3899 12.9969 12.2261 12.9975 12.1218 13.0969Z" fill="#70C6DB"/>
<path d="M10.3825 16.435L9.5 15.5944L9.89382 15.2192L10.7762 16.0599L10.3825 16.435Z" fill="#70C6DB"/>
</g>
<defs>
<clipPath id="clip0_26:1585">
<rect width="18" height="18" fill="white" transform="translate(0.5)"/>
</clipPath>
</defs>
</svg>
