<svg width="16" height="15" viewBox="0 0 16 15" fill="none" xmlns="http://www.w3.org/2000/svg">
<g clip-path="url(#clip0_26:1627)">
<path d="M11.2676 0V11.0321C11.2676 12.1923 10.3271 13.1328 9.167 13.1328L8.2334 14.0664L9.167 15C11.3584 15 13.1349 13.2235 13.1349 11.0321V0L11.2676 0Z" fill="#FFC40F"/>
<path d="M2.86513 0H0.997925V3.47856L1.93153 4.41217L2.86513 3.47856V0Z" fill="#46C7C2"/>
<path d="M7.06639 11.0321V5.41187L7.40832 4.30561C7.49111 4.03772 7.53321 3.75894 7.53321 3.47856V0H4.73237V3.47856C4.73237 3.75894 4.77447 4.03775 4.85726 4.30561L5.19918 5.41187V7.27907C3.91015 7.27907 2.86516 6.23408 2.86516 4.94505V3.47853H0.997925V4.94505C0.997925 7.26533 2.87887 9.14628 5.19915 9.14628V11.0321C5.19915 13.2235 6.97563 14.9999 9.16701 15V13.1328C8.00688 13.1328 7.06639 12.1923 7.06639 11.0321Z" fill="#FFD959"/>
<path d="M13.1349 2.02637H11.2675C10.1797 2.41089 9.40039 3.44832 9.40039 4.6678C9.40039 5.88729 10.1797 6.92472 11.2675 7.30924H13.1349C14.2227 6.92472 15.002 5.88729 15.002 4.6678C15.002 3.44832 14.2227 2.41089 13.1349 2.02637Z" fill="#FFF7E0"/>
<path d="M11.2676 7.30923C11.5597 7.41247 11.8739 7.46881 12.2012 7.46881C12.5286 7.46881 12.8428 7.41244 13.1348 7.30923V2.02677C12.8428 1.92353 12.5286 1.86719 12.2012 1.86719C11.8739 1.86719 11.5597 1.92355 11.2676 2.02677V7.30923Z" fill="#FFEAA6"/>
</g>
<defs>
<clipPath id="clip0_26:1627">
<rect width="15" height="15" fill="white" transform="translate(0.5)"/>
</clipPath>
</defs>
</svg>
