<svg width="47" height="34" viewBox="0 0 47 34" fill="none" xmlns="http://www.w3.org/2000/svg">
<g clip-path="url(#clip0_13:899)">
<path d="M18.98 -1.72681C20.1304 -2.20922 20.6128 -3.58223 20.0933 -4.69549L18.2749 -8.51766C17.7554 -9.59343 16.4937 -10.0762 15.3805 -9.59343C12.2263 -8.25753 9.51735 -6.51343 7.36506 -4.39825C4.73036 -1.91235 2.94916 0.944997 1.98434 4.09921C1.01952 7.29091 0.5 11.6322 0.5 17.1614V28.5537C0.5 29.7783 1.50193 30.7802 2.72651 30.7802H17.3101C18.5347 30.7802 19.5366 29.7783 19.5366 28.5537V13.9701C19.5366 12.7451 18.5347 11.7436 17.3101 11.7436H10.3337C10.408 7.99523 11.2986 4.98982 12.9313 2.72583C14.2672 0.908259 16.2711 -0.576078 18.98 -1.72681Z" fill="#93B0D0"/>
<path d="M45.1786 -1.72698C46.329 -2.20939 46.811 -3.5824 46.2919 -4.69565L44.4736 -8.48034C43.954 -9.55649 42.6923 -10.0389 41.5791 -9.55649C38.462 -8.22058 35.7898 -6.47649 33.6008 -4.39841C30.9657 -1.87504 29.1478 0.982312 28.1826 4.13653C27.2178 7.25327 26.7357 11.5953 26.7357 17.1616V28.5539C26.7357 29.7785 27.7376 30.7804 28.9622 30.7804H43.5458C44.7704 30.7804 45.7724 29.7785 45.7724 28.5539V13.9703C45.7724 12.7453 44.7704 11.7438 43.5458 11.7438H36.5323C36.6066 7.99544 37.4975 4.99002 39.1299 2.72604C40.4658 0.908095 42.4697 -0.576243 45.1786 -1.72698Z" fill="#93B0D0"/>
</g>
<defs>
<clipPath id="clip0_13:899">
<rect width="46" height="33" fill="white" transform="translate(0.5 0.5)"/>
</clipPath>
</defs>
</svg>
