<svg width="66" height="65" viewBox="0 0 66 65" fill="none" xmlns="http://www.w3.org/2000/svg">
<rect x="0.5" width="65" height="65" rx="5" fill="url(#paint0_linear_13:185)" fill-opacity="0.8"/>
<rect x="0.5" width="65" height="65" rx="5" fill="url(#paint1_linear_13:185)" fill-opacity="0.2"/>
<g clip-path="url(#clip0_13:185)">
<path d="M34.8229 23.0208H20.9687C20.365 23.0208 19.875 22.5308 19.875 21.9271V19.0104C19.875 16.7981 21.6731 15 23.8854 15H31.9062C34.1185 15 35.9167 16.7981 35.9167 19.0104V21.9271C35.9167 22.5308 35.4267 23.0208 34.8229 23.0208Z" fill="#A36C22"/>
<path d="M36.2812 47.0833H19.5104C17.2981 47.0833 15.5 45.2851 15.5 43.0728V24.8437C15.5 22.6314 17.2981 20.8333 19.5104 20.8333H36.2812C38.4935 20.8333 40.2917 22.6314 40.2917 24.8437V43.0728C40.2917 45.2851 38.4935 47.0833 36.2812 47.0833Z" fill="#ECEFF1"/>
<path d="M26.0729 39.7917H15.5V28.125H26.0729C28.2852 28.125 30.0833 29.9231 30.0833 32.1354V35.7812C30.0833 37.9935 28.2852 39.7917 26.0729 39.7917Z" fill="#A36C22"/>
<path d="M27.8958 15H23.8854C21.6731 15 19.875 16.7981 19.875 19.0104V20.8333H27.8958V15Z" fill="#6F2205"/>
<path d="M27.8958 39.3526C27.349 39.6326 26.7292 39.7916 26.0729 39.7916H15.5V43.0728C15.5 45.2851 17.2981 47.0833 19.5104 47.0833H27.8958V39.3526ZM27.8958 20.8333H19.875H19.5104C17.2981 20.8333 15.5 22.6314 15.5 24.8437V28.1249H26.0729C26.7292 28.1249 27.349 28.2824 27.8958 28.5639V20.8333Z" fill="#CDD0D2"/>
<path d="M26.0729 28.125H15.5V39.7917H26.0729C26.7292 39.7917 27.349 39.6327 27.8958 39.3527V28.564C27.349 28.2825 26.7292 28.125 26.0729 28.125Z" fill="#6F2205"/>
<path d="M42.4791 32.5C38.0603 32.5 34.4583 36.1167 34.4583 40.55C34.4583 42.825 35.5374 45.0708 37.3749 46.6458V47.4479C37.3749 48.8479 38.527 50 39.927 50H45.0312C46.4312 50 47.5832 48.8479 47.5832 47.4479V46.6458C49.4207 45.0708 50.4999 42.825 50.4999 40.55C50.4999 36.1167 46.8978 32.5 42.4791 32.5Z" fill="#EACC97"/>
<path d="M43.9374 47.0833V50H41.0208V47.0833C41.0208 46.2812 41.677 45.625 42.4791 45.625C43.2812 45.625 43.9374 46.2812 43.9374 47.0833Z" fill="white"/>
<path d="M41.0208 38.6979C41.0208 39.7042 40.2042 40.5208 39.1979 40.5208C38.1917 40.5208 37.375 39.7042 37.375 38.6979C37.375 37.6917 38.1917 36.875 39.1979 36.875C40.2042 36.875 41.0208 37.6917 41.0208 38.6979Z" fill="white"/>
<path d="M45.7604 40.5208C46.7672 40.5208 47.5833 39.7047 47.5833 38.6979C47.5833 37.6911 46.7672 36.875 45.7604 36.875C44.7536 36.875 43.9375 37.6911 43.9375 38.6979C43.9375 39.7047 44.7536 40.5208 45.7604 40.5208Z" fill="white"/>
<path d="M39.1978 40.5208C38.1916 40.5208 37.3749 39.7042 37.3749 38.6979C37.3749 37.6917 38.1916 36.875 39.1978 36.875C40.2041 36.875 41.0207 37.6917 41.0207 38.6979C41.0207 39.7042 40.2041 40.5208 39.1978 40.5208ZM42.4791 32.5C38.0603 32.5 34.4583 36.1167 34.4583 40.55C34.4583 42.825 35.5374 45.0708 37.3749 46.6458V47.4479C37.3749 48.8479 38.527 50 39.927 50H42.4791H41.0207V47.0833C41.0207 46.2812 41.677 45.625 42.4791 45.625V32.5Z" fill="#A36C22"/>
<path d="M42.4791 45.625C41.677 45.625 41.0208 46.2812 41.0208 47.0833V50H42.4791V45.625Z" fill="#DEDEDE"/>
<path d="M39.1979 36.875C38.1917 36.875 37.375 37.6917 37.375 38.6979C37.375 39.7042 38.1917 40.5208 39.1979 40.5208C40.2042 40.5208 41.0208 39.7042 41.0208 38.6979C41.0208 37.6917 40.2042 36.875 39.1979 36.875Z" fill="#DEDEDE"/>
</g>
<defs>
<linearGradient id="paint0_linear_13:185" x1="6.59375" y1="16.6562" x2="69.1563" y2="90.5937" gradientUnits="userSpaceOnUse">
<stop stop-color="white"/>
<stop offset="1" stop-color="white" stop-opacity="0"/>
</linearGradient>
<linearGradient id="paint1_linear_13:185" x1="16.9531" y1="59.3125" x2="65.5" y2="5.28125" gradientUnits="userSpaceOnUse">
<stop stop-color="#EACC97"/>
<stop offset="1" stop-color="white" stop-opacity="0"/>
</linearGradient>
<clipPath id="clip0_13:185">
<rect width="35" height="35" fill="white" transform="translate(15.5 15)"/>
</clipPath>
</defs>
</svg>
