<svg width="66" height="65" viewBox="0 0 66 65" fill="none" xmlns="http://www.w3.org/2000/svg">
<rect x="0.5" width="65" height="65" rx="5" fill="url(#paint0_linear_13:95)" fill-opacity="0.8"/>
<rect x="0.5" width="65" height="65" rx="5" fill="url(#paint1_linear_13:95)" fill-opacity="0.2"/>
<path d="M42.2456 49.999C41.6793 49.999 41.2202 49.5399 41.2202 48.9736V45.0088C41.2202 44.4425 41.6793 43.9834 42.2456 43.9834C42.8119 43.9834 43.271 44.4425 43.271 45.0088V48.9736C43.271 49.54 42.8119 49.999 42.2456 49.999Z" fill="#93B0D0"/>
<path d="M42.2456 43.9834V49.999C42.8119 49.999 43.271 49.5399 43.271 48.9736V45.0088C43.271 44.4425 42.8119 43.9834 42.2456 43.9834Z" fill="#6892C1"/>
<path d="M28.5051 25.1173H27.3774L27.3779 21.0288H20.6784L20.6779 25.1173H19.5503C18.1368 25.1173 16.9868 26.2673 16.9868 27.6808V30.8959L19.5707 37.0744L16.9868 43.3576V47.4366C16.9868 48.8502 18.1368 50.0001 19.5503 50.0001H28.5051C29.9186 50.0001 31.0686 48.8502 31.0686 47.4366V43.3227L27.6341 36.2715L31.0686 31.0006V27.6808C31.0686 26.2673 29.9186 25.1173 28.5051 25.1173Z" fill="#A36C22"/>
<path d="M31.0685 27.6808C31.0685 26.2673 29.9186 25.1173 28.505 25.1173H27.3774L27.3778 21.0288H24.0283V50.0001H28.505C29.9186 50.0001 31.0685 48.8502 31.0685 47.4366V43.3227L27.6341 36.2715L31.0685 31.0006V27.6808Z" fill="#6F2205"/>
<path d="M45.3218 24.2285H39.1694V16.0254H45.3218V24.2285Z" fill="#FFF4F4"/>
<path d="M42.2456 16.0254H45.3218V24.2285H42.2456V16.0254Z" fill="#F6EFEA"/>
<path d="M16.9868 30.9277H31.0686V43.3212H16.9868V30.9277Z" fill="#93B0D0"/>
<path d="M44.2964 46.0342H40.1948C39.6285 46.0342 39.1694 45.5751 39.1694 45.0089V40.9072C39.1694 40.3409 39.6285 39.8818 40.1948 39.8818H44.2964C44.8627 39.8818 45.3218 40.3409 45.3218 40.9072V45.0089C45.3218 45.5752 44.8627 46.0342 44.2964 46.0342Z" fill="#FFF4F4"/>
<path d="M44.2964 39.8818H42.2456V46.0342H44.2964C44.8627 46.0342 45.3218 45.5751 45.3218 45.0089V40.9072C45.3218 40.3409 44.8627 39.8818 44.2964 39.8818Z" fill="#F6EFEA"/>
<path d="M46.3472 17.0508H38.144C37.5778 17.0508 37.1187 16.5917 37.1187 16.0254C37.1187 15.4591 37.5778 15 38.144 15H46.3472C46.9135 15 47.3726 15.4591 47.3726 16.0254C47.3726 16.5917 46.9135 17.0508 46.3472 17.0508Z" fill="#93B0D0"/>
<path d="M45.8556 32.3967L47.3726 30.9423V28.8828L45.5996 27.9403L47.3726 26.8349V23.75C47.3726 23.1837 46.9135 22.7246 46.3472 22.7246H38.144C37.5778 22.7246 37.1187 23.1837 37.1187 23.75V32.3967H45.8556Z" fill="#FFF4F4"/>
<path d="M47.3726 23.75C47.3726 23.1837 46.9135 22.7246 46.3472 22.7246H42.2456V32.3967H45.8556L47.3726 30.9423V28.8828L45.5996 27.9403L47.3726 26.8349V23.75Z" fill="#F6EFEA"/>
<path d="M47.3726 26.8262H43.5444C42.9781 26.8262 42.519 27.2853 42.519 27.8516C42.519 28.4179 42.9781 28.877 43.5444 28.877H47.3726V26.8262Z" fill="#EEE1DC"/>
<path d="M37.1187 31.9414V40.9071C37.1187 41.4734 37.5778 41.9325 38.144 41.9325H46.3472C46.9135 41.9325 47.3726 41.4734 47.3726 40.9071V37.0626L46.321 36.0619L47.3726 35.0263V32.9668L46.2512 31.9414H37.1187Z" fill="#FF405C"/>
<path d="M47.3726 32.9668L46.2512 31.9414H42.2456V41.9325H46.3472C46.9135 41.9325 47.3726 41.4734 47.3726 40.9071V37.0626L46.321 36.0619L47.3726 35.0263V32.9668Z" fill="#C1126B"/>
<path d="M47.3726 30.9277H43.5444C42.9781 30.9277 42.519 31.3868 42.519 31.9531C42.519 32.5194 42.9781 32.9785 43.5444 32.9785H47.3449H47.3726V30.9277Z" fill="#EEE1DC"/>
<path d="M47.3726 35.0293H43.5444C42.9781 35.0293 42.519 35.4884 42.519 36.0547C42.519 36.621 42.9781 37.0801 43.5444 37.0801H47.3726V35.0293Z" fill="#EEE1DC"/>
<path d="M47.9878 24.7754H36.5035C35.9373 24.7754 35.4781 24.3163 35.4781 23.75C35.4781 23.1837 35.9373 22.7246 36.5035 22.7246H47.9878C48.5541 22.7246 49.0132 23.1837 49.0132 23.75C49.0132 24.3163 48.5541 24.7754 47.9878 24.7754Z" fill="#93B0D0"/>
<path d="M27.3779 21.1567L27.3785 15.5127C27.3785 15.2295 27.149 15 26.8658 15H21.1917C20.9084 15 20.679 15.2295 20.679 15.5127L20.6783 21.1567H27.3779Z" fill="#FFDE46"/>
<path d="M26.8657 15H24.0283V21.1567H27.3778L27.3784 15.5127C27.3784 15.2295 27.1489 15 26.8657 15Z" fill="#FFCD00"/>
<path d="M24.0283 30.9277H31.0685V43.3212H24.0283V30.9277Z" fill="#6892C1"/>
<path d="M46.3472 15H42.2456V17.0508H46.3472C46.9135 17.0508 47.3726 16.5917 47.3726 16.0254C47.3726 15.4591 46.9135 15 46.3472 15Z" fill="#6892C1"/>
<path d="M47.9878 22.7246H42.2456V24.7754H47.9878C48.5541 24.7754 49.0132 24.3163 49.0132 23.75C49.0132 23.1837 48.5541 22.7246 47.9878 22.7246Z" fill="#6892C1"/>
<defs>
<linearGradient id="paint0_linear_13:95" x1="6.59375" y1="16.6562" x2="69.1563" y2="90.5937" gradientUnits="userSpaceOnUse">
<stop stop-color="white"/>
<stop offset="1" stop-color="white" stop-opacity="0"/>
</linearGradient>
<linearGradient id="paint1_linear_13:95" x1="16.9531" y1="59.3125" x2="65.5" y2="5.28125" gradientUnits="userSpaceOnUse">
<stop stop-color="#EACC97"/>
<stop offset="1" stop-color="white" stop-opacity="0"/>
</linearGradient>
</defs>
</svg>
