<svg width="66" height="65" viewBox="0 0 66 65" fill="none" xmlns="http://www.w3.org/2000/svg">
<rect x="0.5" width="65" height="65" rx="5" fill="url(#paint0_linear_13:84)" fill-opacity="0.8"/>
<rect x="0.5" width="65" height="65" rx="5" fill="url(#paint1_linear_13:84)" fill-opacity="0.2"/>
<g clip-path="url(#clip0_13:84)">
<path d="M44.7148 49.9999H38.9368C38.338 49.9999 37.8526 49.5145 37.8526 48.9157V39.6278C37.8526 39.4564 37.9916 39.3174 38.163 39.3174H45.4885C45.6599 39.3174 45.7989 39.4564 45.7989 39.6278V48.9157C45.799 49.5145 45.3136 49.9999 44.7148 49.9999Z" fill="#E5F9F6"/>
<path d="M45.4887 39.3174H41.8986V49.9999H44.715C45.3137 49.9999 45.7991 49.5145 45.7991 48.9157V39.6278C45.7991 39.4564 45.6602 39.3174 45.4887 39.3174Z" fill="#D6E5E2"/>
<path d="M37.8527 42.626V48.9159C37.8527 49.5147 38.3381 50.0001 38.9369 50.0001H44.715C45.3137 50.0001 45.7991 49.5147 45.7991 48.9159V42.626H37.8527Z" fill="#A36C22"/>
<path d="M28.691 25.613C28.691 25.613 29.0897 25.2113 29.0897 23.3495C29.0897 20.6473 28.0916 18.6992 28.0916 18.6992H24.6529C24.6529 18.6992 23.6548 20.6473 23.6548 23.3495C23.6548 25.2113 24.0534 25.613 24.0534 25.613L20.9845 28.0565C20.4893 28.4507 20.2009 29.0491 20.2009 29.682V48.7695C20.2009 49.4489 20.7517 49.9997 21.4311 49.9997H31.3133C31.9928 49.9997 32.5435 49.4489 32.5435 48.7695V29.682C32.5435 29.0491 32.2551 28.4507 31.76 28.0565L28.691 25.613Z" fill="#A36C22"/>
<path d="M31.7599 28.0565L28.691 25.613C28.691 25.613 29.0896 25.2113 29.0896 23.3495C29.0896 20.6473 28.0915 18.6992 28.0915 18.6992H25.1492C25.1492 21.3421 25.1492 24.434 25.1492 24.4445C25.1423 26.034 25.8633 26.4989 27.1068 27.489L27.8196 28.0566C28.3147 28.4508 28.6031 29.0492 28.6031 29.682V49.9998H31.3132C31.9927 49.9998 32.5434 49.449 32.5434 48.7696V29.682C32.5434 29.0491 32.255 28.4507 31.7599 28.0565Z" fill="#6F2205"/>
<path d="M32.5439 30.9175H20.2009V47.4174H32.5439V30.9175Z" fill="#4A4256"/>
<path d="M32.5435 30.9175H28.6031V47.4174H32.5435V30.9175Z" fill="#352F3F"/>
<path d="M29.1655 35.528C27.2813 34.6874 25.4673 34.6855 23.5787 35.5281C23.3556 35.6276 23.0932 35.5417 22.9686 35.3316C22.8123 35.0679 22.6559 34.8041 22.4995 34.5403C22.353 34.2931 22.4533 33.9736 22.7142 33.8528C25.144 32.7283 27.5992 32.7279 30.03 33.8528C30.2909 33.9736 30.3913 34.2931 30.2447 34.5403C30.0884 34.8041 29.932 35.0678 29.7757 35.3316C29.6511 35.5417 29.3886 35.6275 29.1655 35.528Z" fill="#EFEFEF"/>
<path d="M26.3718 41.735C28.0715 41.735 29.4493 40.7905 29.4493 39.6253C29.4493 38.4602 28.0715 37.5156 26.3718 37.5156C24.6721 37.5156 23.2943 38.4602 23.2943 39.6253C23.2943 40.7905 24.6721 41.735 26.3718 41.735Z" fill="#EFEFEF"/>
<path d="M29.5642 44.8691H23.1799C22.8881 44.8691 22.6516 44.6325 22.6516 44.3408C22.6516 44.049 22.8881 43.8125 23.1799 43.8125H29.5642C29.856 43.8125 30.0925 44.049 30.0925 44.3408C30.0925 44.6325 29.856 44.8691 29.5642 44.8691Z" fill="#EFEFEF"/>
<path d="M29.0875 23.1622C29.0432 20.558 28.0915 18.6992 28.0915 18.6992H24.6529C24.6529 18.6992 23.7013 20.5579 23.6569 23.1622H29.0875Z" fill="#4A4256"/>
<path d="M29.0875 23.1622C29.0459 20.721 28.2072 18.9349 28.1022 18.7208C28.1007 18.7178 28.1 18.7162 28.0988 18.7138C28.0972 18.7106 28.0953 18.7068 28.0943 18.7048C28.0925 18.7011 28.0915 18.6992 28.0915 18.6992H25.1492C25.1492 20.2774 25.1492 22.0155 25.1492 23.1622H29.0875Z" fill="#352F3F"/>
<path d="M28.4425 19.2862H24.3019C24.1188 19.2862 23.9703 19.1377 23.9703 18.9546V15.3316C23.9703 15.1485 24.1188 15 24.3019 15H28.4425C28.6256 15 28.7741 15.1485 28.7741 15.3316V18.9545C28.7741 19.1377 28.6256 19.2862 28.4425 19.2862Z" fill="#4A4256"/>
<path d="M28.7739 16.3369H23.9703V17.4658H28.7739V16.3369Z" fill="#EFEFEF"/>
<path d="M45.7991 48.9159V42.626H41.8986V50.0001H44.715C45.3137 50.0001 45.7991 49.5147 45.7991 48.9159Z" fill="#6F2205"/>
<path d="M44.7148 48.2767H38.9368C38.338 48.2767 37.8526 48.2909 37.8526 47.6921V48.916C37.8526 49.5148 38.338 50.0002 38.9368 50.0002H44.7148C45.3136 50.0002 45.799 49.5148 45.799 48.916V47.6921C45.799 48.291 45.3136 48.2767 44.7148 48.2767Z" fill="#D7E0DC"/>
<path d="M44.715 48.2766H41.8986V50.0002H44.715C45.0732 50.0002 45.3899 49.8257 45.5872 49.5579C45.6167 49.5179 45.6444 49.4767 45.6682 49.4328C45.6849 49.4021 45.7002 49.3704 45.7139 49.338C45.7304 49.299 45.7439 49.2584 45.7558 49.2172C45.7723 49.1602 45.7844 49.1015 45.7913 49.0411C45.796 49.0001 45.7991 48.9584 45.7991 48.916V47.6921C45.7991 48.2909 45.3137 48.2766 44.715 48.2766Z" fill="#C9D1CD"/>
<path d="M30.0301 33.8531C29.5553 33.6333 29.0794 33.4572 28.6031 33.3232V35.3019C28.79 35.3691 28.9774 35.4443 29.1655 35.5282C29.3886 35.6278 29.6511 35.542 29.7757 35.3318C29.932 35.068 30.0883 34.8043 30.2447 34.5406C30.3914 34.2933 30.291 33.9738 30.0301 33.8531Z" fill="#DEE0E2"/>
<path d="M28.6031 38.1731V41.0777C29.1273 40.6994 29.4496 40.1883 29.4496 39.6254C29.4496 39.0624 29.1273 38.5514 28.6031 38.1731Z" fill="#DEE0E2"/>
</g>
<defs>
<linearGradient id="paint0_linear_13:84" x1="6.59375" y1="16.6562" x2="69.1563" y2="90.5937" gradientUnits="userSpaceOnUse">
<stop stop-color="white"/>
<stop offset="1" stop-color="white" stop-opacity="0"/>
</linearGradient>
<linearGradient id="paint1_linear_13:84" x1="16.9531" y1="59.3125" x2="65.5" y2="5.28125" gradientUnits="userSpaceOnUse">
<stop stop-color="#EACC97"/>
<stop offset="1" stop-color="white" stop-opacity="0"/>
</linearGradient>
<clipPath id="clip0_13:84">
<rect width="35" height="35" fill="white" transform="translate(15.5 15)"/>
</clipPath>
</defs>
</svg>
