<svg width="66" height="65" viewBox="0 0 66 65" fill="none" xmlns="http://www.w3.org/2000/svg">
<rect x="0.5" width="65" height="65" rx="5" fill="url(#paint0_linear_13:125)" fill-opacity="0.8"/>
<rect x="0.5" width="65" height="65" rx="5" fill="url(#paint1_linear_13:125)" fill-opacity="0.2"/>
<g clip-path="url(#clip0_13:125)">
<path d="M28.3052 45.3535C30.3744 46.2895 31.2814 50.0001 31.2814 50.0001L46.4243 49.9584C46.1404 49.3691 45.8179 48.7992 45.4588 48.2525C45.1731 47.6678 44.9336 47.0617 44.7425 46.4397C44.3878 45.2397 44.1423 44.0101 44.0087 42.7659C43.7842 40.8543 44.0724 38.9173 44.8439 37.1539C45.524 35.603 46.7049 34.3744 47.6052 32.9545C48.4978 31.5681 48.9785 29.9567 48.9914 28.3079C49.0252 26.6379 48.8204 24.9717 48.3831 23.3596C47.811 21.4067 46.6173 19.6937 44.9833 18.4808C41.9914 16.1345 38.9391 14.8226 35.0746 15.0194C33.1405 15.154 31.2189 15.4299 29.325 15.8449C27.2624 16.2601 25.0785 17.0313 23.5983 18.5942C22.5885 19.6732 21.8084 20.9461 21.3052 22.3356C21.0693 23.0268 20.8774 23.7322 20.7307 24.4476C20.4836 25.2278 20.1855 25.9908 19.8382 26.7317C19.736 26.9568 19.6914 27.2038 19.7084 27.4504C19.8243 28.2856 21.0771 28.6446 21.0873 29.5058C21.0739 29.696 21.0154 29.8803 20.9165 30.0434C20.1821 31.5948 19.2809 33.0616 18.2288 34.4178C17.9802 34.7226 17.4757 35.323 17.5384 35.7539C17.5831 36.0598 17.95 36.3139 18.1763 36.4822C18.659 36.8407 19.6421 37.0857 19.7646 37.7326C19.828 38.062 19.7881 38.403 19.6505 38.7089C19.3168 39.4132 18.9469 39.7885 19.2094 40.0094C19.4719 40.2302 20.1749 40.7607 20.1749 40.7607C20.1749 40.7607 19.5069 41.6139 19.8768 41.8758C20.3354 42.2017 20.9196 42.352 21.0752 42.962C21.1216 43.4455 21.0732 43.9333 20.9328 44.3983C20.8857 44.8532 20.9452 45.3129 21.1066 45.7409C21.3263 46.5951 22.1804 47.1243 23.0431 46.9406C24.8245 46.5071 26.5811 45.9773 28.3052 45.3535Z" fill="#6F2205"/>
<path d="M40.9486 40.6165C40.2039 40.6164 39.5331 40.1659 39.2511 39.4766C39.087 39.079 38.4999 38.5111 37.4052 37.6898C35.6335 36.3622 35.1827 33.9877 36.1983 31.3373L36.5604 30.4014L46.6518 32.2588L44.6761 34.2381H44.6665C43.7746 35.1451 42.9569 36.1969 42.9569 37.3277C42.9669 38.0332 42.8602 38.7354 42.6413 39.406C42.3996 40.1328 41.7176 40.6214 40.9517 40.6165H40.9486Z" fill="#2C3E50"/>
<path d="M41.6293 34.828C40.9071 34.8297 40.1894 34.7124 39.5052 34.481C39.0194 34.3165 38.5526 34.1003 38.1131 33.8359C37.0518 33.1598 36.0773 32.3565 35.2111 31.4439C34.7696 30.9963 34.2134 30.679 33.6035 30.5266C33.285 30.4524 32.9604 30.4074 32.6337 30.392C32.5131 30.3854 32.3779 30.3824 32.2421 30.3824C30.8992 30.4349 29.5613 30.576 28.237 30.8048L27.4157 30.9255C27.0559 30.9764 26.693 31.0026 26.3295 31.0039C26.2155 31.0039 26.1044 31.0039 25.9976 30.9955C25.464 30.983 24.936 30.8823 24.4353 30.6974C22.9751 30.1401 21.961 28.7983 21.8236 27.2414L21.8109 27.1558C21.7468 26.6978 21.7339 26.2341 21.7723 25.7733C21.7871 25.4268 21.8311 25.0822 21.9038 24.7432C21.9195 24.6744 22.1555 23.6714 22.3395 23.0632C22.3818 22.9274 22.4101 22.8369 22.4385 22.7584C22.5839 22.3728 22.7336 22.0246 22.8874 21.7102C23.3014 20.8716 23.8372 20.0988 24.4775 19.4171C25.136 18.7555 25.9188 18.2304 26.7809 17.8723C27.2094 17.6843 27.6491 17.523 28.0976 17.3895C28.5713 17.2477 29.0631 17.1246 29.5652 17.0245C30.1234 16.9092 30.7081 16.7982 31.2995 16.6938C31.667 16.6256 32.0496 16.5634 32.4316 16.5073C32.8763 16.4391 33.3211 16.383 33.7718 16.3329C34.2075 16.287 34.6287 16.249 35.0506 16.2297C35.0765 16.2297 35.1109 16.2249 35.1477 16.2231C35.3812 16.2128 35.6154 16.2068 35.8423 16.2068C36.0233 16.2068 36.1989 16.2134 36.3703 16.2195C36.8186 16.2347 37.2656 16.2775 37.7087 16.3474C39.021 16.5528 40.2891 16.9781 41.4598 17.6056C41.7778 17.7685 42.0868 17.9447 42.3921 18.1396C42.821 18.3979 43.2922 18.7197 43.806 19.1051C43.9496 19.2108 44.0908 19.3194 44.2381 19.4352C44.5122 19.6433 44.7724 19.8691 45.0171 20.1111C46.0677 21.0777 46.8302 22.3163 47.2203 23.6895C47.4619 24.5597 47.6235 25.45 47.7031 26.3495C47.7459 26.816 47.7694 27.2414 47.7755 27.656C47.7845 27.8473 47.7845 28.0585 47.7845 28.2758C47.7826 28.5267 47.7658 28.7774 47.7344 29.0264C47.691 29.5147 47.5926 29.9965 47.4412 30.4626C47.2416 31.1122 46.9554 31.7319 46.5903 32.305C45.9262 33.316 44.9576 34.0896 43.8247 34.5136C43.1096 34.7158 42.3706 34.8215 41.6275 34.828H41.6293Z" fill="#2C3E50"/>
<path d="M37.3268 31.77C36.9285 32.808 36.2526 35.3183 38.1294 36.7243C39.5342 37.778 40.1207 38.423 40.3669 39.0174C40.4543 39.2548 40.6804 39.4125 40.9333 39.4125C41.1862 39.4125 41.4123 39.2548 41.4996 39.0174C41.6762 38.472 41.7609 37.901 41.7501 37.3278C41.7501 35.5898 43.0052 34.1597 44.1578 33.0433C44.1638 33.0433 44.1699 33.0373 44.1759 33.0312L37.3268 31.77Z" fill="#DF4D60"/>
<path d="M46.5716 27.6727C46.5656 27.2623 46.5414 26.858 46.5052 26.4658C46.4311 25.6373 46.2816 24.8172 46.0587 24.0158C45.7248 22.8409 45.0684 21.7831 44.1638 20.9623C43.953 20.7553 43.7293 20.5618 43.494 20.383C43.3552 20.2744 43.2225 20.1718 43.0837 20.0692C42.6311 19.7313 42.1845 19.4235 41.744 19.158C41.4604 18.977 41.1828 18.8201 40.8992 18.6753C39.8466 18.1099 38.7062 17.7264 37.5259 17.5408C37.1284 17.4778 36.7273 17.4395 36.325 17.4261C36.1681 17.4201 36.0052 17.4141 35.8423 17.4141C35.6311 17.4141 35.4138 17.4201 35.1966 17.4322C35.1664 17.4322 35.1363 17.4382 35.1061 17.4382C34.7078 17.4563 34.3095 17.4925 33.9052 17.5348C33.4707 17.583 33.0423 17.6373 32.6078 17.7037C32.2397 17.758 31.8716 17.8184 31.5095 17.8848C30.9302 17.9873 30.3569 18.096 29.8018 18.2106C29.319 18.3072 28.8664 18.4218 28.444 18.5485C28.0434 18.6672 27.6504 18.8103 27.2673 18.977C26.5499 19.2707 25.8977 19.7034 25.3483 20.2503C24.7916 20.8419 24.3259 21.5131 23.9664 22.2416C23.8216 22.5373 23.6888 22.8511 23.5681 23.171C23.544 23.2373 23.5199 23.3158 23.4897 23.4123C23.3147 23.9916 23.0794 24.9934 23.0794 24.9934C23.0187 25.2815 22.9823 25.5742 22.9707 25.8684C22.937 26.2669 22.9511 26.668 23.013 27.0632V27.0692C23.0921 28.1877 23.8087 29.1605 24.8535 29.5675C25.2385 29.7085 25.6444 29.7839 26.0544 29.7908C26.4516 29.808 26.8496 29.7877 27.2431 29.7304C29.0426 29.393 30.8677 29.2113 32.6983 29.1873C33.1009 29.2072 33.5008 29.2638 33.8931 29.3563C34.7118 29.5593 35.459 29.983 36.0535 30.5813C36.8545 31.4261 37.7541 32.1716 38.7328 32.802C40.1658 33.6715 41.9069 33.8721 43.5 33.3511C44.3439 33.0083 45.0651 32.4196 45.5699 31.6615C45.8818 31.1719 46.1254 30.642 46.294 30.0865C46.4206 29.6969 46.5016 29.2939 46.5354 28.8856C46.5617 28.6835 46.5758 28.48 46.5776 28.2761C46.5776 28.071 46.5776 27.8718 46.5716 27.6727Z" fill="#FB7B76"/>
<path d="M26.0604 25.2587C26.0574 26.2573 25.2486 27.0661 24.25 27.0691H23.013V27.063C22.9511 26.6679 22.937 26.2667 22.9707 25.8682C22.9945 25.8632 23.0189 25.8612 23.0431 25.8622H24.25C24.5833 25.8622 24.8535 25.592 24.8535 25.2587C24.8535 24.9254 25.1237 24.6553 25.4569 24.6553C25.7902 24.6553 26.0604 24.9254 26.0604 25.2587Z" fill="#FF5364"/>
<path d="M26.0604 28.8791V29.7299C26.0614 29.7502 26.0594 29.7706 26.0544 29.7903C25.6444 29.7835 25.2385 29.708 24.8535 29.567V28.8791C24.8535 28.5458 25.1237 28.2756 25.457 28.2756C25.7902 28.2756 26.0604 28.5458 26.0604 28.8791Z" fill="#FF5364"/>
<path d="M29.681 27.6726H29.0776C28.0777 27.6726 27.2672 26.8621 27.2672 25.8623V25.2588C27.2672 24.259 28.0777 23.4485 29.0776 23.4485H29.681C30.0143 23.4485 30.2844 23.7187 30.2844 24.0519C30.2844 24.3852 30.0143 24.6554 29.681 24.6554H29.0776C28.7443 24.6554 28.4741 24.9256 28.4741 25.2588V25.8623C28.4741 26.1956 28.7443 26.4657 29.0776 26.4657H29.681C30.0143 26.4657 30.2844 26.7359 30.2844 27.0692C30.2844 27.4024 30.0143 27.6726 29.681 27.6726Z" fill="#FF5364"/>
<path d="M26.6638 22.8447C26.6638 23.1779 26.3936 23.4481 26.0603 23.4481H23.6948C23.6248 23.4484 23.5553 23.4361 23.4896 23.4119C23.5198 23.3153 23.5439 23.2369 23.5681 23.1705C23.6888 22.8507 23.8215 22.5369 23.9663 22.2412H26.0603C26.3936 22.2412 26.6638 22.5114 26.6638 22.8447Z" fill="#FF5364"/>
<path d="M29.681 21.638C29.681 21.9713 29.4108 22.2414 29.0776 22.2414C28.079 22.2385 27.2702 21.4297 27.2672 20.4311V18.9768C27.6503 18.8101 28.0433 18.667 28.4439 18.5483C28.4632 18.6089 28.4734 18.6719 28.4741 18.7354V20.4311C28.4741 20.7644 28.7443 21.0345 29.0776 21.0345C29.4108 21.0345 29.681 21.3047 29.681 21.638Z" fill="#FF5364"/>
<path d="M32.0948 26.4654H31.4914C31.1581 26.4654 30.8879 26.1952 30.8879 25.862C30.8879 25.5287 31.1581 25.2585 31.4914 25.2585H32.0948C32.4281 25.2585 32.6983 24.9883 32.6983 24.6551V23.4482C32.6983 23.1149 32.9685 22.8447 33.3017 22.8447C33.635 22.8447 33.9052 23.1149 33.9052 23.4482V24.6551C33.9052 25.6549 33.0947 26.4654 32.0948 26.4654Z" fill="#FF5364"/>
<path d="M35.1121 23.4484C34.7788 23.4484 34.5086 23.1782 34.5086 22.8449V22.2415C34.5086 21.9082 34.2385 21.638 33.9052 21.638H32.6983C32.365 21.638 32.0948 21.9082 32.0948 22.2415V22.8449C32.0948 23.1782 31.8247 23.4484 31.4914 23.4484C31.1581 23.4484 30.8879 23.1782 30.8879 22.8449V22.2415C30.8879 21.2417 31.6985 20.4312 32.6983 20.4312H33.9052C34.905 20.4312 35.7155 21.2417 35.7155 22.2415V22.8449C35.7155 23.1782 35.4453 23.4484 35.1121 23.4484Z" fill="#FF5364"/>
<path d="M32.6982 18.0174V18.6209C32.6982 18.9541 32.4281 19.2243 32.0948 19.2243C31.7615 19.2243 31.4913 18.9541 31.4913 18.6209V18.0174C31.491 17.9725 31.4971 17.9278 31.5094 17.8846C31.8715 17.8183 32.2396 17.7579 32.6077 17.7036C32.6683 17.7969 32.6998 17.9062 32.6982 18.0174Z" fill="#FF5364"/>
<path d="M35.112 17.474V18.6205C35.112 18.9538 34.8419 19.224 34.5086 19.224C34.1753 19.224 33.9052 18.9538 33.9052 18.6205V17.5343C34.3095 17.4921 34.7077 17.4558 35.106 17.4377C35.1109 17.4491 35.113 17.4616 35.112 17.474Z" fill="#FF5364"/>
<path d="M38.7327 20.4312C38.7327 20.7645 38.4626 21.0346 38.1293 21.0346H36.9224C36.5891 21.0346 36.319 20.7645 36.319 20.4312V17.4683C36.318 17.4539 36.32 17.4395 36.325 17.426C36.7273 17.4394 37.1283 17.4777 37.5259 17.5407V19.8277H38.1293C38.4626 19.8277 38.7327 20.0979 38.7327 20.4312Z" fill="#FF5364"/>
<path d="M33.9051 28.2758V29.2413C33.9044 29.2798 33.9004 29.3182 33.8931 29.356C33.5008 29.2635 33.1008 29.2069 32.6982 29.187V28.2758C32.6982 27.9425 32.9684 27.6724 33.3017 27.6724C33.635 27.6724 33.9051 27.9425 33.9051 28.2758Z" fill="#FF5364"/>
<path d="M37.5258 28.276H36.9224C35.9226 28.276 35.1121 27.4655 35.1121 26.4657V25.8622C35.1121 25.529 35.3822 25.2588 35.7155 25.2588C36.0488 25.2588 36.319 25.529 36.319 25.8622V26.4657C36.319 26.799 36.5891 27.0691 36.9224 27.0691H37.5258C37.8591 27.0691 38.1293 27.3393 38.1293 27.6726C38.1293 28.0059 37.8591 28.276 37.5258 28.276Z" fill="#FF5364"/>
<path d="M39.9397 25.8619H39.3362C38.3364 25.8619 37.5259 25.0514 37.5259 24.0516C37.5259 23.0517 38.3364 22.2412 39.3362 22.2412H39.9397C40.2729 22.2412 40.5431 22.5114 40.5431 22.8447C40.5431 23.1779 40.2729 23.4481 39.9397 23.4481H39.3362C39.0029 23.4481 38.7328 23.7183 38.7328 24.0516C38.7328 24.3848 39.0029 24.655 39.3362 24.655H39.9397C40.2729 24.655 40.5431 24.9252 40.5431 25.2585C40.5431 25.5917 40.2729 25.8619 39.9397 25.8619Z" fill="#FF5364"/>
<path d="M41.75 19.2244V21.0348C41.75 21.3681 41.4798 21.6382 41.1465 21.6382C40.8133 21.6382 40.5431 21.3681 40.5431 21.0348V19.2244C40.5436 18.9873 40.6829 18.7725 40.8991 18.6753C41.1827 18.8201 41.4603 18.977 41.7439 19.1581C41.7492 19.1798 41.7513 19.2021 41.75 19.2244Z" fill="#FF5364"/>
<path d="M44.1638 20.962V22.2413C44.1608 23.2399 43.352 24.0486 42.3535 24.0516C42.0202 24.0516 41.75 23.7814 41.75 23.4482C41.75 23.1149 42.0202 22.8447 42.3535 22.8447C42.6867 22.8447 42.9569 22.5745 42.9569 22.2413V20.437C42.9573 20.3036 43.0019 20.1742 43.0836 20.0688C43.2224 20.1714 43.3552 20.274 43.494 20.3826C43.7293 20.5614 43.953 20.7549 44.1638 20.962Z" fill="#FF5364"/>
<path d="M41.1466 28.8795H40.5431C40.2099 28.8795 39.9397 28.6093 39.9397 28.276C39.9397 27.9428 40.2099 27.6726 40.5431 27.6726H41.1466C41.4799 27.6726 41.75 27.4024 41.75 27.0691V25.8622C41.75 25.529 42.0202 25.2588 42.3535 25.2588C42.6868 25.2588 42.9569 25.529 42.9569 25.8622V27.0691C42.9569 28.069 42.1464 28.8795 41.1466 28.8795Z" fill="#FF5364"/>
<path d="M42.9568 30.6899C42.9568 31.0231 42.6866 31.2933 42.3534 31.2933H40.543C40.2097 31.2933 39.9396 31.5635 39.9396 31.8968V33.1037C39.9393 33.1845 39.9229 33.2646 39.8913 33.339C39.487 33.202 39.0985 33.0219 38.7327 32.8019V31.8968C38.7356 30.8982 39.5444 30.0894 40.543 30.0864H42.3534C42.5134 30.0864 42.6669 30.15 42.7801 30.2632C42.8932 30.3763 42.9568 30.5298 42.9568 30.6899Z" fill="#FF5364"/>
<path d="M46.5716 27.6725H44.7673C44.434 27.6725 44.1638 27.4023 44.1638 27.069C44.1638 26.7358 44.434 26.4656 44.7673 26.4656H46.5052C46.5414 26.8578 46.5656 27.2621 46.5716 27.6725Z" fill="#FF5364"/>
<path d="M46.5354 28.8855C46.5016 29.2938 46.4206 29.6968 46.294 30.0864H44.7673C44.434 30.0864 44.1638 29.8162 44.1638 29.4829C44.1638 29.1497 44.434 28.8795 44.7673 28.8795H46.4509C46.4792 28.8783 46.5075 28.8803 46.5354 28.8855Z" fill="#FF5364"/>
</g>
<defs>
<linearGradient id="paint0_linear_13:125" x1="6.59375" y1="16.6562" x2="69.1563" y2="90.5937" gradientUnits="userSpaceOnUse">
<stop stop-color="white"/>
<stop offset="1" stop-color="white" stop-opacity="0"/>
</linearGradient>
<linearGradient id="paint1_linear_13:125" x1="16.9531" y1="59.3125" x2="65.5" y2="5.28125" gradientUnits="userSpaceOnUse">
<stop stop-color="#EACC97"/>
<stop offset="1" stop-color="white" stop-opacity="0"/>
</linearGradient>
<clipPath id="clip0_13:125">
<rect width="35" height="35" fill="white" transform="translate(15.5 15)"/>
</clipPath>
</defs>
</svg>
