<svg width="66" height="65" viewBox="0 0 66 65" fill="none" xmlns="http://www.w3.org/2000/svg">
<rect x="0.5" width="65" height="65" rx="5" fill="url(#paint0_linear_13:215)" fill-opacity="0.8"/>
<rect x="0.5" width="65" height="65" rx="5" fill="url(#paint1_linear_13:215)" fill-opacity="0.2"/>
<g clip-path="url(#clip0_13:215)">
<path d="M49.4744 31.4999C49.4744 40.5986 42.0986 47.9744 32.9999 47.9744C23.9012 47.9744 16.5254 40.5986 16.5254 31.4999C16.5254 22.4015 23.9012 15.0254 32.9999 15.0254C42.0986 15.0254 49.4744 22.4015 49.4744 31.4999Z" fill="#FEF4F5"/>
<path d="M33 15.0254V47.9744C42.0987 47.9744 49.4745 40.5986 49.4745 31.4999C49.4745 22.4012 42.0987 15.0254 33 15.0254Z" fill="#93B0D0"/>
<path d="M50.4953 32.4993L50.48 32.3359C50.4929 32.0585 50.4998 31.78 50.4998 31.5004C50.4998 26.8261 48.6795 22.4313 45.3742 19.1261C42.069 15.8208 37.6742 14.0005 32.9999 14.0005C28.3256 14.0005 23.9309 15.8208 20.6256 19.1261C17.3203 22.4313 15.5 26.8261 15.5 31.5004C15.5 31.6214 15.5019 31.7418 15.5043 31.8622C15.5 32.1073 15.4987 32.3562 15.5019 32.6104C15.5021 32.6331 15.5032 32.6561 15.5048 32.6788C15.6439 34.4452 15.9427 35.9683 16.4183 37.3352C16.4215 37.3451 16.4252 37.3547 16.4287 37.3643C17.0231 38.92 17.755 40.3011 18.6039 41.4691C18.6098 41.4773 18.6159 41.4853 18.6221 41.4934C18.6413 41.5182 18.6608 41.5428 18.6803 41.5676C19.2557 42.3828 19.9054 43.1545 20.6256 43.8747C23.9309 47.18 28.3256 49.0003 32.9999 49.0003C37.6742 49.0003 42.069 47.18 45.3742 43.8747C48.3393 40.9099 50.1081 37.0682 50.4413 32.9343C50.4889 32.7989 50.5097 32.6515 50.4953 32.4993ZM39.0911 45.6972C39.4732 45.4667 39.8446 45.2205 40.2024 44.9583C40.2051 44.9567 40.2075 44.9548 40.2102 44.9527C41.768 43.7903 43.1272 42.2712 44.1406 40.5601C45.0741 39.0276 45.4992 37.5325 45.7651 36.4009C45.7683 36.3865 45.7716 36.372 45.7742 36.3576C45.8228 36.1018 45.876 35.8492 45.9323 35.6065C45.9368 35.5875 45.9406 35.5683 45.9441 35.5491C45.9785 35.3499 45.9913 35.1709 46.0025 35.0129C46.0084 34.9301 46.014 34.8519 46.0215 34.7904C46.022 34.7862 46.0226 34.7819 46.0231 34.7776L46.0912 34.1728C46.115 33.9749 46.1075 33.8024 46.1021 33.6761C46.1003 33.6355 46.0984 33.5899 46.0989 33.5696C46.0995 33.5552 46.0995 33.5407 46.0995 33.5266C46.092 32.9578 46.1056 32.651 46.1056 32.6481C46.1064 32.6331 46.1053 32.6187 46.1053 32.6037C46.1056 32.5837 46.1061 32.5634 46.1051 32.5431V32.5429C46.1035 32.5098 46.1003 32.4764 46.0952 32.443C46.0947 32.4401 46.0487 32.1311 45.9964 31.5688C45.9951 31.5549 45.9935 31.5407 45.9916 31.5268C45.9889 31.5079 45.9862 31.4633 45.9838 31.4243C45.9764 31.2991 45.9659 31.1284 45.9211 30.9332L45.7908 30.346C45.7897 30.3415 45.7886 30.3367 45.7876 30.3321C45.7737 30.2734 45.7603 30.1984 45.7462 30.1188C45.7192 29.9661 45.6882 29.793 45.6335 29.601C45.6282 29.5823 45.6223 29.5639 45.6159 29.5455C45.5336 29.3097 45.4559 29.0704 45.3846 28.8349C45.3804 28.8202 45.3756 28.8061 45.3705 28.7917C44.999 27.7329 44.4394 26.3449 43.402 24.9921C42.2911 23.5021 40.8922 22.234 39.3557 21.3248C39.353 21.3232 39.3503 21.3216 39.3474 21.32C37.5527 20.2804 35.4926 19.6532 33.3882 19.5053C33.1609 19.4788 32.951 19.4882 32.7809 19.4959C32.6931 19.4999 32.61 19.5037 32.5462 19.5013C32.5363 19.501 32.5265 19.5007 32.5166 19.5005L32.1486 19.498C31.9254 19.4863 31.7321 19.4975 31.5451 19.533C31.394 19.5565 31.2306 19.5717 31.0583 19.5883C30.7125 19.6209 30.3238 19.6577 29.9216 19.7717C28.7208 19.9736 27.6276 20.4599 26.6951 20.9013C26.6663 20.9146 26.6382 20.9298 26.611 20.9459C26.3942 21.0743 26.1731 21.1966 25.9536 21.3093C25.9464 21.313 25.9394 21.3168 25.9322 21.3205C25.7325 21.4292 25.5675 21.5515 25.4217 21.6594C25.3413 21.7186 25.2655 21.7747 25.2003 21.8158C25.195 21.8193 25.1894 21.8225 25.184 21.8263L24.8414 22.0508C24.8016 22.0773 24.7634 22.1061 24.7274 22.1376L24.416 22.411C24.4104 22.4159 24.4051 22.4209 24.3995 22.426C24.3338 22.4864 24.2537 22.5507 24.1688 22.6188C24.0401 22.7219 23.8945 22.8386 23.7503 22.9798C22.9599 23.7371 22.2366 24.649 21.5394 25.7668C21.5324 25.778 21.5257 25.7892 21.5193 25.8007C20.9807 26.7425 20.5519 27.8165 20.2085 29.0833C20.2045 29.0969 20.2013 29.1102 20.1983 29.1241C19.9695 30.1287 19.8731 31.2379 19.8947 32.6147C19.8953 32.6465 19.8974 32.6785 19.9009 32.71C20.0483 34.0566 20.2798 35.1274 20.6293 36.0794C20.6344 36.093 20.6395 36.1066 20.6451 36.12C21.1268 37.2775 21.6593 38.2362 22.2726 39.0506C22.2812 39.0618 22.29 39.073 22.299 39.0842C23.0753 40.0298 23.8387 40.7759 24.6326 41.3649C24.7819 41.4784 24.9274 41.5663 25.0558 41.644C25.137 41.6928 25.2134 41.739 25.2708 41.7801C25.2764 41.7844 25.2823 41.7882 25.2879 41.7922L25.588 41.9983C25.6321 42.0282 25.6783 42.0549 25.7263 42.0779L26.0545 42.2346C26.0609 42.2376 26.0671 42.2405 26.0735 42.2434C26.1266 42.2675 26.1952 42.3067 26.2679 42.3478C26.4022 42.4242 26.5694 42.5193 26.7683 42.5946C26.7768 42.598 26.7856 42.6013 26.7945 42.6042C26.9921 42.6733 27.187 42.7503 27.3734 42.8328C27.4078 42.8477 27.4428 42.8611 27.4786 42.8723C28.4207 43.1708 29.3488 43.4411 30.3358 43.475C30.5382 43.507 30.732 43.5164 30.9155 43.5164C31.0466 43.5164 31.1726 43.5115 31.2923 43.507C31.4346 43.5017 31.5694 43.4966 31.6851 43.5011C31.9134 43.5198 32.1118 43.4913 32.2514 43.4637L32.5422 43.4226C32.5529 43.421 32.5636 43.4194 32.5743 43.4176C32.6084 43.4117 32.6707 43.4074 32.731 43.4034C32.8707 43.3938 33.0586 43.3812 33.2635 43.3278C34.9383 42.9818 36.4555 42.2982 37.7741 41.2963C37.7781 41.2934 37.7818 41.2901 37.7858 41.2872C38.8579 40.4474 39.7888 39.3563 40.4785 38.1315C41.1039 37.0658 41.3517 36.0655 41.5352 35.211C41.5397 35.1899 41.5437 35.1685 41.5469 35.1472C41.5696 34.9947 41.5982 34.8468 41.6321 34.7071C41.6385 34.6802 41.6441 34.6529 41.6484 34.6254C41.6743 34.4607 41.6772 34.3127 41.6794 34.2046C41.6799 34.1669 41.681 34.1157 41.6828 34.0978C41.6844 34.0841 41.6858 34.0703 41.6866 34.0564C41.6943 33.9421 41.7058 33.8323 41.7213 33.7202C41.7215 33.7173 41.7221 33.7143 41.7224 33.7116C41.7475 33.517 41.7306 33.3517 41.7205 33.2532C41.7194 33.2419 41.7181 33.2313 41.7173 33.2206C41.717 33.2075 41.7165 33.1941 41.7159 33.1811C41.7023 32.9127 41.7077 32.7479 41.7101 32.6956C41.7202 32.5877 41.7141 32.4764 41.6874 32.3648C41.6871 32.3629 41.6473 32.1856 41.6134 31.8633C41.6118 31.8499 41.6102 31.8363 41.6083 31.823C41.6075 31.8141 41.6073 31.8051 41.6067 31.7957C41.6019 31.6975 41.5936 31.5327 41.537 31.3418C41.5362 31.3388 41.5354 31.3362 41.5344 31.3332C41.5018 31.2262 41.4727 31.118 41.4478 31.0115C41.4446 30.9973 41.4412 30.9837 41.4372 30.9698C41.4329 30.9541 41.4246 30.9073 41.4187 30.8731C41.4003 30.7706 41.3755 30.6296 41.3247 30.4737C41.3157 30.4459 41.3053 30.4184 41.294 30.3917C41.2372 30.2571 41.1891 30.1268 41.1466 29.9928C41.1397 29.9706 41.132 29.9487 41.1237 29.9273C40.8203 29.1532 40.4358 28.2539 39.7076 27.3743C38.9124 26.3756 37.937 25.5409 36.8862 24.9601C36.8814 24.9574 36.8763 24.9548 36.8715 24.9521C35.6477 24.3013 34.3059 23.9371 32.8824 23.8693C32.6864 23.8487 32.5155 23.8674 32.3986 23.8802C32.3705 23.8832 32.3326 23.8874 32.3163 23.8882C32.2958 23.8877 32.2752 23.888 32.2546 23.8888C32.2015 23.8906 32.1462 23.8914 32.0864 23.8906C31.8867 23.8776 31.704 23.8947 31.5305 23.9424C31.4581 23.9579 31.3622 23.9689 31.2613 23.9801C31.0493 24.0039 30.7916 24.0327 30.516 24.1264C29.799 24.2637 29.171 24.5737 28.614 24.8487L28.4647 24.9222C28.4188 24.9446 28.375 24.9705 28.3328 24.9996C28.2297 25.0709 28.1269 25.1321 28.019 25.1865C28.0076 25.1921 27.9961 25.1983 27.9849 25.2044C27.8148 25.2981 27.6869 25.4066 27.5931 25.4856C27.567 25.5078 27.5312 25.5382 27.5224 25.5446C27.5063 25.5548 27.4903 25.5654 27.4748 25.5767C27.426 25.6114 27.375 25.645 27.3234 25.6765C27.2535 25.7192 27.1889 25.77 27.1312 25.8279L26.9464 26.013C26.9408 26.0189 26.9349 26.0247 26.9293 26.0306C26.9152 26.0456 26.869 26.0832 26.8353 26.1107C26.7525 26.1783 26.6497 26.2624 26.544 26.3748C25.949 26.9924 25.5071 27.6822 25.188 28.2146C25.1771 28.233 25.1667 28.2517 25.1568 28.2707C24.7779 29.0034 24.5658 29.7452 24.4083 30.3743C24.4027 30.3968 24.3976 30.4197 24.3936 30.4424C24.263 31.1714 24.2686 31.8619 24.2881 32.6246C24.2895 32.6764 24.2948 32.7282 24.3039 32.7795C24.4243 33.4492 24.5653 34.1602 24.8489 34.846C24.8585 34.8689 24.8689 34.8916 24.8801 34.9138C25.1512 35.4537 25.4908 36.0823 25.9568 36.6505C25.972 36.6692 25.988 36.6874 26.0046 36.705C26.4097 37.1336 26.9026 37.6249 27.4895 38.0233C27.6108 38.1082 27.724 38.1643 27.8076 38.2057C27.8268 38.2153 27.8463 38.2241 27.8647 38.2343C27.8679 38.2367 27.8711 38.2388 27.8743 38.2412L28.0487 38.3585C28.1291 38.4127 28.2169 38.4554 28.3096 38.485C28.3504 38.4978 28.3889 38.512 28.4244 38.5269C28.4364 38.532 28.4487 38.5368 28.461 38.5414C28.4722 38.5472 28.4831 38.5536 28.4941 38.5598C28.5867 38.6116 28.7269 38.6898 28.9152 38.7422C28.9304 38.7464 28.9459 38.7505 28.9614 38.7539C29.0337 38.7705 29.0976 38.7913 29.156 38.8169C29.2169 38.8439 29.2802 38.865 29.3451 38.8794C29.4295 38.8984 29.5125 38.9184 29.595 38.9382C30.0164 39.0386 30.4904 39.1518 31.017 39.1347C31.0955 39.144 31.1702 39.1478 31.2413 39.1478C31.3833 39.1478 31.5096 39.1331 31.6148 39.1208C31.6557 39.1163 31.7094 39.1099 31.7382 39.1083C31.9208 39.1264 32.1043 39.1051 32.2955 39.0434C32.3179 39.0378 32.3406 39.033 32.3641 39.0287C32.374 39.0271 32.3836 39.025 32.3932 39.0231C32.3959 39.0228 32.3986 39.0228 32.4012 39.0226C32.4968 39.0167 32.6645 39.0068 32.8565 38.9387C33.8133 38.6631 34.6354 38.2297 35.369 37.6145C35.3767 37.6078 35.3847 37.6012 35.3922 37.5945C35.9762 37.0741 36.4737 36.41 36.8323 35.6722C37.1519 35.0617 37.2374 34.4842 37.294 34.1004C37.2998 34.0601 37.3057 34.0209 37.3116 33.9829C37.3148 33.9618 37.3175 33.9408 37.3193 33.9194C37.3738 33.3285 37.3367 32.8847 37.3185 32.6684C37.3252 32.5669 37.3169 32.4676 37.2953 32.3728L37.2958 32.3749C37.2958 32.3749 37.2953 32.372 37.2945 32.3677C37.2942 32.3672 37.2942 32.3666 37.2942 32.3661C37.2908 32.3477 37.2822 32.2993 37.2745 32.2243C37.2742 32.2219 37.2739 32.2198 37.2737 32.2176C37.2705 32.1551 37.2625 32.0368 37.2192 31.8911C37.2083 31.855 37.1992 31.8214 37.1914 31.788C37.1904 31.7829 37.189 31.7776 37.1877 31.7722L37.1856 31.7605C37.1759 31.7065 37.1599 31.6165 37.1257 31.5111C37.1167 31.483 37.1062 31.4553 37.0948 31.428C37.0779 31.3885 37.0638 31.3498 37.0512 31.31C37.044 31.2876 37.0363 31.2657 37.0277 31.2438C36.9223 30.9746 36.7263 30.4753 36.3319 29.9973C35.9447 29.5124 35.4686 29.106 34.9543 28.8218C34.9495 28.8192 34.9444 28.8165 34.9399 28.8141C34.3441 28.4971 33.6926 28.319 33.0023 28.2838C32.8643 28.271 32.7518 28.2835 32.6877 28.2905H32.6875C32.6813 28.2907 32.6755 28.2907 32.6691 28.291C32.6586 28.2915 32.648 28.2915 32.6375 28.2915C32.503 28.2846 32.3764 28.2963 32.2533 28.3273C32.2359 28.3297 32.2183 28.3313 32.201 28.3332C32.1011 28.3444 31.9601 28.3604 31.7985 28.4104C31.4314 28.4867 31.1248 28.6381 30.8749 28.7615L30.8121 28.7922C30.7662 28.8149 30.7219 28.8408 30.6797 28.8699C30.6583 28.8849 30.637 28.8977 30.614 28.9092C30.6031 28.9148 30.5921 28.9206 30.5812 28.9265C30.4583 28.9946 30.3716 29.068 30.3195 29.1118L30.3165 29.1145C30.3131 29.1166 30.3099 29.119 30.3067 29.1212C30.2973 29.1281 30.2874 29.1343 30.2778 29.1401C30.2079 29.1829 30.1432 29.2336 30.0853 29.2915L30.0108 29.3663L30.0023 29.3733C29.9619 29.4064 29.8952 29.4608 29.8244 29.5359C29.5312 29.8408 29.3189 30.1709 29.1667 30.4248C29.1558 30.4432 29.1451 30.4622 29.1352 30.4811C28.9446 30.8504 28.8385 31.2235 28.7675 31.5071C28.7619 31.5298 28.7571 31.5525 28.7528 31.5752C28.6877 31.9383 28.6901 32.2793 28.6986 32.6259C28.7002 32.6782 28.7053 32.7303 28.7146 32.7819C28.7691 33.0857 28.8396 33.4387 28.9827 33.7851C28.9924 33.8083 29.0028 33.831 29.014 33.8534C29.1438 34.1122 29.3085 34.4158 29.5443 34.7039C29.5598 34.7229 29.5758 34.7413 29.5926 34.7589C29.7873 34.9648 30.0258 35.2019 30.3222 35.4035C30.4009 35.458 30.4728 35.4949 30.5171 35.517L30.5654 35.5496C30.6445 35.6027 30.7299 35.6444 30.8204 35.6738C30.8786 35.7055 30.978 35.7563 31.1072 35.7923C31.119 35.7955 31.1312 35.7987 31.1433 35.8014C31.1996 35.8254 31.2578 35.8441 31.3176 35.8577C31.351 35.8652 31.3839 35.873 31.4167 35.881C31.6084 35.9266 31.8399 35.9819 32.1139 35.9819C32.1614 35.9819 32.2103 35.9803 32.2602 35.9766C32.825 35.9354 33.252 35.4441 33.2106 34.8791C33.1692 34.3143 32.6805 33.8903 32.1155 33.9311C32.0797 33.9309 31.9716 33.905 31.8928 33.8863C31.8787 33.8828 31.8642 33.8793 31.8501 33.8761C31.8135 33.8625 31.7761 33.8502 31.7382 33.8387C31.7032 33.8206 31.6592 33.7995 31.6071 33.7792C31.5454 33.7391 31.4904 33.7108 31.4535 33.6924C31.3366 33.6088 31.217 33.4908 31.1112 33.3803C31.0191 33.2612 30.9366 33.1106 30.8661 32.9717C30.8191 32.8483 30.7841 32.6943 30.747 32.4956C30.7427 32.2905 30.7433 32.1167 30.7662 31.9674C30.8095 31.7989 30.8642 31.6112 30.9441 31.4486C31.0367 31.2958 31.1569 31.1108 31.2949 30.9655L31.3005 30.961C31.3371 30.9308 31.3969 30.8822 31.461 30.8165C31.4669 30.8123 31.473 30.8083 31.4792 30.804C31.5398 30.7634 31.5884 30.7241 31.6231 30.695C31.6752 30.6665 31.7264 30.6358 31.7764 30.6034L31.7823 30.6005C31.9558 30.5148 32.12 30.4342 32.2311 30.4155C32.2851 30.4064 32.3382 30.393 32.3903 30.3757C32.4031 30.3741 32.4162 30.3727 32.429 30.3714C32.4845 30.365 32.555 30.3572 32.6354 30.3423C32.6645 30.342 32.692 30.342 32.7195 30.3412C32.7884 30.3412 32.8469 30.3359 32.8891 30.3313C33.2773 30.35 33.6405 30.4472 33.9692 30.6208C34.3228 30.8179 34.5796 31.0886 34.7329 31.2817C34.7374 31.2876 34.7423 31.2932 34.7471 31.2988C34.914 31.4999 35.0138 31.7279 35.1073 31.964C35.1262 32.0222 35.1471 32.0801 35.1695 32.1378C35.1759 32.1722 35.1847 32.2176 35.1978 32.2694C35.208 32.3116 35.2186 32.3533 35.2298 32.3944C35.2317 32.4139 35.2339 32.4358 35.2371 32.4596C35.2459 32.5405 35.2557 32.6094 35.2648 32.666C35.2656 32.7322 35.2704 32.7909 35.2744 32.8374C35.2894 33.0126 35.314 33.3026 35.2798 33.7023C35.2747 33.7343 35.2699 33.7672 35.2651 33.8008C35.2197 34.1071 35.173 34.4241 35.0112 34.729C35.005 34.7405 34.9989 34.7522 34.9933 34.7643C34.8253 35.1127 34.5236 35.618 34.0389 36.0532C33.5251 36.4815 32.9425 36.7835 32.2589 36.9769C32.1887 36.9811 32.0851 36.9891 31.9652 37.0172C31.904 37.0287 31.8431 37.0423 31.7831 37.0575C31.6282 37.0548 31.4917 37.0706 31.3782 37.0839C31.3382 37.0885 31.2859 37.0946 31.2562 37.0965C31.1713 37.0807 31.0845 37.0765 30.9983 37.0826C30.735 37.1016 30.4271 37.0284 30.0706 36.9435C30.0095 36.9288 29.9475 36.9141 29.8853 36.8994C29.763 36.8505 29.6375 36.81 29.5053 36.7761C29.5016 36.7739 29.4978 36.7715 29.4938 36.7694C29.4236 36.7301 29.3205 36.6727 29.1886 36.6241C29.1542 36.61 29.1189 36.5963 29.0831 36.583L29.0292 36.5467C28.9106 36.4639 28.7996 36.4086 28.7173 36.368C28.697 36.3579 28.6701 36.3445 28.6567 36.3373C28.6532 36.3352 28.65 36.3328 28.6468 36.3306C28.2316 36.05 27.8457 35.6668 27.5208 35.324C27.2022 34.9285 26.9525 34.47 26.7304 34.0294C26.5421 33.5618 26.4313 33.0179 26.336 32.4937C26.3213 31.89 26.3194 31.3447 26.4062 30.8374C26.5317 30.3394 26.6965 29.766 26.964 29.2403C27.2262 28.8039 27.5814 28.2525 28.0252 27.7933C28.0297 27.7884 28.0343 27.7836 28.0388 27.7786C28.0527 27.7641 28.0986 27.7268 28.132 27.6993C28.2097 27.636 28.3056 27.5575 28.4052 27.4541L28.5013 27.358C28.5496 27.3265 28.5977 27.2942 28.6447 27.2611C28.7576 27.1868 28.8492 27.1091 28.9176 27.0514C28.939 27.0333 28.967 27.0095 28.9838 26.9964C29.1366 26.9174 29.2872 26.8285 29.4327 26.7313L29.5211 26.6878C30.0209 26.4413 30.4928 26.2082 30.9529 26.1315C31.0266 26.1193 31.0984 26.099 31.1676 26.0712C31.2263 26.0477 31.3657 26.0319 31.4885 26.0183C31.6394 26.0015 31.8092 25.9825 31.9953 25.9401C32.0039 25.9403 32.0122 25.9406 32.0207 25.9409C32.1198 25.9428 32.2124 25.9422 32.303 25.9393C32.4282 25.9406 32.539 25.9281 32.6215 25.919C32.6437 25.9166 32.6723 25.9134 32.691 25.9118C32.7115 25.9139 32.7318 25.9155 32.7524 25.9163C33.88 25.966 34.9393 26.2493 35.9009 26.7591C36.9319 27.331 37.6702 28.1075 38.1084 28.659C38.1129 28.6648 38.1175 28.6704 38.1223 28.6763C38.6518 29.3137 38.9471 29.9976 39.2016 30.6451C39.2537 30.8069 39.3135 30.9701 39.3797 31.1308C39.3856 31.1578 39.3928 31.1981 39.3989 31.2323C39.4118 31.3052 39.4278 31.3952 39.4537 31.4932C39.4841 31.6224 39.5188 31.753 39.5573 31.882C39.5576 31.8876 39.5578 31.8932 39.5581 31.8985C39.5608 31.9517 39.5642 32.0216 39.576 32.1031C39.6038 32.3608 39.635 32.5533 39.6582 32.6772C39.6545 32.8029 39.6534 32.9984 39.666 33.262C39.6673 33.3418 39.6745 33.4107 39.6799 33.4628C39.6807 33.4713 39.6817 33.4799 39.6825 33.4884C39.6646 33.6241 39.651 33.7621 39.6411 33.8994C39.6315 33.9987 39.6299 34.09 39.6283 34.1645C39.6275 34.2046 39.6267 34.2518 39.6243 34.2836C39.5848 34.454 39.5506 34.6308 39.5231 34.811C39.3672 35.5344 39.1728 36.3061 38.7052 37.1005C38.7015 37.1064 38.698 37.1125 38.6948 37.1184C38.1372 38.1109 37.388 38.9924 36.5268 39.668C35.4485 40.4861 34.2013 41.0437 32.8205 41.3251C32.794 41.3305 32.7735 41.3355 32.7476 41.343C32.7225 41.3486 32.6472 41.3537 32.5922 41.3574C32.4942 41.3641 32.3729 41.3721 32.2397 41.3943L31.9337 41.4378C31.912 41.4408 31.8904 41.4445 31.8693 41.449C31.8517 41.4525 31.8402 41.4546 31.8333 41.4557C31.8236 41.4549 31.8143 41.4544 31.8047 41.4538C31.5956 41.4434 31.3932 41.4512 31.2146 41.4578C30.9924 41.4661 30.7825 41.4741 30.6295 41.445C30.5734 41.4343 30.5163 41.4282 30.4591 41.4269C29.7286 41.4116 28.9795 41.1959 28.1491 40.9337C27.9347 40.8405 27.7128 40.7534 27.4879 40.6744C27.4367 40.6533 27.3608 40.6103 27.2807 40.5649C27.179 40.507 27.0639 40.4415 26.9296 40.3801L26.6818 40.2618L26.4556 40.1067C26.336 40.0215 26.2187 39.951 26.1151 39.8883C26.0219 39.8319 25.9336 39.7788 25.8719 39.7315C25.8673 39.728 25.8633 39.7248 25.8588 39.7216C25.2043 39.2367 24.5626 38.6079 23.8975 37.7996C23.3976 37.1325 22.9557 36.3317 22.5466 35.3525C22.2638 34.576 22.0721 33.6788 21.9442 32.5343C21.9281 31.3583 22.0072 30.4237 22.1928 29.5994C22.487 28.5198 22.8462 27.6151 23.2897 26.8352C23.8932 25.8699 24.5092 25.0917 25.1725 24.4567C25.176 24.4535 25.1795 24.4503 25.1827 24.4471C25.2548 24.3761 25.3504 24.2995 25.4513 24.2183C25.5512 24.1384 25.6636 24.0482 25.7765 23.9454L26.0262 23.7262L26.3013 23.5456C26.4278 23.4653 26.5408 23.3817 26.6409 23.308C26.7384 23.2356 26.8305 23.1675 26.9039 23.1264C27.1413 23.0041 27.3798 22.8725 27.614 22.735C28.4263 22.3515 29.3667 21.9357 30.3101 21.7862C30.3574 21.7787 30.4041 21.7678 30.4501 21.7539C30.6778 21.6839 30.9563 21.6578 31.2509 21.6297C31.4538 21.6105 31.6634 21.5907 31.884 21.5555C31.8976 21.5534 31.9112 21.551 31.9246 21.5483C31.9379 21.5456 31.9729 21.5419 32.0546 21.5467C32.0728 21.5477 32.0907 21.5483 32.1088 21.5485L32.4885 21.5512C32.6287 21.5555 32.758 21.5496 32.8725 21.5445C32.9809 21.5397 33.0928 21.5344 33.1534 21.5427C33.1753 21.5456 33.1975 21.5477 33.2197 21.5494C35.021 21.6719 36.7826 22.2054 38.3145 23.092C39.6198 23.865 40.8115 24.9475 41.7611 26.2229C41.7643 26.2271 41.7672 26.2309 41.7704 26.2351C42.6225 27.3444 43.0869 28.4814 43.4279 29.4499C43.5021 29.6953 43.5827 29.9434 43.6679 30.1885C43.6906 30.2742 43.7082 30.3733 43.7267 30.4777C43.7448 30.5794 43.7635 30.6844 43.7897 30.7962L43.9195 31.381C43.9203 31.3848 43.9211 31.3885 43.9221 31.3922C43.9288 31.4216 43.9331 31.4892 43.9365 31.5487C43.9408 31.6168 43.9454 31.6932 43.9558 31.7776C43.9966 32.2107 44.0337 32.5071 44.0532 32.6507C44.049 32.7939 44.0428 33.0927 44.0482 33.5343C44.0466 33.6187 44.05 33.6954 44.053 33.764C44.0556 33.8259 44.0586 33.8964 44.0546 33.9279C44.0543 33.9317 44.0538 33.9354 44.0532 33.9392L43.9854 34.5424C43.9715 34.6561 43.9638 34.7637 43.9566 34.8676C43.9486 34.9782 43.9411 35.0831 43.9269 35.175C43.8687 35.4276 43.8137 35.6887 43.7632 35.9528C43.5178 36.9942 43.1608 38.2273 42.3859 39.4979C42.3835 39.5016 42.3811 39.5056 42.3787 39.5096C41.5029 40.9905 40.3301 42.3032 38.9875 43.3062C37.3508 44.503 35.3983 45.3257 33.3406 45.6854C33.3222 45.6886 33.3035 45.6924 33.2851 45.6966C33.1874 45.7193 33.0493 45.7289 32.9027 45.7391C32.7783 45.7479 32.6375 45.7578 32.4893 45.7775L32.0434 45.8256C32.029 45.8272 32.0143 45.8291 31.9996 45.8312C31.8987 45.8467 31.8231 45.8523 31.77 45.848C31.7564 45.847 31.743 45.8462 31.7294 45.8456C31.4981 45.8366 31.2722 45.8384 31.0535 45.8403C30.668 45.8435 30.3043 45.8464 29.9796 45.7896C29.9411 45.7826 29.9019 45.7781 29.8623 45.7757C28.6434 45.7038 27.4222 45.3231 26.384 44.9562C26.0855 44.8245 25.7771 44.6947 25.4663 44.57C25.3392 44.5153 25.1971 44.4341 25.0468 44.3481C24.9191 44.275 24.7872 44.1994 24.6411 44.126L24.2462 43.9182L23.8777 43.664C23.7447 43.569 23.6142 43.4838 23.4879 43.4013C23.3311 43.2993 23.1834 43.2031 23.0582 43.1046C23.0553 43.1025 23.0523 43.1003 23.0497 43.0979C22.1506 42.4069 21.2774 41.5342 20.4507 40.5013C18.6931 38.0575 17.6301 35.0826 17.555 31.867C17.5807 30.561 17.7217 29.4013 17.9842 28.3412C18.3972 26.8693 18.9487 25.5484 19.624 24.4143C20.448 23.1184 21.3604 22.0044 22.3356 21.1037C22.338 21.1013 22.3407 21.0991 22.3431 21.0967C22.475 20.9723 22.6288 20.8503 22.792 20.721C22.9159 20.6225 23.0441 20.5208 23.1738 20.4094L23.5592 20.0906L23.9752 19.819C24.1183 19.7288 24.25 19.6372 24.3773 19.5485C24.545 19.4321 24.7034 19.3221 24.8473 19.2441C25.1691 19.0724 25.4898 18.901 25.8089 18.7303C27.3563 18.012 28.5486 17.6139 29.6714 17.4395C29.7059 17.4342 29.74 17.4272 29.7739 17.4182C30.1737 17.3135 30.6111 17.2764 31.0744 17.2371C31.3035 17.2176 31.5406 17.1973 31.7812 17.1682C31.7913 17.1672 31.8018 17.1656 31.8119 17.164C31.8973 17.1511 32.0026 17.1479 32.1435 17.1549C32.1548 17.1554 32.1662 17.1557 32.1775 17.156L32.6976 17.1632C32.8552 17.169 33.0031 17.1669 33.1462 17.165C33.3326 17.1624 33.5091 17.1597 33.6498 17.1781C33.6667 17.1802 33.6832 17.1819 33.7 17.1832C36.196 17.3811 38.6326 18.1594 40.7413 19.4313C42.5344 20.5274 44.1536 22.038 45.4242 23.7993C45.4263 23.8025 45.4287 23.8057 45.4311 23.8089C46.6431 25.4498 47.2832 27.1393 47.6597 28.2718L47.6976 28.3965C47.7887 28.6966 47.8757 28.9829 47.9585 29.2547C47.998 29.4072 48.0266 29.5668 48.0565 29.7356C48.0776 29.8539 48.0992 29.9759 48.1257 30.0996L48.1558 30.2504C48.2007 30.4771 48.2429 30.6894 48.2827 30.8873C48.3006 30.9768 48.3078 31.0844 48.3153 31.1981C48.3211 31.283 48.327 31.3709 48.3377 31.4643L48.4234 32.3749C48.0883 38.3558 44.3355 43.4381 39.0911 45.6972Z" fill="#EACC97"/>
<path d="M50.4806 32.3354C50.4935 32.058 50.5004 31.7795 50.5004 31.4999C50.5004 26.8256 48.6801 22.4309 45.3748 19.1256C42.0695 15.8203 37.6748 14 33.0005 14V17.1661C33.0496 17.1656 33.099 17.1653 33.1471 17.1645C33.3337 17.1619 33.5102 17.1595 33.651 17.1776C33.6675 17.1798 33.6843 17.1816 33.7012 17.183C36.1971 17.3808 38.6337 18.1592 40.7424 19.4308C42.5355 20.5272 44.1548 22.0378 45.4253 23.7988C45.4274 23.802 45.4298 23.8052 45.4319 23.8084C46.6443 25.4493 47.2843 27.1391 47.6608 28.2713L47.6985 28.396C47.7898 28.6964 47.8768 28.9824 47.9596 29.2545C47.9991 29.4067 48.0275 29.5666 48.0576 29.7351C48.0787 29.8534 48.1004 29.9754 48.1268 30.0991L48.157 30.2502C48.2018 30.4769 48.244 30.6892 48.2838 30.8871C48.3017 30.9765 48.3089 31.0839 48.3164 31.1976C48.3223 31.2828 48.3281 31.3704 48.3388 31.4639L48.4245 32.3744C48.0891 38.3553 44.3363 43.4376 39.0916 45.6967C39.474 45.4662 39.8452 45.22 40.2033 44.9578C40.2057 44.9559 40.2084 44.9541 40.2108 44.9522C41.7689 43.7896 43.128 42.2707 44.1414 40.5596C45.0747 39.0271 45.4998 37.532 45.7657 36.4004C45.7692 36.386 45.7721 36.3715 45.7751 36.3569C45.8234 36.101 45.8768 35.8484 45.9332 35.606C45.9374 35.587 45.9414 35.5678 45.9446 35.5486C45.9791 35.3494 45.9919 35.1705 46.0031 35.0124C46.009 34.9296 46.0146 34.8514 46.0223 34.7899C46.0229 34.7857 46.0234 34.7814 46.0237 34.7771L46.0918 34.172C46.1155 33.9742 46.1081 33.8017 46.1027 33.6754C46.1011 33.6351 46.099 33.5891 46.0998 33.5691C46.1 33.5547 46.1003 33.5403 46.1 33.5258C46.0928 32.9573 46.1062 32.6505 46.1065 32.6473C46.107 32.6326 46.1062 32.6179 46.1062 32.6033C46.1062 32.5832 46.107 32.5629 46.1059 32.5426V32.5424C46.1041 32.5093 46.1009 32.4759 46.096 32.4425C46.0955 32.4393 46.0496 32.1306 45.997 31.5683C45.9956 31.5541 45.994 31.5402 45.9924 31.5263C45.9898 31.5074 45.9871 31.4628 45.9847 31.4235C45.9769 31.2986 45.9668 31.1279 45.9219 30.9327L45.7916 30.3455C45.7906 30.341 45.7895 30.3362 45.7884 30.3317C45.7745 30.2729 45.7612 30.1976 45.747 30.118C45.7198 29.9656 45.6891 29.7923 45.6341 29.6005C45.6287 29.5818 45.6229 29.5632 45.6165 29.545C45.5342 29.3089 45.4565 29.07 45.3855 28.8342C45.3809 28.8197 45.3761 28.8053 45.3713 28.7912C44.9996 27.7324 44.4402 26.3441 43.4028 24.9916C42.2917 23.5016 40.8927 22.2335 39.3565 21.3243C39.3536 21.3227 39.3509 21.3211 39.3483 21.3195C37.5533 20.2797 35.4932 19.6524 33.3887 19.5048C33.251 19.4887 33.1209 19.4863 33.0008 19.4885V21.539C33.0627 21.5371 33.118 21.5374 33.1546 21.5422C33.1765 21.5451 33.1986 21.5473 33.2208 21.5489C35.0222 21.6714 36.7837 22.2049 38.3159 23.0915C39.6209 23.8645 40.8126 24.9471 41.7622 26.2224C41.7654 26.2266 41.7683 26.2304 41.7715 26.2347C42.6236 27.3439 43.088 28.4809 43.429 29.4494C43.5032 29.6948 43.5839 29.9429 43.669 30.188C43.6917 30.2737 43.7094 30.3728 43.7278 30.4772C43.7459 30.5789 43.7646 30.6839 43.7908 30.7957L43.9206 31.3805C43.9214 31.3843 43.9222 31.388 43.9232 31.3918C43.9299 31.4211 43.9342 31.4887 43.9377 31.5482C43.9419 31.6163 43.9465 31.6927 43.9569 31.7771C43.9977 32.2102 44.0351 32.5066 44.0544 32.6503C44.0501 32.7934 44.0439 33.0922 44.0493 33.5338C44.0477 33.6182 44.0511 33.6949 44.0541 33.7635C44.0568 33.8254 44.0597 33.8959 44.0557 33.9274C44.0554 33.9312 44.0549 33.9349 44.0544 33.9387L43.9868 34.5419C43.9726 34.6556 43.9649 34.7632 43.9577 34.8671C43.9497 34.9777 43.9422 35.0826 43.928 35.1745C43.8698 35.4271 43.8148 35.6882 43.7646 35.9523C43.519 36.9937 43.1619 38.2269 42.387 39.4974C42.3846 39.5011 42.3822 39.5051 42.3801 39.5091C41.504 40.9901 40.3312 42.3028 38.9886 43.3057C37.352 44.5025 35.3995 45.3252 33.3417 45.6849C33.3233 45.6881 33.3046 45.6919 33.2862 45.6961C33.2104 45.7138 33.11 45.7234 33.0008 45.7317V48.9998C37.6751 48.9998 42.0698 47.1795 45.3751 43.8742C48.3401 40.9094 50.1089 37.0677 50.4419 32.9338C50.4897 32.7985 50.5105 32.6511 50.4961 32.4988L50.4806 32.3354Z" fill="#A36C22"/>
<path d="M37.7738 41.296C37.7778 41.2928 37.7815 41.2899 37.7855 41.287C38.8577 40.4472 39.7885 39.3561 40.4782 38.1312C41.1036 37.0655 41.3517 36.0652 41.5349 35.2108C41.5394 35.1894 41.5434 35.1683 41.5466 35.1469C41.5693 34.9945 41.5979 34.8465 41.6318 34.7069C41.6382 34.6799 41.6438 34.6527 41.6481 34.6252C41.674 34.4601 41.6769 34.3122 41.6791 34.2043C41.6799 34.1667 41.6807 34.1151 41.6825 34.0975C41.6841 34.0836 41.6855 34.07 41.6863 34.0561C41.694 33.9418 41.7055 33.8318 41.721 33.7197C41.7213 33.717 41.7218 33.7141 41.7221 33.7114C41.7474 33.5167 41.7303 33.3514 41.7202 33.2526C41.7191 33.2417 41.7178 33.231 41.717 33.2203C41.7167 33.207 41.7164 33.1939 41.7156 33.1808C41.7023 32.9124 41.7076 32.7477 41.7098 32.6954C41.7199 32.5875 41.7138 32.4761 41.6873 32.3642C41.6868 32.3626 41.647 32.1853 41.6131 31.863C41.6118 31.8494 41.6099 31.8361 41.608 31.8227C41.6072 31.8136 41.607 31.8048 41.6064 31.7955C41.6016 31.6972 41.5934 31.5325 41.5367 31.3415C41.5359 31.3386 41.5351 31.3357 41.5343 31.333C41.5015 31.2259 41.4724 31.1178 41.4476 31.0109C41.4443 30.9971 41.4409 30.9834 41.4371 30.9696C41.4329 30.9538 41.4243 30.9071 41.4184 30.8729C41.4 30.7701 41.3752 30.6294 41.3245 30.4734C41.3154 30.4456 41.3052 30.4181 41.2937 30.3914C41.2369 30.2569 41.1888 30.1266 41.1466 29.9922C41.1394 29.9703 41.1319 29.9484 41.1234 29.9271C40.82 29.1527 40.4355 28.2536 39.7073 27.374C38.9121 26.3754 37.9367 25.5406 36.8859 24.9598C36.8811 24.9572 36.876 24.9545 36.8712 24.9518C35.6814 24.319 34.3796 23.9582 32.9999 23.876V25.931C34.0354 26.0087 35.0103 26.2864 35.9011 26.7585C36.9321 27.3305 37.6705 28.107 38.1086 28.6584C38.1132 28.6643 38.118 28.6699 38.1225 28.6758C38.652 29.3132 38.9474 29.997 39.2019 30.6446C39.2539 30.8064 39.3137 30.9696 39.38 31.1303C39.3861 31.1573 39.393 31.1976 39.3992 31.2318C39.4123 31.3047 39.428 31.3947 39.4539 31.4927C39.4844 31.6219 39.5191 31.7525 39.5575 31.8815C39.5578 31.8871 39.5581 31.8927 39.5583 31.898C39.561 31.9511 39.5645 32.0211 39.5762 32.1026C39.604 32.3602 39.6352 32.5528 39.6585 32.6767C39.6547 32.8024 39.6539 32.9979 39.6665 33.2615C39.6675 33.3413 39.6748 33.4102 39.6801 33.4623C39.6809 33.4708 39.682 33.4793 39.6828 33.4879C39.6651 33.6235 39.6513 33.7616 39.6416 33.8988C39.6318 33.9982 39.6302 34.0895 39.6286 34.164C39.6278 34.2041 39.627 34.2513 39.6246 34.2831C39.585 34.4535 39.5511 34.6302 39.5234 34.8105C39.3674 35.5339 39.173 36.3056 38.7055 37.1C38.702 37.1058 38.6985 37.112 38.695 37.1179C38.1378 38.1104 37.3882 38.9919 36.5273 39.6674C35.4955 40.4501 34.3096 40.9935 32.9999 41.2859V43.3778C33.0824 43.3668 33.171 43.3513 33.2632 43.3273C34.938 42.9812 36.4552 42.2979 37.7738 41.296Z" fill="#6F2205"/>
<path d="M35.3919 37.5942C35.9759 37.0738 36.4737 36.4097 36.832 35.6719C37.1517 35.0615 37.2371 34.4839 37.2937 34.1002C37.2996 34.0598 37.3055 34.0206 37.3113 33.9827C37.3146 33.9616 37.3172 33.9405 37.3194 33.9191C37.3736 33.3282 37.3367 32.8844 37.3183 32.6681C37.3252 32.5666 37.3167 32.4673 37.2953 32.3725L37.2956 32.3746C37.2956 32.3746 37.2951 32.3717 37.2943 32.3674C37.294 32.3669 37.294 32.3663 37.294 32.3658C37.2905 32.3474 37.2822 32.299 37.2742 32.224C37.274 32.2216 37.2737 32.2195 37.2734 32.2173C37.2702 32.1549 37.2622 32.0366 37.219 31.8908C37.208 31.8547 37.1989 31.8211 37.1912 31.7877C37.1901 31.7826 37.1888 31.7773 37.1874 31.7722L37.1853 31.7602C37.1757 31.7062 37.1597 31.6163 37.1255 31.5108C37.1164 31.4827 37.106 31.455 37.0945 31.4277C37.0777 31.3882 37.0635 31.3495 37.051 31.3097C37.0438 31.2873 37.036 31.2654 37.0275 31.2435C36.922 30.9746 36.726 30.475 36.3316 29.997C35.9447 29.5121 35.4683 29.1057 34.954 28.8215C34.9492 28.8189 34.9444 28.8162 34.9396 28.8138C34.3439 28.4968 33.6923 28.3187 33.0023 28.2835C33.0015 28.2835 33.0007 28.2835 32.9996 28.2832V30.3393C33.3462 30.3698 33.672 30.4638 33.9692 30.6205C34.3228 30.8176 34.5794 31.0883 34.7329 31.2814C34.7375 31.2873 34.742 31.2929 34.7468 31.2985C34.9137 31.4996 35.0138 31.7276 35.107 31.9637C35.1263 32.0219 35.1471 32.0798 35.1695 32.1375C35.1757 32.1719 35.1845 32.2173 35.1978 32.2691C35.208 32.3113 35.2184 32.353 35.2299 32.3941C35.2315 32.4136 35.2339 32.4355 35.2368 32.4593C35.2459 32.5402 35.2555 32.6091 35.2646 32.6657C35.2656 32.7319 35.2704 32.7906 35.2745 32.8371C35.2891 33.0123 35.314 33.3023 35.2795 33.702C35.2747 33.7341 35.2699 33.7669 35.2648 33.8006C35.2197 34.1068 35.1727 34.4238 35.0109 34.7287C35.0048 34.7402 34.9989 34.752 34.9933 34.764C34.825 35.1125 34.5236 35.6177 34.0389 36.0529C33.7214 36.3176 33.3775 36.5336 32.9996 36.7061V38.8952C33.8955 38.6183 34.6723 38.1985 35.3687 37.6143C35.3767 37.6076 35.3845 37.6009 35.3919 37.5942Z" fill="#6F2205"/>
</g>
<defs>
<linearGradient id="paint0_linear_13:215" x1="6.59375" y1="16.6562" x2="69.1563" y2="90.5937" gradientUnits="userSpaceOnUse">
<stop stop-color="white"/>
<stop offset="1" stop-color="white" stop-opacity="0"/>
</linearGradient>
<linearGradient id="paint1_linear_13:215" x1="16.9531" y1="59.3125" x2="65.5" y2="5.28125" gradientUnits="userSpaceOnUse">
<stop stop-color="#EACC97"/>
<stop offset="1" stop-color="white" stop-opacity="0"/>
</linearGradient>
<clipPath id="clip0_13:215">
<rect width="35" height="35" fill="white" transform="translate(15.5 14)"/>
</clipPath>
</defs>
</svg>
