<svg width="20" height="20" viewBox="0 0 20 20" fill="none" xmlns="http://www.w3.org/2000/svg">
<g clip-path="url(#clip0_13:1725)">
<path d="M16.5958 10.8567C16.2725 10.4483 16.365 10.2667 16.5958 9.90166C16.6 9.89749 19.2692 6.20916 19.5442 4.95832L19.5458 4.95749C19.6825 4.50166 19.5458 4.16666 18.885 4.16666H16.6983C16.1417 4.16666 15.885 4.45416 15.7475 4.77582C15.7475 4.77582 14.6342 7.44082 13.0592 9.16832C12.5508 9.66749 12.3158 9.82749 12.0383 9.82749C11.9017 9.82749 11.6892 9.66749 11.6892 9.21166V4.95749C11.6892 4.41082 11.5333 4.16666 11.0725 4.16666H7.63417C7.285 4.16666 7.0775 4.42166 7.0775 4.65916C7.0775 5.17749 7.865 5.29666 7.94667 6.75499V9.91916C7.94667 10.6125 7.82083 10.74 7.54167 10.74C6.79833 10.74 4.99417 8.06416 3.925 5.00166C3.70917 4.40749 3.49833 4.16749 2.9375 4.16749H0.75C0.125833 4.16749 0 4.45499 0 4.77666C0 5.34499 0.743333 8.17082 3.45667 11.9042C5.265 14.4525 7.81167 15.8333 10.1283 15.8333C11.5208 15.8333 11.6908 15.5267 11.6908 14.9992C11.6908 12.5642 11.565 12.3342 12.2625 12.3342C12.5858 12.3342 13.1425 12.4942 14.4425 13.7233C15.9283 15.1808 16.1725 15.8333 17.0042 15.8333H19.1908C19.8142 15.8333 20.13 15.5267 19.9483 14.9217C19.5325 13.6492 16.7225 11.0317 16.5958 10.8567V10.8567Z" fill="#EACC97"/>
</g>
<defs>
<clipPath id="clip0_13:1725">
<rect width="20" height="20" fill="white"/>
</clipPath>
</defs>
</svg>
